  0
SECTION
  2
HEADER
  9
$ACADVER
  1
AC1018
  9
$HANDSEED
  5
FFFFFFFF
  9
$ANGBASE
  50
0.0
  9
$ANGDIR
  70
1
  9
$MEASUREMENT
  70
0
  9
$INSUNITS
  70
1
  0
ENDSEC
  0
SECTION
  2
TABLES
  0
TABLE
  2
APPID
  5
1
330
0
100
AcDbSymbolTable
 70
1
  0
APPID
  5
2
330
1
100
AcDbSymbolTableRecord
100
AcDbRegAppTableRecord
  2
ACAD
 70
0
  0
ENDTAB
  0
TABLE
  2
LTYPE
  5
3
330
0
100
AcDbSymbolTable
 70
6
  0
LTYPE
  5
4
330
3
100
AcDbSymbolTableRecord
100
AcDbLinetypeTableRecord
  2
ByBlock
 70
0
  3

 72
65
 73
0
 40
0
  0
LTYPE
  5
5
330
3
100
AcDbSymbolTableRecord
100
AcDbLinetypeTableRecord
  2
ByLayer
 70
0
  3

 72
65
 73
0
 40
0
  0
LTYPE
  5
6
330
3
100
AcDbSymbolTableRecord
100
AcDbLinetypeTableRecord
  2
CONTINUOUS
 70
0
  3
Solid line
 72
65
 73
0
 40
0
  0
LTYPE
  5
7
330
3
100
AcDbSymbolTableRecord
100
AcDbLinetypeTableRecord
  2
DASHDOT
 70
0
  3
Dash Dot ____ _ ____ _
 72
65
 73
4
 40
2
 49
1.25
 74
0
 49
-0.25
 74
0
 49
0.25
 74
0
 49
-0.25
 74
0
  0
LTYPE
  5
8
330
3
100
AcDbSymbolTableRecord
100
AcDbLinetypeTableRecord
  2
DASHED
 70
0
  3
Dashed __ __ __ __ __
 72
65
 73
2
 40
0.75
 49
0.5
 74
0
 49
-0.25
 74
0
  0
LTYPE
  5
9
330
3
100
AcDbSymbolTableRecord
100
AcDbLinetypeTableRecord
  2
DOTTED
 70
0
  3
Dotted .  .  .  .
 72
65
 73
2
 40
0.2
 49
0.0
 74
0
 49
-0.2
 74
0
  0
ENDTAB
  0
TABLE
  2
STYLE
  5
A
330
0
100
AcDbSymbolTable
 70
4
  0
STYLE
  5
B
330
A
100
AcDbSymbolTableRecord
100
AcDbTextStyleTableRecord
  2
KICAD
 70
0
 40
0
 41
1
 42
1
 50
0
 71
0
  3
isocp.shx
  0
STYLE
  5
C
330
A
100
AcDbSymbolTableRecord
100
AcDbTextStyleTableRecord
  2
KICADB
 70
0
 40
0
 41
1
 42
1
 50
0
 71
0
  3
isocp.shx
  0
STYLE
  5
D
330
A
100
AcDbSymbolTableRecord
100
AcDbTextStyleTableRecord
  2
KICADI
 70
0
 40
0
 41
1
 42
1
 50
15
 71
0
  3
isocp.shx
  0
STYLE
  5
E
330
A
100
AcDbSymbolTableRecord
100
AcDbTextStyleTableRecord
  2
KICADBI
 70
0
 40
0
 41
1
 42
1
 50
15
 71
0
  3
isocp.shx
  0
ENDTAB
  0
TABLE
  2
LAYER
  5
F
330
0
100
AcDbSymbolTable
 70
2
  0
LAYER
  5
12
330
F
100
AcDbSymbolTableRecord
100
AcDbLayerTableRecord
  2
0
 70
0
 62
7
  6
CONTINUOUS
390
10
  0
LAYER
  5
13
330
F
100
AcDbSymbolTableRecord
100
AcDbLayerTableRecord
  2
Edge.Cuts
 70
0
 62
254
420
13685453
  6
CONTINUOUS
390
10
  0
ENDTAB
  0
TABLE
  2
VPORT
  5
14
330
0
100
AcDbSymbolTable
 70
0
  0
ENDTAB
  0
TABLE
  2
VIEW
  5
15
330
0
100
AcDbSymbolTable
 70
0
  0
ENDTAB
  0
TABLE
  2
UCS
  5
16
330
0
100
AcDbSymbolTable
 70
0
  0
ENDTAB
  0
TABLE
  2
DIMSTYLE
  5
17
330
0
100
AcDbSymbolTable
 70
1
100
AcDbDimStyleTable
 71
0
  0
DIMSTYLE
105
18
330
17
100
AcDbSymbolTableRecord
100
AcDbDimStyleTableRecord
  2
Standard
 70
0
  0
ENDTAB
  0
TABLE
  2
BLOCK_RECORD
  5
19
330
0
100
AcDbSymbolTable
 70
3
  0
BLOCK_RECORD
  5
1A
330
19
100
AcDbSymbolTableRecord
100
AcDbBlockTableRecord
  2
*Model_Space
340
1D
 70
0
280
1
281
0
  0
BLOCK_RECORD
  5
1B
330
19
100
AcDbSymbolTableRecord
100
AcDbBlockTableRecord
  2
*Paper_Space
340
1E
 70
0
280
1
281
0
  0
BLOCK_RECORD
  5
1C
330
19
100
AcDbSymbolTableRecord
100
AcDbBlockTableRecord
  2
*Paper_Space0
340
1F
 70
0
280
1
281
0
  0
ENDTAB
  0
ENDSEC
  0
SECTION
  2
BLOCKS
  0
BLOCK
  5
23
330
1A
100
AcDbEntity
  8
0
100
AcDbBlockBegin
  2
*Model_Space
 70
0
 10
0.0
 20
0.0
 30
0.0
  3
*Model_Space
  1

  0
ENDBLK
  5
22
330
1A
100
AcDbEntity
  8
0
100
AcDbBlockEnd
  0
BLOCK
  5
25
330
1B
100
AcDbEntity
 67
1
  8
0
100
AcDbBlockBegin
  2
*Paper_Space
 70
0
 10
0.0
 20
0.0
 30
0.0
  3
*Paper_Space
  1

  0
ENDBLK
  5
24
330
1B
100
AcDbEntity
 67
1
  8
0
100
AcDbBlockEnd
  0
BLOCK
  5
27
330
1C
100
AcDbEntity
 67
1
  8
0
100
AcDbBlockBegin
  2
*Paper_Space0
 70
0
 10
0.0
 20
0.0
 30
0.0
  3
*Paper_Space0
  1

  0
ENDBLK
  5
26
330
1C
100
AcDbEntity
 67
1
  8
0
100
AcDbBlockEnd
  0
ENDSEC
  0
SECTION
  2
ENTITIES
  0
LINE
  5
28
330
1A
100
AcDbEntity
  8
Edge.Cuts
  6
CONTINUOUS
100
AcDbLine
 10
7.8350223228346456
 20
-2.5187757086614173
 30
0
 11
7.8355549999999994
 21
-2.5193083858267715
 31
0
  0
LINE
  5
29
330
1A
100
AcDbEntity
  8
Edge.Cuts
  6
CONTINUOUS
100
AcDbLine
 10
7.8355549999999994
 20
-2.5193083858267715
 30
0
 11
7.8356299212598426
 21
-2.5196850393700787
 31
0
  0
LINE
  5
2A
330
1A
100
AcDbEntity
  8
Edge.Cuts
  6
CONTINUOUS
100
AcDbLine
 10
7.8356299212598426
 20
-2.5196850393700787
 30
0
 11
7.8356299212598426
 21
-4.1338582677165352
 31
0
  0
LINE
  5
2B
330
1A
100
AcDbEntity
  8
Edge.Cuts
  6
CONTINUOUS
100
AcDbLine
 10
7.8356299212598426
 20
-4.1338582677165352
 30
0
 11
7.8355549999999994
 21
-4.1342349212598428
 31
0
  0
LINE
  5
2C
330
1A
100
AcDbEntity
  8
Edge.Cuts
  6
CONTINUOUS
100
AcDbLine
 10
7.8355549999999994
 20
-4.1342349212598428
 30
0
 11
7.8350223228346456
 21
-4.1347675984251966
 31
0
  0
LINE
  5
2D
330
1A
100
AcDbEntity
  8
Edge.Cuts
  6
CONTINUOUS
100
AcDbLine
 10
7.8350223228346456
 20
-4.1347675984251966
 30
0
 11
7.834645669291338
 21
-4.1348425196850389
 31
0
  0
LINE
  5
2E
330
1A
100
AcDbEntity
  8
Edge.Cuts
  6
CONTINUOUS
100
AcDbLine
 10
7.834645669291338
 20
-4.1348425196850389
 30
0
 11
4.4685039370078741
 21
-4.1348425196850389
 31
0
  0
LINE
  5
2F
330
1A
100
AcDbEntity
  8
Edge.Cuts
  6
CONTINUOUS
100
AcDbLine
 10
4.4685039370078741
 20
-4.1348425196850389
 30
0
 11
4.4681272834645664
 21
-4.1347675984251966
 31
0
  0
LINE
  5
30
330
1A
100
AcDbEntity
  8
Edge.Cuts
  6
CONTINUOUS
100
AcDbLine
 10
4.4681272834645664
 20
-4.1347675984251966
 30
0
 11
4.4675946062992127
 21
-4.1342349212598428
 31
0
  0
LINE
  5
31
330
1A
100
AcDbEntity
  8
Edge.Cuts
  6
CONTINUOUS
100
AcDbLine
 10
4.4675946062992127
 20
-4.1342349212598428
 30
0
 11
4.4675196850393704
 21
-4.1338582677165352
 31
0
  0
LINE
  5
32
330
1A
100
AcDbEntity
  8
Edge.Cuts
  6
CONTINUOUS
100
AcDbLine
 10
4.4675196850393704
 20
-4.1338582677165352
 30
0
 11
4.4675196850393704
 21
-2.5196850393700787
 31
0
  0
LINE
  5
33
330
1A
100
AcDbEntity
  8
Edge.Cuts
  6
CONTINUOUS
100
AcDbLine
 10
4.4675196850393704
 20
-2.5196850393700787
 30
0
 11
4.4675946062992127
 21
-2.5193083858267715
 31
0
  0
LINE
  5
34
330
1A
100
AcDbEntity
  8
Edge.Cuts
  6
CONTINUOUS
100
AcDbLine
 10
4.4675946062992127
 20
-2.5193083858267715
 30
0
 11
4.4681272834645664
 21
-2.5187757086614173
 31
0
  0
LINE
  5
35
330
1A
100
AcDbEntity
  8
Edge.Cuts
  6
CONTINUOUS
100
AcDbLine
 10
4.4681272834645664
 20
-2.5187757086614173
 30
0
 11
4.4685039370078741
 21
-2.5187007874015745
 31
0
  0
LINE
  5
36
330
1A
100
AcDbEntity
  8
Edge.Cuts
  6
CONTINUOUS
100
AcDbLine
 10
4.4685039370078741
 20
-2.5187007874015745
 30
0
 11
7.834645669291338
 21
-2.5187007874015745
 31
0
  0
LINE
  5
37
330
1A
100
AcDbEntity
  8
Edge.Cuts
  6
CONTINUOUS
100
AcDbLine
 10
7.834645669291338
 20
-2.5187007874015745
 30
0
 11
7.8350223228346456
 21
-2.5187757086614173
 31
0
  0
LINE
  5
38
330
1A
100
AcDbEntity
  8
Edge.Cuts
  6
CONTINUOUS
100
AcDbLine
 10
4.4694881889763778
 20
-2.5206692913385824
 30
0
 11
4.4694881889763778
 21
-4.1328740157480315
 31
0
  0
LINE
  5
39
330
1A
100
AcDbEntity
  8
Edge.Cuts
  6
CONTINUOUS
100
AcDbLine
 10
4.4694881889763778
 20
-4.1328740157480315
 30
0
 11
7.8336614173228343
 21
-4.1328740157480315
 31
0
  0
LINE
  5
3A
330
1A
100
AcDbEntity
  8
Edge.Cuts
  6
CONTINUOUS
100
AcDbLine
 10
7.8336614173228343
 20
-4.1328740157480315
 30
0
 11
7.8336614173228343
 21
-2.5206692913385824
 31
0
  0
LINE
  5
3B
330
1A
100
AcDbEntity
  8
Edge.Cuts
  6
CONTINUOUS
100
AcDbLine
 10
7.8336614173228343
 20
-2.5206692913385824
 30
0
 11
4.4694881889763778
 21
-2.5206692913385824
 31
0
  0
LINE
  5
3C
330
1A
100
AcDbEntity
  8
Edge.Cuts
  6
CONTINUOUS
100
AcDbLine
 10
6.5455429133858267
 20
-3.5996217716535432
 30
0
 11
6.5520059842519682
 21
-3.6017217716535432
 31
0
  0
LINE
  5
3D
330
1A
100
AcDbEntity
  8
Edge.Cuts
  6
CONTINUOUS
100
AcDbLine
 10
6.5520059842519682
 20
-3.6017217716535432
 30
0
 11
6.5580609448818894
 21
-3.6048069291338583
 31
0
  0
LINE
  5
3E
330
1A
100
AcDbEntity
  8
Edge.Cuts
  6
CONTINUOUS
100
AcDbLine
 10
6.5580609448818894
 20
-3.6048069291338583
 30
0
 11
6.5635587795275585
 21
-3.6088012992125984
 31
0
  0
LINE
  5
3F
330
1A
100
AcDbEntity
  8
Edge.Cuts
  6
CONTINUOUS
100
AcDbLine
 10
6.5635587795275585
 20
-3.6088012992125984
 30
0
 11
6.5683640551181099
 21
-3.6136065748031494
 31
0
  0
LINE
  5
40
330
1A
100
AcDbEntity
  8
Edge.Cuts
  6
CONTINUOUS
100
AcDbLine
 10
6.5683640551181099
 20
-3.6136065748031494
 30
0
 11
6.5723584251968505
 21
-3.6191044094488189
 31
0
  0
LINE
  5
41
330
1A
100
AcDbEntity
  8
Edge.Cuts
  6
CONTINUOUS
100
AcDbLine
 10
6.5723584251968505
 20
-3.6191044094488189
 30
0
 11
6.5754435826771651
 21
-3.6251593700787401
 31
0
  0
LINE
  5
42
330
1A
100
AcDbEntity
  8
Edge.Cuts
  6
CONTINUOUS
100
AcDbLine
 10
6.5754435826771651
 20
-3.6251593700787401
 30
0
 11
6.5775435826771655
 21
-3.6316224409448816
 31
0
  0
LINE
  5
43
330
1A
100
AcDbEntity
  8
Edge.Cuts
  6
CONTINUOUS
100
AcDbLine
 10
6.5775435826771655
 20
-3.6316224409448816
 30
0
 11
6.5786066535433072
 21
-3.6383344488188976
 31
0
  0
LINE
  5
44
330
1A
100
AcDbEntity
  8
Edge.Cuts
  6
CONTINUOUS
100
AcDbLine
 10
6.5786066535433072
 20
-3.6383344488188976
 30
0
 11
6.5786066535433072
 21
-3.6451301181102362
 31
0
  0
LINE
  5
45
330
1A
100
AcDbEntity
  8
Edge.Cuts
  6
CONTINUOUS
100
AcDbLine
 10
6.5786066535433072
 20
-3.6451301181102362
 30
0
 11
6.5775435826771655
 21
-3.6518421259842517
 31
0
  0
LINE
  5
46
330
1A
100
AcDbEntity
  8
Edge.Cuts
  6
CONTINUOUS
100
AcDbLine
 10
6.5775435826771655
 20
-3.6518421259842517
 30
0
 11
6.5754435826771651
 21
-3.6583051968503937
 31
0
  0
LINE
  5
47
330
1A
100
AcDbEntity
  8
Edge.Cuts
  6
CONTINUOUS
100
AcDbLine
 10
6.5754435826771651
 20
-3.6583051968503937
 30
0
 11
6.5723584251968505
 21
-3.6643601574803149
 31
0
  0
LINE
  5
48
330
1A
100
AcDbEntity
  8
Edge.Cuts
  6
CONTINUOUS
100
AcDbLine
 10
6.5723584251968505
 20
-3.6643601574803149
 30
0
 11
6.5683640551181099
 21
-3.669857992125984
 31
0
  0
LINE
  5
49
330
1A
100
AcDbEntity
  8
Edge.Cuts
  6
CONTINUOUS
100
AcDbLine
 10
6.5683640551181099
 20
-3.669857992125984
 30
0
 11
6.5635587795275585
 21
-3.6746632677165354
 31
0
  0
LINE
  5
4A
330
1A
100
AcDbEntity
  8
Edge.Cuts
  6
CONTINUOUS
100
AcDbLine
 10
6.5635587795275585
 20
-3.6746632677165354
 30
0
 11
6.5580609448818894
 21
-3.6786576377952755
 31
0
  0
LINE
  5
4B
330
1A
100
AcDbEntity
  8
Edge.Cuts
  6
CONTINUOUS
100
AcDbLine
 10
6.5580609448818894
 20
-3.6786576377952755
 30
0
 11
6.5520059842519682
 21
-3.6817427952755906
 31
0
  0
LINE
  5
4C
330
1A
100
AcDbEntity
  8
Edge.Cuts
  6
CONTINUOUS
100
AcDbLine
 10
6.5520059842519682
 20
-3.6817427952755906
 30
0
 11
6.5455429133858267
 21
-3.6838427952755906
 31
0
  0
LINE
  5
4D
330
1A
100
AcDbEntity
  8
Edge.Cuts
  6
CONTINUOUS
100
AcDbLine
 10
6.5455429133858267
 20
-3.6838427952755906
 30
0
 11
6.5388309055118112
 21
-3.6849058661417322
 31
0
  0
LINE
  5
4E
330
1A
100
AcDbEntity
  8
Edge.Cuts
  6
CONTINUOUS
100
AcDbLine
 10
6.5388309055118112
 20
-3.6849058661417322
 30
0
 11
6.5320352362204721
 21
-3.6849058661417322
 31
0
  0
LINE
  5
4F
330
1A
100
AcDbEntity
  8
Edge.Cuts
  6
CONTINUOUS
100
AcDbLine
 10
6.5320352362204721
 20
-3.6849058661417322
 30
0
 11
6.5253232283464566
 21
-3.6838427952755906
 31
0
  0
LINE
  5
50
330
1A
100
AcDbEntity
  8
Edge.Cuts
  6
CONTINUOUS
100
AcDbLine
 10
6.5253232283464566
 20
-3.6838427952755906
 30
0
 11
6.5188601574803151
 21
-3.6817427952755906
 31
0
  0
LINE
  5
51
330
1A
100
AcDbEntity
  8
Edge.Cuts
  6
CONTINUOUS
100
AcDbLine
 10
6.5188601574803151
 20
-3.6817427952755906
 30
0
 11
6.5128051968503939
 21
-3.6786576377952755
 31
0
  0
LINE
  5
52
330
1A
100
AcDbEntity
  8
Edge.Cuts
  6
CONTINUOUS
100
AcDbLine
 10
6.5128051968503939
 20
-3.6786576377952755
 30
0
 11
6.5073073622047239
 21
-3.6746632677165354
 31
0
  0
LINE
  5
53
330
1A
100
AcDbEntity
  8
Edge.Cuts
  6
CONTINUOUS
100
AcDbLine
 10
6.5073073622047239
 20
-3.6746632677165354
 30
0
 11
6.5025020866141734
 21
-3.669857992125984
 31
0
  0
LINE
  5
54
330
1A
100
AcDbEntity
  8
Edge.Cuts
  6
CONTINUOUS
100
AcDbLine
 10
6.5025020866141734
 20
-3.669857992125984
 30
0
 11
6.4985077165354328
 21
-3.6643601574803149
 31
0
  0
LINE
  5
55
330
1A
100
AcDbEntity
  8
Edge.Cuts
  6
CONTINUOUS
100
AcDbLine
 10
6.4985077165354328
 20
-3.6643601574803149
 30
0
 11
6.4954225590551182
 21
-3.6583051968503937
 31
0
  0
LINE
  5
56
330
1A
100
AcDbEntity
  8
Edge.Cuts
  6
CONTINUOUS
100
AcDbLine
 10
6.4954225590551182
 20
-3.6583051968503937
 30
0
 11
6.4933225590551178
 21
-3.6518421259842517
 31
0
  0
LINE
  5
57
330
1A
100
AcDbEntity
  8
Edge.Cuts
  6
CONTINUOUS
100
AcDbLine
 10
6.4933225590551178
 20
-3.6518421259842517
 30
0
 11
6.4922594881889761
 21
-3.6451301181102362
 31
0
  0
LINE
  5
58
330
1A
100
AcDbEntity
  8
Edge.Cuts
  6
CONTINUOUS
100
AcDbLine
 10
6.4922594881889761
 20
-3.6451301181102362
 30
0
 11
6.4922594881889761
 21
-3.6383344488188976
 31
0
  0
LINE
  5
59
330
1A
100
AcDbEntity
  8
Edge.Cuts
  6
CONTINUOUS
100
AcDbLine
 10
6.4922594881889761
 20
-3.6383344488188976
 30
0
 11
6.4933225590551178
 21
-3.6316224409448816
 31
0
  0
LINE
  5
5A
330
1A
100
AcDbEntity
  8
Edge.Cuts
  6
CONTINUOUS
100
AcDbLine
 10
6.4933225590551178
 20
-3.6316224409448816
 30
0
 11
6.4954225590551182
 21
-3.6251593700787401
 31
0
  0
LINE
  5
5B
330
1A
100
AcDbEntity
  8
Edge.Cuts
  6
CONTINUOUS
100
AcDbLine
 10
6.4954225590551182
 20
-3.6251593700787401
 30
0
 11
6.4985077165354328
 21
-3.6191044094488189
 31
0
  0
LINE
  5
5C
330
1A
100
AcDbEntity
  8
Edge.Cuts
  6
CONTINUOUS
100
AcDbLine
 10
6.4985077165354328
 20
-3.6191044094488189
 30
0
 11
6.5025020866141734
 21
-3.6136065748031494
 31
0
  0
LINE
  5
5D
330
1A
100
AcDbEntity
  8
Edge.Cuts
  6
CONTINUOUS
100
AcDbLine
 10
6.5025020866141734
 20
-3.6136065748031494
 30
0
 11
6.5073073622047239
 21
-3.6088012992125984
 31
0
  0
LINE
  5
5E
330
1A
100
AcDbEntity
  8
Edge.Cuts
  6
CONTINUOUS
100
AcDbLine
 10
6.5073073622047239
 20
-3.6088012992125984
 30
0
 11
6.5128051968503939
 21
-3.6048069291338583
 31
0
  0
LINE
  5
5F
330
1A
100
AcDbEntity
  8
Edge.Cuts
  6
CONTINUOUS
100
AcDbLine
 10
6.5128051968503939
 20
-3.6048069291338583
 30
0
 11
6.5188601574803151
 21
-3.6017217716535432
 31
0
  0
LINE
  5
60
330
1A
100
AcDbEntity
  8
Edge.Cuts
  6
CONTINUOUS
100
AcDbLine
 10
6.5188601574803151
 20
-3.6017217716535432
 30
0
 11
6.5253232283464566
 21
-3.5996217716535432
 31
0
  0
LINE
  5
61
330
1A
100
AcDbEntity
  8
Edge.Cuts
  6
CONTINUOUS
100
AcDbLine
 10
6.5253232283464566
 20
-3.5996217716535432
 30
0
 11
6.5320352362204721
 21
-3.5985587007874016
 31
0
  0
LINE
  5
62
330
1A
100
AcDbEntity
  8
Edge.Cuts
  6
CONTINUOUS
100
AcDbLine
 10
6.5320352362204721
 20
-3.5985587007874016
 30
0
 11
6.5388309055118112
 21
-3.5985587007874016
 31
0
  0
LINE
  5
63
330
1A
100
AcDbEntity
  8
Edge.Cuts
  6
CONTINUOUS
100
AcDbLine
 10
6.5388309055118112
 20
-3.5985587007874016
 30
0
 11
6.5455429133858267
 21
-3.5996217716535432
 31
0
  0
LINE
  5
64
330
1A
100
AcDbEntity
  8
Edge.Cuts
  6
CONTINUOUS
100
AcDbLine
 10
5.7853066929133856
 20
-3.5980469685039371
 30
0
 11
5.7917697637795271
 21
-3.6001469685039371
 31
0
  0
LINE
  5
65
330
1A
100
AcDbEntity
  8
Edge.Cuts
  6
CONTINUOUS
100
AcDbLine
 10
5.7917697637795271
 20
-3.6001469685039371
 30
0
 11
5.7978247244094483
 21
-3.6032321259842517
 31
0
  0
LINE
  5
66
330
1A
100
AcDbEntity
  8
Edge.Cuts
  6
CONTINUOUS
100
AcDbLine
 10
5.7978247244094483
 20
-3.6032321259842517
 30
0
 11
5.8033225590551183
 21
-3.6072264960629918
 31
0
  0
LINE
  5
67
330
1A
100
AcDbEntity
  8
Edge.Cuts
  6
CONTINUOUS
100
AcDbLine
 10
5.8033225590551183
 20
-3.6072264960629918
 30
0
 11
5.8081278346456688
 21
-3.6120317716535433
 31
0
  0
LINE
  5
68
330
1A
100
AcDbEntity
  8
Edge.Cuts
  6
CONTINUOUS
100
AcDbLine
 10
5.8081278346456688
 20
-3.6120317716535433
 30
0
 11
5.8121222047244094
 21
-3.6175296062992124
 31
0
  0
LINE
  5
69
330
1A
100
AcDbEntity
  8
Edge.Cuts
  6
CONTINUOUS
100
AcDbLine
 10
5.8121222047244094
 20
-3.6175296062992124
 30
0
 11
5.815207362204724
 21
-3.6235845669291336
 31
0
  0
LINE
  5
6A
330
1A
100
AcDbEntity
  8
Edge.Cuts
  6
CONTINUOUS
100
AcDbLine
 10
5.815207362204724
 20
-3.6235845669291336
 30
0
 11
5.8173073622047244
 21
-3.6300476377952755
 31
0
  0
LINE
  5
6B
330
1A
100
AcDbEntity
  8
Edge.Cuts
  6
CONTINUOUS
100
AcDbLine
 10
5.8173073622047244
 20
-3.6300476377952755
 30
0
 11
5.8183704330708661
 21
-3.6367596456692914
 31
0
  0
LINE
  5
6C
330
1A
100
AcDbEntity
  8
Edge.Cuts
  6
CONTINUOUS
100
AcDbLine
 10
5.8183704330708661
 20
-3.6367596456692914
 30
0
 11
5.8183704330708661
 21
-3.6435553149606297
 31
0
  0
LINE
  5
6D
330
1A
100
AcDbEntity
  8
Edge.Cuts
  6
CONTINUOUS
100
AcDbLine
 10
5.8183704330708661
 20
-3.6435553149606297
 30
0
 11
5.8173073622047244
 21
-3.6502673228346456
 31
0
  0
LINE
  5
6E
330
1A
100
AcDbEntity
  8
Edge.Cuts
  6
CONTINUOUS
100
AcDbLine
 10
5.8173073622047244
 20
-3.6502673228346456
 30
0
 11
5.815207362204724
 21
-3.6567303937007871
 31
0
  0
LINE
  5
6F
330
1A
100
AcDbEntity
  8
Edge.Cuts
  6
CONTINUOUS
100
AcDbLine
 10
5.815207362204724
 20
-3.6567303937007871
 30
0
 11
5.8121222047244094
 21
-3.6627853543307087
 31
0
  0
LINE
  5
70
330
1A
100
AcDbEntity
  8
Edge.Cuts
  6
CONTINUOUS
100
AcDbLine
 10
5.8121222047244094
 20
-3.6627853543307087
 30
0
 11
5.8081278346456688
 21
-3.6682831889763778
 31
0
  0
LINE
  5
71
330
1A
100
AcDbEntity
  8
Edge.Cuts
  6
CONTINUOUS
100
AcDbLine
 10
5.8081278346456688
 20
-3.6682831889763778
 30
0
 11
5.8033225590551183
 21
-3.6730884645669288
 31
0
  0
LINE
  5
72
330
1A
100
AcDbEntity
  8
Edge.Cuts
  6
CONTINUOUS
100
AcDbLine
 10
5.8033225590551183
 20
-3.6730884645669288
 30
0
 11
5.7978247244094483
 21
-3.6770828346456694
 31
0
  0
LINE
  5
73
330
1A
100
AcDbEntity
  8
Edge.Cuts
  6
CONTINUOUS
100
AcDbLine
 10
5.7978247244094483
 20
-3.6770828346456694
 30
0
 11
5.7917697637795271
 21
-3.680167992125984
 31
0
  0
LINE
  5
74
330
1A
100
AcDbEntity
  8
Edge.Cuts
  6
CONTINUOUS
100
AcDbLine
 10
5.7917697637795271
 20
-3.680167992125984
 30
0
 11
5.7853066929133856
 21
-3.682267992125984
 31
0
  0
LINE
  5
75
330
1A
100
AcDbEntity
  8
Edge.Cuts
  6
CONTINUOUS
100
AcDbLine
 10
5.7853066929133856
 20
-3.682267992125984
 30
0
 11
5.7785946850393701
 21
-3.6833310629921261
 31
0
  0
LINE
  5
76
330
1A
100
AcDbEntity
  8
Edge.Cuts
  6
CONTINUOUS
100
AcDbLine
 10
5.7785946850393701
 20
-3.6833310629921261
 30
0
 11
5.771799015748031
 21
-3.6833310629921261
 31
0
  0
LINE
  5
77
330
1A
100
AcDbEntity
  8
Edge.Cuts
  6
CONTINUOUS
100
AcDbLine
 10
5.771799015748031
 20
-3.6833310629921261
 30
0
 11
5.7650870078740155
 21
-3.682267992125984
 31
0
  0
LINE
  5
78
330
1A
100
AcDbEntity
  8
Edge.Cuts
  6
CONTINUOUS
100
AcDbLine
 10
5.7650870078740155
 20
-3.682267992125984
 30
0
 11
5.758623937007874
 21
-3.680167992125984
 31
0
  0
LINE
  5
79
330
1A
100
AcDbEntity
  8
Edge.Cuts
  6
CONTINUOUS
100
AcDbLine
 10
5.758623937007874
 20
-3.680167992125984
 30
0
 11
5.7525689763779528
 21
-3.6770828346456694
 31
0
  0
LINE
  5
7A
330
1A
100
AcDbEntity
  8
Edge.Cuts
  6
CONTINUOUS
100
AcDbLine
 10
5.7525689763779528
 20
-3.6770828346456694
 30
0
 11
5.7470711417322837
 21
-3.6730884645669288
 31
0
  0
LINE
  5
7B
330
1A
100
AcDbEntity
  8
Edge.Cuts
  6
CONTINUOUS
100
AcDbLine
 10
5.7470711417322837
 20
-3.6730884645669288
 30
0
 11
5.7422658661417323
 21
-3.6682831889763778
 31
0
  0
LINE
  5
7C
330
1A
100
AcDbEntity
  8
Edge.Cuts
  6
CONTINUOUS
100
AcDbLine
 10
5.7422658661417323
 20
-3.6682831889763778
 30
0
 11
5.7382714960629917
 21
-3.6627853543307087
 31
0
  0
LINE
  5
7D
330
1A
100
AcDbEntity
  8
Edge.Cuts
  6
CONTINUOUS
100
AcDbLine
 10
5.7382714960629917
 20
-3.6627853543307087
 30
0
 11
5.7351863385826771
 21
-3.6567303937007871
 31
0
  0
LINE
  5
7E
330
1A
100
AcDbEntity
  8
Edge.Cuts
  6
CONTINUOUS
100
AcDbLine
 10
5.7351863385826771
 20
-3.6567303937007871
 30
0
 11
5.7330863385826767
 21
-3.6502673228346456
 31
0
  0
LINE
  5
7F
330
1A
100
AcDbEntity
  8
Edge.Cuts
  6
CONTINUOUS
100
AcDbLine
 10
5.7330863385826767
 20
-3.6502673228346456
 30
0
 11
5.732023267716535
 21
-3.6435553149606297
 31
0
  0
LINE
  5
80
330
1A
100
AcDbEntity
  8
Edge.Cuts
  6
CONTINUOUS
100
AcDbLine
 10
5.732023267716535
 20
-3.6435553149606297
 30
0
 11
5.732023267716535
 21
-3.6367596456692914
 31
0
  0
LINE
  5
81
330
1A
100
AcDbEntity
  8
Edge.Cuts
  6
CONTINUOUS
100
AcDbLine
 10
5.732023267716535
 20
-3.6367596456692914
 30
0
 11
5.7330863385826767
 21
-3.6300476377952755
 31
0
  0
LINE
  5
82
330
1A
100
AcDbEntity
  8
Edge.Cuts
  6
CONTINUOUS
100
AcDbLine
 10
5.7330863385826767
 20
-3.6300476377952755
 30
0
 11
5.7351863385826771
 21
-3.6235845669291336
 31
0
  0
LINE
  5
83
330
1A
100
AcDbEntity
  8
Edge.Cuts
  6
CONTINUOUS
100
AcDbLine
 10
5.7351863385826771
 20
-3.6235845669291336
 30
0
 11
5.7382714960629917
 21
-3.6175296062992124
 31
0
  0
LINE
  5
84
330
1A
100
AcDbEntity
  8
Edge.Cuts
  6
CONTINUOUS
100
AcDbLine
 10
5.7382714960629917
 20
-3.6175296062992124
 30
0
 11
5.7422658661417323
 21
-3.6120317716535433
 31
0
  0
LINE
  5
85
330
1A
100
AcDbEntity
  8
Edge.Cuts
  6
CONTINUOUS
100
AcDbLine
 10
5.7422658661417323
 20
-3.6120317716535433
 30
0
 11
5.7470711417322837
 21
-3.6072264960629918
 31
0
  0
LINE
  5
86
330
1A
100
AcDbEntity
  8
Edge.Cuts
  6
CONTINUOUS
100
AcDbLine
 10
5.7470711417322837
 20
-3.6072264960629918
 30
0
 11
5.7525689763779528
 21
-3.6032321259842517
 31
0
  0
LINE
  5
87
330
1A
100
AcDbEntity
  8
Edge.Cuts
  6
CONTINUOUS
100
AcDbLine
 10
5.7525689763779528
 20
-3.6032321259842517
 30
0
 11
5.758623937007874
 21
-3.6001469685039371
 31
0
  0
LINE
  5
88
330
1A
100
AcDbEntity
  8
Edge.Cuts
  6
CONTINUOUS
100
AcDbLine
 10
5.758623937007874
 20
-3.6001469685039371
 30
0
 11
5.7650870078740155
 21
-3.5980469685039371
 31
0
  0
LINE
  5
89
330
1A
100
AcDbEntity
  8
Edge.Cuts
  6
CONTINUOUS
100
AcDbLine
 10
5.7650870078740155
 20
-3.5980469685039371
 30
0
 11
5.771799015748031
 21
-3.596983897637795
 31
0
  0
LINE
  5
8A
330
1A
100
AcDbEntity
  8
Edge.Cuts
  6
CONTINUOUS
100
AcDbLine
 10
5.771799015748031
 20
-3.596983897637795
 30
0
 11
5.7785946850393701
 21
-3.596983897637795
 31
0
  0
LINE
  5
8B
330
1A
100
AcDbEntity
  8
Edge.Cuts
  6
CONTINUOUS
100
AcDbLine
 10
5.7785946850393701
 20
-3.596983897637795
 30
0
 11
5.7853066929133856
 21
-3.5980469685039371
 31
0
  0
LINE
  5
8C
330
1A
100
AcDbEntity
  8
Edge.Cuts
  6
CONTINUOUS
100
AcDbLine
 10
7.3010547244094486
 20
-3.5980469685039371
 30
0
 11
7.3075177952755901
 21
-3.6001469685039371
 31
0
  0
LINE
  5
8D
330
1A
100
AcDbEntity
  8
Edge.Cuts
  6
CONTINUOUS
100
AcDbLine
 10
7.3075177952755901
 20
-3.6001469685039371
 30
0
 11
7.3135727559055113
 21
-3.6032321259842517
 31
0
  0
LINE
  5
8E
330
1A
100
AcDbEntity
  8
Edge.Cuts
  6
CONTINUOUS
100
AcDbLine
 10
7.3135727559055113
 20
-3.6032321259842517
 30
0
 11
7.3190705905511813
 21
-3.6072264960629918
 31
0
  0
LINE
  5
8F
330
1A
100
AcDbEntity
  8
Edge.Cuts
  6
CONTINUOUS
100
AcDbLine
 10
7.3190705905511813
 20
-3.6072264960629918
 30
0
 11
7.3238758661417318
 21
-3.6120317716535433
 31
0
  0
LINE
  5
90
330
1A
100
AcDbEntity
  8
Edge.Cuts
  6
CONTINUOUS
100
AcDbLine
 10
7.3238758661417318
 20
-3.6120317716535433
 30
0
 11
7.3278702362204724
 21
-3.6175296062992124
 31
0
  0
LINE
  5
91
330
1A
100
AcDbEntity
  8
Edge.Cuts
  6
CONTINUOUS
100
AcDbLine
 10
7.3278702362204724
 20
-3.6175296062992124
 30
0
 11
7.330955393700787
 21
-3.6235845669291336
 31
0
  0
LINE
  5
92
330
1A
100
AcDbEntity
  8
Edge.Cuts
  6
CONTINUOUS
100
AcDbLine
 10
7.330955393700787
 20
-3.6235845669291336
 30
0
 11
7.3330553937007874
 21
-3.6300476377952755
 31
0
  0
LINE
  5
93
330
1A
100
AcDbEntity
  8
Edge.Cuts
  6
CONTINUOUS
100
AcDbLine
 10
7.3330553937007874
 20
-3.6300476377952755
 30
0
 11
7.3341184645669291
 21
-3.6367596456692914
 31
0
  0
LINE
  5
94
330
1A
100
AcDbEntity
  8
Edge.Cuts
  6
CONTINUOUS
100
AcDbLine
 10
7.3341184645669291
 20
-3.6367596456692914
 30
0
 11
7.3341184645669291
 21
-3.6435553149606297
 31
0
  0
LINE
  5
95
330
1A
100
AcDbEntity
  8
Edge.Cuts
  6
CONTINUOUS
100
AcDbLine
 10
7.3341184645669291
 20
-3.6435553149606297
 30
0
 11
7.3330553937007874
 21
-3.6502673228346456
 31
0
  0
LINE
  5
96
330
1A
100
AcDbEntity
  8
Edge.Cuts
  6
CONTINUOUS
100
AcDbLine
 10
7.3330553937007874
 20
-3.6502673228346456
 30
0
 11
7.330955393700787
 21
-3.6567303937007871
 31
0
  0
LINE
  5
97
330
1A
100
AcDbEntity
  8
Edge.Cuts
  6
CONTINUOUS
100
AcDbLine
 10
7.330955393700787
 20
-3.6567303937007871
 30
0
 11
7.3278702362204724
 21
-3.6627853543307087
 31
0
  0
LINE
  5
98
330
1A
100
AcDbEntity
  8
Edge.Cuts
  6
CONTINUOUS
100
AcDbLine
 10
7.3278702362204724
 20
-3.6627853543307087
 30
0
 11
7.3238758661417318
 21
-3.6682831889763778
 31
0
  0
LINE
  5
99
330
1A
100
AcDbEntity
  8
Edge.Cuts
  6
CONTINUOUS
100
AcDbLine
 10
7.3238758661417318
 20
-3.6682831889763778
 30
0
 11
7.3190705905511813
 21
-3.6730884645669288
 31
0
  0
LINE
  5
9A
330
1A
100
AcDbEntity
  8
Edge.Cuts
  6
CONTINUOUS
100
AcDbLine
 10
7.3190705905511813
 20
-3.6730884645669288
 30
0
 11
7.3135727559055113
 21
-3.6770828346456694
 31
0
  0
LINE
  5
9B
330
1A
100
AcDbEntity
  8
Edge.Cuts
  6
CONTINUOUS
100
AcDbLine
 10
7.3135727559055113
 20
-3.6770828346456694
 30
0
 11
7.3075177952755901
 21
-3.680167992125984
 31
0
  0
LINE
  5
9C
330
1A
100
AcDbEntity
  8
Edge.Cuts
  6
CONTINUOUS
100
AcDbLine
 10
7.3075177952755901
 20
-3.680167992125984
 30
0
 11
7.3010547244094486
 21
-3.682267992125984
 31
0
  0
LINE
  5
9D
330
1A
100
AcDbEntity
  8
Edge.Cuts
  6
CONTINUOUS
100
AcDbLine
 10
7.3010547244094486
 20
-3.682267992125984
 30
0
 11
7.2943427165354331
 21
-3.6833310629921261
 31
0
  0
LINE
  5
9E
330
1A
100
AcDbEntity
  8
Edge.Cuts
  6
CONTINUOUS
100
AcDbLine
 10
7.2943427165354331
 20
-3.6833310629921261
 30
0
 11
7.287547047244094
 21
-3.6833310629921261
 31
0
  0
LINE
  5
9F
330
1A
100
AcDbEntity
  8
Edge.Cuts
  6
CONTINUOUS
100
AcDbLine
 10
7.287547047244094
 20
-3.6833310629921261
 30
0
 11
7.2808350393700785
 21
-3.682267992125984
 31
0
  0
LINE
  5
A0
330
1A
100
AcDbEntity
  8
Edge.Cuts
  6
CONTINUOUS
100
AcDbLine
 10
7.2808350393700785
 20
-3.682267992125984
 30
0
 11
7.274371968503937
 21
-3.680167992125984
 31
0
  0
LINE
  5
A1
330
1A
100
AcDbEntity
  8
Edge.Cuts
  6
CONTINUOUS
100
AcDbLine
 10
7.274371968503937
 20
-3.680167992125984
 30
0
 11
7.2683170078740158
 21
-3.6770828346456694
 31
0
  0
LINE
  5
A2
330
1A
100
AcDbEntity
  8
Edge.Cuts
  6
CONTINUOUS
100
AcDbLine
 10
7.2683170078740158
 20
-3.6770828346456694
 30
0
 11
7.2628191732283467
 21
-3.6730884645669288
 31
0
  0
LINE
  5
A3
330
1A
100
AcDbEntity
  8
Edge.Cuts
  6
CONTINUOUS
100
AcDbLine
 10
7.2628191732283467
 20
-3.6730884645669288
 30
0
 11
7.2580138976377953
 21
-3.6682831889763778
 31
0
  0
LINE
  5
A4
330
1A
100
AcDbEntity
  8
Edge.Cuts
  6
CONTINUOUS
100
AcDbLine
 10
7.2580138976377953
 20
-3.6682831889763778
 30
0
 11
7.2540195275590547
 21
-3.6627853543307087
 31
0
  0
LINE
  5
A5
330
1A
100
AcDbEntity
  8
Edge.Cuts
  6
CONTINUOUS
100
AcDbLine
 10
7.2540195275590547
 20
-3.6627853543307087
 30
0
 11
7.2509343700787401
 21
-3.6567303937007871
 31
0
  0
LINE
  5
A6
330
1A
100
AcDbEntity
  8
Edge.Cuts
  6
CONTINUOUS
100
AcDbLine
 10
7.2509343700787401
 20
-3.6567303937007871
 30
0
 11
7.2488343700787397
 21
-3.6502673228346456
 31
0
  0
LINE
  5
A7
330
1A
100
AcDbEntity
  8
Edge.Cuts
  6
CONTINUOUS
100
AcDbLine
 10
7.2488343700787397
 20
-3.6502673228346456
 30
0
 11
7.247771299212598
 21
-3.6435553149606297
 31
0
  0
LINE
  5
A8
330
1A
100
AcDbEntity
  8
Edge.Cuts
  6
CONTINUOUS
100
AcDbLine
 10
7.247771299212598
 20
-3.6435553149606297
 30
0
 11
7.247771299212598
 21
-3.6367596456692914
 31
0
  0
LINE
  5
A9
330
1A
100
AcDbEntity
  8
Edge.Cuts
  6
CONTINUOUS
100
AcDbLine
 10
7.247771299212598
 20
-3.6367596456692914
 30
0
 11
7.2488343700787397
 21
-3.6300476377952755
 31
0
  0
LINE
  5
AA
330
1A
100
AcDbEntity
  8
Edge.Cuts
  6
CONTINUOUS
100
AcDbLine
 10
7.2488343700787397
 20
-3.6300476377952755
 30
0
 11
7.2509343700787401
 21
-3.6235845669291336
 31
0
  0
LINE
  5
AB
330
1A
100
AcDbEntity
  8
Edge.Cuts
  6
CONTINUOUS
100
AcDbLine
 10
7.2509343700787401
 20
-3.6235845669291336
 30
0
 11
7.2540195275590547
 21
-3.6175296062992124
 31
0
  0
LINE
  5
AC
330
1A
100
AcDbEntity
  8
Edge.Cuts
  6
CONTINUOUS
100
AcDbLine
 10
7.2540195275590547
 20
-3.6175296062992124
 30
0
 11
7.2580138976377953
 21
-3.6120317716535433
 31
0
  0
LINE
  5
AD
330
1A
100
AcDbEntity
  8
Edge.Cuts
  6
CONTINUOUS
100
AcDbLine
 10
7.2580138976377953
 20
-3.6120317716535433
 30
0
 11
7.2628191732283467
 21
-3.6072264960629918
 31
0
  0
LINE
  5
AE
330
1A
100
AcDbEntity
  8
Edge.Cuts
  6
CONTINUOUS
100
AcDbLine
 10
7.2628191732283467
 20
-3.6072264960629918
 30
0
 11
7.2683170078740158
 21
-3.6032321259842517
 31
0
  0
LINE
  5
AF
330
1A
100
AcDbEntity
  8
Edge.Cuts
  6
CONTINUOUS
100
AcDbLine
 10
7.2683170078740158
 20
-3.6032321259842517
 30
0
 11
7.274371968503937
 21
-3.6001469685039371
 31
0
  0
LINE
  5
B0
330
1A
100
AcDbEntity
  8
Edge.Cuts
  6
CONTINUOUS
100
AcDbLine
 10
7.274371968503937
 20
-3.6001469685039371
 30
0
 11
7.2808350393700785
 21
-3.5980469685039371
 31
0
  0
LINE
  5
B1
330
1A
100
AcDbEntity
  8
Edge.Cuts
  6
CONTINUOUS
100
AcDbLine
 10
7.2808350393700785
 20
-3.5980469685039371
 30
0
 11
7.287547047244094
 21
-3.596983897637795
 31
0
  0
LINE
  5
B2
330
1A
100
AcDbEntity
  8
Edge.Cuts
  6
CONTINUOUS
100
AcDbLine
 10
7.287547047244094
 20
-3.596983897637795
 30
0
 11
7.2943427165354331
 21
-3.596983897637795
 31
0
  0
LINE
  5
B3
330
1A
100
AcDbEntity
  8
Edge.Cuts
  6
CONTINUOUS
100
AcDbLine
 10
7.2943427165354331
 20
-3.596983897637795
 30
0
 11
7.3010547244094486
 21
-3.5980469685039371
 31
0
  0
LINE
  5
B4
330
1A
100
AcDbEntity
  8
Edge.Cuts
  6
CONTINUOUS
100
AcDbLine
 10
5.3556423228346457
 20
-3.1044918503937007
 30
0
 11
5.3620764566929129
 21
-3.1057716929133856
 31
0
  0
LINE
  5
B5
330
1A
100
AcDbEntity
  8
Edge.Cuts
  6
CONTINUOUS
100
AcDbLine
 10
5.3620764566929129
 20
-3.1057716929133856
 30
0
 11
5.3681372834645664
 21
-3.1082821653543307
 31
0
  0
LINE
  5
B6
330
1A
100
AcDbEntity
  8
Edge.Cuts
  6
CONTINUOUS
100
AcDbLine
 10
5.3681372834645664
 20
-3.1082821653543307
 30
0
 11
5.3735918897637793
 21
-3.111926811023622
 31
0
  0
LINE
  5
B7
330
1A
100
AcDbEntity
  8
Edge.Cuts
  6
CONTINUOUS
100
AcDbLine
 10
5.3735918897637793
 20
-3.111926811023622
 30
0
 11
5.3782306692913382
 21
-3.1165655905511809
 31
0
  0
LINE
  5
B8
330
1A
100
AcDbEntity
  8
Edge.Cuts
  6
CONTINUOUS
100
AcDbLine
 10
5.3782306692913382
 20
-3.1165655905511809
 30
0
 11
5.38187531496063
 21
-3.1220201968503938
 31
0
  0
LINE
  5
B9
330
1A
100
AcDbEntity
  8
Edge.Cuts
  6
CONTINUOUS
100
AcDbLine
 10
5.38187531496063
 20
-3.1220201968503938
 30
0
 11
5.384385787401575
 21
-3.1280810236220473
 31
0
  0
LINE
  5
BA
330
1A
100
AcDbEntity
  8
Edge.Cuts
  6
CONTINUOUS
100
AcDbLine
 10
5.384385787401575
 20
-3.1280810236220473
 30
0
 11
5.3855349606299212
 21
-3.1338582677165352
 31
0
  0
LINE
  5
BB
330
1A
100
AcDbEntity
  8
Edge.Cuts
  6
CONTINUOUS
100
AcDbLine
 10
5.3855349606299212
 20
-3.1338582677165352
 30
0
 11
6.3814960629921256
 21
-3.1338582677165352
 31
0
  0
LINE
  5
BC
330
1A
100
AcDbEntity
  8
Edge.Cuts
  6
CONTINUOUS
100
AcDbLine
 10
6.3814960629921256
 20
-3.1338582677165352
 30
0
 11
6.3822641338582677
 21
-3.1339338976377951
 31
0
  0
LINE
  5
BD
330
1A
100
AcDbEntity
  8
Edge.Cuts
  6
CONTINUOUS
100
AcDbLine
 10
6.3822641338582677
 20
-3.1339338976377951
 30
0
 11
6.3836833464566931
 21
-3.1345217716535432
 31
0
  0
LINE
  5
BE
330
1A
100
AcDbEntity
  8
Edge.Cuts
  6
CONTINUOUS
100
AcDbLine
 10
6.3836833464566931
 20
-3.1345217716535432
 30
0
 11
6.3842799606299208
 21
-3.1350113779527558
 31
0
  0
LINE
  5
BF
330
1A
100
AcDbEntity
  8
Edge.Cuts
  6
CONTINUOUS
100
AcDbLine
 10
6.3842799606299208
 20
-3.1350113779527558
 30
0
 11
6.757748976377953
 21
-3.5084803937007871
 31
0
  0
LINE
  5
C0
330
1A
100
AcDbEntity
  8
Edge.Cuts
  6
CONTINUOUS
100
AcDbLine
 10
6.757748976377953
 20
-3.5084803937007871
 30
0
 11
6.7628051968503939
 21
-3.5048069291338582
 31
0
  0
LINE
  5
C1
330
1A
100
AcDbEntity
  8
Edge.Cuts
  6
CONTINUOUS
100
AcDbLine
 10
6.7628051968503939
 20
-3.5048069291338582
 30
0
 11
6.7688601574803151
 21
-3.5017217716535431
 31
0
  0
LINE
  5
C2
330
1A
100
AcDbEntity
  8
Edge.Cuts
  6
CONTINUOUS
100
AcDbLine
 10
6.7688601574803151
 20
-3.5017217716535431
 30
0
 11
6.7753232283464566
 21
-3.4996217716535432
 31
0
  0
LINE
  5
C3
330
1A
100
AcDbEntity
  8
Edge.Cuts
  6
CONTINUOUS
100
AcDbLine
 10
6.7753232283464566
 20
-3.4996217716535432
 30
0
 11
6.7820352362204721
 21
-3.4985587007874015
 31
0
  0
LINE
  5
C4
330
1A
100
AcDbEntity
  8
Edge.Cuts
  6
CONTINUOUS
100
AcDbLine
 10
6.7820352362204721
 20
-3.4985587007874015
 30
0
 11
6.7888309055118112
 21
-3.4985587007874015
 31
0
  0
LINE
  5
C5
330
1A
100
AcDbEntity
  8
Edge.Cuts
  6
CONTINUOUS
100
AcDbLine
 10
6.7888309055118112
 20
-3.4985587007874015
 30
0
 11
6.7955429133858267
 21
-3.4996217716535432
 31
0
  0
LINE
  5
C6
330
1A
100
AcDbEntity
  8
Edge.Cuts
  6
CONTINUOUS
100
AcDbLine
 10
6.7955429133858267
 20
-3.4996217716535432
 30
0
 11
6.8020059842519682
 21
-3.5017217716535431
 31
0
  0
LINE
  5
C7
330
1A
100
AcDbEntity
  8
Edge.Cuts
  6
CONTINUOUS
100
AcDbLine
 10
6.8020059842519682
 20
-3.5017217716535431
 30
0
 11
6.8080609448818894
 21
-3.5048069291338582
 31
0
  0
LINE
  5
C8
330
1A
100
AcDbEntity
  8
Edge.Cuts
  6
CONTINUOUS
100
AcDbLine
 10
6.8080609448818894
 20
-3.5048069291338582
 30
0
 11
6.8135587795275585
 21
-3.5088012992125983
 31
0
  0
LINE
  5
C9
330
1A
100
AcDbEntity
  8
Edge.Cuts
  6
CONTINUOUS
100
AcDbLine
 10
6.8135587795275585
 20
-3.5088012992125983
 30
0
 11
6.8183640551181099
 21
-3.5136065748031493
 31
0
  0
LINE
  5
CA
330
1A
100
AcDbEntity
  8
Edge.Cuts
  6
CONTINUOUS
100
AcDbLine
 10
6.8183640551181099
 20
-3.5136065748031493
 30
0
 11
6.8223584251968505
 21
-3.5191044094488189
 31
0
  0
LINE
  5
CB
330
1A
100
AcDbEntity
  8
Edge.Cuts
  6
CONTINUOUS
100
AcDbLine
 10
6.8223584251968505
 20
-3.5191044094488189
 30
0
 11
6.8254435826771651
 21
-3.52515937007874
 31
0
  0
LINE
  5
CC
330
1A
100
AcDbEntity
  8
Edge.Cuts
  6
CONTINUOUS
100
AcDbLine
 10
6.8254435826771651
 20
-3.52515937007874
 30
0
 11
6.8275435826771655
 21
-3.531622440944882
 31
0
  0
LINE
  5
CD
330
1A
100
AcDbEntity
  8
Edge.Cuts
  6
CONTINUOUS
100
AcDbLine
 10
6.8275435826771655
 20
-3.531622440944882
 30
0
 11
6.8286066535433072
 21
-3.5383344488188975
 31
0
  0
LINE
  5
CE
330
1A
100
AcDbEntity
  8
Edge.Cuts
  6
CONTINUOUS
100
AcDbLine
 10
6.8286066535433072
 20
-3.5383344488188975
 30
0
 11
6.8286066535433072
 21
-3.5451301181102362
 31
0
  0
LINE
  5
CF
330
1A
100
AcDbEntity
  8
Edge.Cuts
  6
CONTINUOUS
100
AcDbLine
 10
6.8286066535433072
 20
-3.5451301181102362
 30
0
 11
6.8275435826771655
 21
-3.5518421259842521
 31
0
  0
LINE
  5
D0
330
1A
100
AcDbEntity
  8
Edge.Cuts
  6
CONTINUOUS
100
AcDbLine
 10
6.8275435826771655
 20
-3.5518421259842521
 30
0
 11
6.8254435826771651
 21
-3.5583051968503936
 31
0
  0
LINE
  5
D1
330
1A
100
AcDbEntity
  8
Edge.Cuts
  6
CONTINUOUS
100
AcDbLine
 10
6.8254435826771651
 20
-3.5583051968503936
 30
0
 11
6.8223584251968505
 21
-3.5643601574803148
 31
0
  0
LINE
  5
D2
330
1A
100
AcDbEntity
  8
Edge.Cuts
  6
CONTINUOUS
100
AcDbLine
 10
6.8223584251968505
 20
-3.5643601574803148
 30
0
 11
6.8183640551181099
 21
-3.5698579921259843
 31
0
  0
LINE
  5
D3
330
1A
100
AcDbEntity
  8
Edge.Cuts
  6
CONTINUOUS
100
AcDbLine
 10
6.8183640551181099
 20
-3.5698579921259843
 30
0
 11
6.8135587795275585
 21
-3.5746632677165353
 31
0
  0
LINE
  5
D4
330
1A
100
AcDbEntity
  8
Edge.Cuts
  6
CONTINUOUS
100
AcDbLine
 10
6.8135587795275585
 20
-3.5746632677165353
 30
0
 11
6.8080609448818894
 21
-3.5786576377952755
 31
0
  0
LINE
  5
D5
330
1A
100
AcDbEntity
  8
Edge.Cuts
  6
CONTINUOUS
100
AcDbLine
 10
6.8080609448818894
 20
-3.5786576377952755
 30
0
 11
6.8020059842519682
 21
-3.5817427952755905
 31
0
  0
LINE
  5
D6
330
1A
100
AcDbEntity
  8
Edge.Cuts
  6
CONTINUOUS
100
AcDbLine
 10
6.8020059842519682
 20
-3.5817427952755905
 30
0
 11
6.7955429133858267
 21
-3.5838427952755905
 31
0
  0
LINE
  5
D7
330
1A
100
AcDbEntity
  8
Edge.Cuts
  6
CONTINUOUS
100
AcDbLine
 10
6.7955429133858267
 20
-3.5838427952755905
 30
0
 11
6.7888309055118112
 21
-3.5849058661417321
 31
0
  0
LINE
  5
D8
330
1A
100
AcDbEntity
  8
Edge.Cuts
  6
CONTINUOUS
100
AcDbLine
 10
6.7888309055118112
 20
-3.5849058661417321
 30
0
 11
6.7820352362204721
 21
-3.5849058661417321
 31
0
  0
LINE
  5
D9
330
1A
100
AcDbEntity
  8
Edge.Cuts
  6
CONTINUOUS
100
AcDbLine
 10
6.7820352362204721
 20
-3.5849058661417321
 30
0
 11
6.7753232283464566
 21
-3.5838427952755905
 31
0
  0
LINE
  5
DA
330
1A
100
AcDbEntity
  8
Edge.Cuts
  6
CONTINUOUS
100
AcDbLine
 10
6.7753232283464566
 20
-3.5838427952755905
 30
0
 11
6.7688601574803151
 21
-3.5817427952755905
 31
0
  0
LINE
  5
DB
330
1A
100
AcDbEntity
  8
Edge.Cuts
  6
CONTINUOUS
100
AcDbLine
 10
6.7688601574803151
 20
-3.5817427952755905
 30
0
 11
6.7628051968503939
 21
-3.5786576377952755
 31
0
  0
LINE
  5
DC
330
1A
100
AcDbEntity
  8
Edge.Cuts
  6
CONTINUOUS
100
AcDbLine
 10
6.7628051968503939
 20
-3.5786576377952755
 30
0
 11
6.7573073622047239
 21
-3.5746632677165353
 31
0
  0
LINE
  5
DD
330
1A
100
AcDbEntity
  8
Edge.Cuts
  6
CONTINUOUS
100
AcDbLine
 10
6.7573073622047239
 20
-3.5746632677165353
 30
0
 11
6.7525020866141734
 21
-3.5698579921259843
 31
0
  0
LINE
  5
DE
330
1A
100
AcDbEntity
  8
Edge.Cuts
  6
CONTINUOUS
100
AcDbLine
 10
6.7525020866141734
 20
-3.5698579921259843
 30
0
 11
6.7485077165354328
 21
-3.5643601574803148
 31
0
  0
LINE
  5
DF
330
1A
100
AcDbEntity
  8
Edge.Cuts
  6
CONTINUOUS
100
AcDbLine
 10
6.7485077165354328
 20
-3.5643601574803148
 30
0
 11
6.7454225590551182
 21
-3.5583051968503936
 31
0
  0
LINE
  5
E0
330
1A
100
AcDbEntity
  8
Edge.Cuts
  6
CONTINUOUS
100
AcDbLine
 10
6.7454225590551182
 20
-3.5583051968503936
 30
0
 11
6.7433225590551178
 21
-3.5518421259842521
 31
0
  0
LINE
  5
E1
330
1A
100
AcDbEntity
  8
Edge.Cuts
  6
CONTINUOUS
100
AcDbLine
 10
6.7433225590551178
 20
-3.5518421259842521
 30
0
 11
6.7422594881889761
 21
-3.5451301181102362
 31
0
  0
LINE
  5
E2
330
1A
100
AcDbEntity
  8
Edge.Cuts
  6
CONTINUOUS
100
AcDbLine
 10
6.7422594881889761
 20
-3.5451301181102362
 30
0
 11
6.7422594881889761
 21
-3.5383344488188975
 31
0
  0
LINE
  5
E3
330
1A
100
AcDbEntity
  8
Edge.Cuts
  6
CONTINUOUS
100
AcDbLine
 10
6.7422594881889761
 20
-3.5383344488188975
 30
0
 11
6.7433225590551178
 21
-3.531622440944882
 31
0
  0
LINE
  5
E4
330
1A
100
AcDbEntity
  8
Edge.Cuts
  6
CONTINUOUS
100
AcDbLine
 10
6.7433225590551178
 20
-3.531622440944882
 30
0
 11
6.7454225590551182
 21
-3.52515937007874
 31
0
  0
LINE
  5
E5
330
1A
100
AcDbEntity
  8
Edge.Cuts
  6
CONTINUOUS
100
AcDbLine
 10
6.7454225590551182
 20
-3.52515937007874
 30
0
 11
6.7485077165354328
 21
-3.5191044094488189
 31
0
  0
LINE
  5
E6
330
1A
100
AcDbEntity
  8
Edge.Cuts
  6
CONTINUOUS
100
AcDbLine
 10
6.7485077165354328
 20
-3.5191044094488189
 30
0
 11
6.7521811811023618
 21
-3.5140481889763779
 31
0
  0
LINE
  5
E7
330
1A
100
AcDbEntity
  8
Edge.Cuts
  6
CONTINUOUS
100
AcDbLine
 10
6.7521811811023618
 20
-3.5140481889763779
 30
0
 11
6.3798652755905509
 21
-3.1417322834645667
 31
0
  0
LINE
  5
E8
330
1A
100
AcDbEntity
  8
Edge.Cuts
  6
CONTINUOUS
100
AcDbLine
 10
6.3798652755905509
 20
-3.1417322834645667
 30
0
 11
5.3855349606299212
 21
-3.1417322834645667
 31
0
  0
LINE
  5
E9
330
1A
100
AcDbEntity
  8
Edge.Cuts
  6
CONTINUOUS
100
AcDbLine
 10
5.3855349606299212
 20
-3.1417322834645667
 30
0
 11
5.384385787401575
 21
-3.147509527559055
 31
0
  0
LINE
  5
EA
330
1A
100
AcDbEntity
  8
Edge.Cuts
  6
CONTINUOUS
100
AcDbLine
 10
5.384385787401575
 20
-3.147509527559055
 30
0
 11
5.38187531496063
 21
-3.1535703543307085
 31
0
  0
LINE
  5
EB
330
1A
100
AcDbEntity
  8
Edge.Cuts
  6
CONTINUOUS
100
AcDbLine
 10
5.38187531496063
 20
-3.1535703543307085
 30
0
 11
5.3782306692913382
 21
-3.159024960629921
 31
0
  0
LINE
  5
EC
330
1A
100
AcDbEntity
  8
Edge.Cuts
  6
CONTINUOUS
100
AcDbLine
 10
5.3782306692913382
 20
-3.159024960629921
 30
0
 11
5.3735918897637793
 21
-3.1636637401574803
 31
0
  0
LINE
  5
ED
330
1A
100
AcDbEntity
  8
Edge.Cuts
  6
CONTINUOUS
100
AcDbLine
 10
5.3735918897637793
 20
-3.1636637401574803
 30
0
 11
5.3681372834645664
 21
-3.1673083858267717
 31
0
  0
LINE
  5
EE
330
1A
100
AcDbEntity
  8
Edge.Cuts
  6
CONTINUOUS
100
AcDbLine
 10
5.3681372834645664
 20
-3.1673083858267717
 30
0
 11
5.3620764566929129
 21
-3.1698188582677163
 31
0
  0
LINE
  5
EF
330
1A
100
AcDbEntity
  8
Edge.Cuts
  6
CONTINUOUS
100
AcDbLine
 10
5.3620764566929129
 20
-3.1698188582677163
 30
0
 11
5.3556423228346457
 21
-3.1710987007874016
 31
0
  0
LINE
  5
F0
330
1A
100
AcDbEntity
  8
Edge.Cuts
  6
CONTINUOUS
100
AcDbLine
 10
5.3556423228346457
 20
-3.1710987007874016
 30
0
 11
5.3523622047244093
 21
-3.1712598425196852
 31
0
  0
LINE
  5
F1
330
1A
100
AcDbEntity
  8
Edge.Cuts
  6
CONTINUOUS
100
AcDbLine
 10
5.3523622047244093
 20
-3.1712598425196852
 30
0
 11
5.2775590551181102
 21
-3.1712598425196852
 31
0
  0
LINE
  5
F2
330
1A
100
AcDbEntity
  8
Edge.Cuts
  6
CONTINUOUS
100
AcDbLine
 10
5.2775590551181102
 20
-3.1712598425196852
 30
0
 11
5.2742789370078738
 21
-3.1710987007874016
 31
0
  0
LINE
  5
F3
330
1A
100
AcDbEntity
  8
Edge.Cuts
  6
CONTINUOUS
100
AcDbLine
 10
5.2742789370078738
 20
-3.1710987007874016
 30
0
 11
5.2678448031496066
 21
-3.1698188582677163
 31
0
  0
LINE
  5
F4
330
1A
100
AcDbEntity
  8
Edge.Cuts
  6
CONTINUOUS
100
AcDbLine
 10
5.2678448031496066
 20
-3.1698188582677163
 30
0
 11
5.261783976377953
 21
-3.1673083858267717
 31
0
  0
LINE
  5
F5
330
1A
100
AcDbEntity
  8
Edge.Cuts
  6
CONTINUOUS
100
AcDbLine
 10
5.261783976377953
 20
-3.1673083858267717
 30
0
 11
5.2563293700787401
 21
-3.1636637401574803
 31
0
  0
LINE
  5
F6
330
1A
100
AcDbEntity
  8
Edge.Cuts
  6
CONTINUOUS
100
AcDbLine
 10
5.2563293700787401
 20
-3.1636637401574803
 30
0
 11
5.2516905905511813
 21
-3.159024960629921
 31
0
  0
LINE
  5
F7
330
1A
100
AcDbEntity
  8
Edge.Cuts
  6
CONTINUOUS
100
AcDbLine
 10
5.2516905905511813
 20
-3.159024960629921
 30
0
 11
5.2480459448818895
 21
-3.1535703543307085
 31
0
  0
LINE
  5
F8
330
1A
100
AcDbEntity
  8
Edge.Cuts
  6
CONTINUOUS
100
AcDbLine
 10
5.2480459448818895
 20
-3.1535703543307085
 30
0
 11
5.2455354724409444
 21
-3.147509527559055
 31
0
  0
LINE
  5
F9
330
1A
100
AcDbEntity
  8
Edge.Cuts
  6
CONTINUOUS
100
AcDbLine
 10
5.2455354724409444
 20
-3.147509527559055
 30
0
 11
5.2442556299212599
 21
-3.1410753937007874
 31
0
  0
LINE
  5
FA
330
1A
100
AcDbEntity
  8
Edge.Cuts
  6
CONTINUOUS
100
AcDbLine
 10
5.2442556299212599
 20
-3.1410753937007874
 30
0
 11
5.2442556299212599
 21
-3.134515157480315
 31
0
  0
LINE
  5
FB
330
1A
100
AcDbEntity
  8
Edge.Cuts
  6
CONTINUOUS
100
AcDbLine
 10
5.2442556299212599
 20
-3.134515157480315
 30
0
 11
5.2455354724409444
 21
-3.1280810236220473
 31
0
  0
LINE
  5
FC
330
1A
100
AcDbEntity
  8
Edge.Cuts
  6
CONTINUOUS
100
AcDbLine
 10
5.2455354724409444
 20
-3.1280810236220473
 30
0
 11
5.2480459448818895
 21
-3.1220201968503938
 31
0
  0
LINE
  5
FD
330
1A
100
AcDbEntity
  8
Edge.Cuts
  6
CONTINUOUS
100
AcDbLine
 10
5.2480459448818895
 20
-3.1220201968503938
 30
0
 11
5.2516905905511813
 21
-3.1165655905511809
 31
0
  0
LINE
  5
FE
330
1A
100
AcDbEntity
  8
Edge.Cuts
  6
CONTINUOUS
100
AcDbLine
 10
5.2516905905511813
 20
-3.1165655905511809
 30
0
 11
5.2563293700787401
 21
-3.111926811023622
 31
0
  0
LINE
  5
FF
330
1A
100
AcDbEntity
  8
Edge.Cuts
  6
CONTINUOUS
100
AcDbLine
 10
5.2563293700787401
 20
-3.111926811023622
 30
0
 11
5.261783976377953
 21
-3.1082821653543307
 31
0
  0
LINE
  5
100
330
1A
100
AcDbEntity
  8
Edge.Cuts
  6
CONTINUOUS
100
AcDbLine
 10
5.261783976377953
 20
-3.1082821653543307
 30
0
 11
5.2678448031496066
 21
-3.1057716929133856
 31
0
  0
LINE
  5
101
330
1A
100
AcDbEntity
  8
Edge.Cuts
  6
CONTINUOUS
100
AcDbLine
 10
5.2678448031496066
 20
-3.1057716929133856
 30
0
 11
5.2742789370078738
 21
-3.1044918503937007
 31
0
  0
LINE
  5
102
330
1A
100
AcDbEntity
  8
Edge.Cuts
  6
CONTINUOUS
100
AcDbLine
 10
5.2742789370078738
 20
-3.1044918503937007
 30
0
 11
5.2775590551181102
 21
-3.1043307086614171
 31
0
  0
LINE
  5
103
330
1A
100
AcDbEntity
  8
Edge.Cuts
  6
CONTINUOUS
100
AcDbLine
 10
5.2775590551181102
 20
-3.1043307086614171
 30
0
 11
5.3523622047244093
 21
-3.1043307086614171
 31
0
  0
LINE
  5
104
330
1A
100
AcDbEntity
  8
Edge.Cuts
  6
CONTINUOUS
100
AcDbLine
 10
5.3523622047244093
 20
-3.1043307086614171
 30
0
 11
5.3556423228346457
 21
-3.1044918503937007
 31
0
  0
LINE
  5
105
330
1A
100
AcDbEntity
  8
Edge.Cuts
  6
CONTINUOUS
100
AcDbLine
 10
5.3556423228346457
 20
-3.0044918503937006
 30
0
 11
5.3620764566929129
 21
-3.005771692913386
 31
0
  0
LINE
  5
106
330
1A
100
AcDbEntity
  8
Edge.Cuts
  6
CONTINUOUS
100
AcDbLine
 10
5.3620764566929129
 20
-3.005771692913386
 30
0
 11
5.3681372834645664
 21
-3.0082821653543306
 31
0
  0
LINE
  5
107
330
1A
100
AcDbEntity
  8
Edge.Cuts
  6
CONTINUOUS
100
AcDbLine
 10
5.3681372834645664
 20
-3.0082821653543306
 30
0
 11
5.3735918897637793
 21
-3.0119268110236219
 31
0
  0
LINE
  5
108
330
1A
100
AcDbEntity
  8
Edge.Cuts
  6
CONTINUOUS
100
AcDbLine
 10
5.3735918897637793
 20
-3.0119268110236219
 30
0
 11
5.3782306692913382
 21
-3.0165655905511812
 31
0
  0
LINE
  5
109
330
1A
100
AcDbEntity
  8
Edge.Cuts
  6
CONTINUOUS
100
AcDbLine
 10
5.3782306692913382
 20
-3.0165655905511812
 30
0
 11
5.38187531496063
 21
-3.0220201968503937
 31
0
  0
LINE
  5
10A
330
1A
100
AcDbEntity
  8
Edge.Cuts
  6
CONTINUOUS
100
AcDbLine
 10
5.38187531496063
 20
-3.0220201968503937
 30
0
 11
5.384385787401575
 21
-3.0280810236220472
 31
0
  0
LINE
  5
10B
330
1A
100
AcDbEntity
  8
Edge.Cuts
  6
CONTINUOUS
100
AcDbLine
 10
5.384385787401575
 20
-3.0280810236220472
 30
0
 11
5.3856656299212595
 21
-3.0345151574803149
 31
0
  0
LINE
  5
10C
330
1A
100
AcDbEntity
  8
Edge.Cuts
  6
CONTINUOUS
100
AcDbLine
 10
5.3856656299212595
 20
-3.0345151574803149
 30
0
 11
5.3856656299212595
 21
-3.0410753937007873
 31
0
  0
LINE
  5
10D
330
1A
100
AcDbEntity
  8
Edge.Cuts
  6
CONTINUOUS
100
AcDbLine
 10
5.3856656299212595
 20
-3.0410753937007873
 30
0
 11
5.384385787401575
 21
-3.0475095275590549
 31
0
  0
LINE
  5
10E
330
1A
100
AcDbEntity
  8
Edge.Cuts
  6
CONTINUOUS
100
AcDbLine
 10
5.384385787401575
 20
-3.0475095275590549
 30
0
 11
5.38187531496063
 21
-3.0535703543307084
 31
0
  0
LINE
  5
10F
330
1A
100
AcDbEntity
  8
Edge.Cuts
  6
CONTINUOUS
100
AcDbLine
 10
5.38187531496063
 20
-3.0535703543307084
 30
0
 11
5.3782306692913382
 21
-3.0590249606299214
 31
0
  0
LINE
  5
110
330
1A
100
AcDbEntity
  8
Edge.Cuts
  6
CONTINUOUS
100
AcDbLine
 10
5.3782306692913382
 20
-3.0590249606299214
 30
0
 11
5.3735918897637793
 21
-3.0636637401574802
 31
0
  0
LINE
  5
111
330
1A
100
AcDbEntity
  8
Edge.Cuts
  6
CONTINUOUS
100
AcDbLine
 10
5.3735918897637793
 20
-3.0636637401574802
 30
0
 11
5.3681372834645664
 21
-3.0673083858267716
 31
0
  0
LINE
  5
112
330
1A
100
AcDbEntity
  8
Edge.Cuts
  6
CONTINUOUS
100
AcDbLine
 10
5.3681372834645664
 20
-3.0673083858267716
 30
0
 11
5.3620764566929129
 21
-3.0698188582677166
 31
0
  0
LINE
  5
113
330
1A
100
AcDbEntity
  8
Edge.Cuts
  6
CONTINUOUS
100
AcDbLine
 10
5.3620764566929129
 20
-3.0698188582677166
 30
0
 11
5.3556423228346457
 21
-3.0710987007874015
 31
0
  0
LINE
  5
114
330
1A
100
AcDbEntity
  8
Edge.Cuts
  6
CONTINUOUS
100
AcDbLine
 10
5.3556423228346457
 20
-3.0710987007874015
 30
0
 11
5.3523622047244093
 21
-3.0712598425196851
 31
0
  0
LINE
  5
115
330
1A
100
AcDbEntity
  8
Edge.Cuts
  6
CONTINUOUS
100
AcDbLine
 10
5.3523622047244093
 20
-3.0712598425196851
 30
0
 11
5.2775590551181102
 21
-3.0712598425196851
 31
0
  0
LINE
  5
116
330
1A
100
AcDbEntity
  8
Edge.Cuts
  6
CONTINUOUS
100
AcDbLine
 10
5.2775590551181102
 20
-3.0712598425196851
 30
0
 11
5.2742789370078738
 21
-3.0710987007874015
 31
0
  0
LINE
  5
117
330
1A
100
AcDbEntity
  8
Edge.Cuts
  6
CONTINUOUS
100
AcDbLine
 10
5.2742789370078738
 20
-3.0710987007874015
 30
0
 11
5.2678448031496066
 21
-3.0698188582677166
 31
0
  0
LINE
  5
118
330
1A
100
AcDbEntity
  8
Edge.Cuts
  6
CONTINUOUS
100
AcDbLine
 10
5.2678448031496066
 20
-3.0698188582677166
 30
0
 11
5.261783976377953
 21
-3.0673083858267716
 31
0
  0
LINE
  5
119
330
1A
100
AcDbEntity
  8
Edge.Cuts
  6
CONTINUOUS
100
AcDbLine
 10
5.261783976377953
 20
-3.0673083858267716
 30
0
 11
5.2563293700787401
 21
-3.0636637401574802
 31
0
  0
LINE
  5
11A
330
1A
100
AcDbEntity
  8
Edge.Cuts
  6
CONTINUOUS
100
AcDbLine
 10
5.2563293700787401
 20
-3.0636637401574802
 30
0
 11
5.2558096062992128
 21
-3.0631439763779529
 31
0
  0
LINE
  5
11B
330
1A
100
AcDbEntity
  8
Edge.Cuts
  6
CONTINUOUS
100
AcDbLine
 10
5.2558096062992128
 20
-3.0631439763779529
 30
0
 11
5.2362204724409445
 21
-3.0827331496062991
 31
0
  0
LINE
  5
11C
330
1A
100
AcDbEntity
  8
Edge.Cuts
  6
CONTINUOUS
100
AcDbLine
 10
5.2362204724409445
 20
-3.0827331496062991
 30
0
 11
5.2362204724409445
 21
-3.1549182677165355
 31
0
  0
LINE
  5
11D
330
1A
100
AcDbEntity
  8
Edge.Cuts
  6
CONTINUOUS
100
AcDbLine
 10
5.2362204724409445
 20
-3.1549182677165355
 30
0
 11
5.2604360236220469
 21
-3.1791338582677167
 31
0
  0
LINE
  5
11E
330
1A
100
AcDbEntity
  8
Edge.Cuts
  6
CONTINUOUS
100
AcDbLine
 10
5.2604360236220469
 20
-3.1791338582677167
 30
0
 11
5.6681102362204721
 21
-3.1791338582677167
 31
0
  0
LINE
  5
11F
330
1A
100
AcDbEntity
  8
Edge.Cuts
  6
CONTINUOUS
100
AcDbLine
 10
5.6681102362204721
 20
-3.1791338582677167
 30
0
 11
5.6688783070866142
 21
-3.1792094881889761
 31
0
  0
LINE
  5
120
330
1A
100
AcDbEntity
  8
Edge.Cuts
  6
CONTINUOUS
100
AcDbLine
 10
5.6688783070866142
 20
-3.1792094881889761
 30
0
 11
5.6702975196850396
 21
-3.1797973622047242
 31
0
  0
LINE
  5
121
330
1A
100
AcDbEntity
  8
Edge.Cuts
  6
CONTINUOUS
100
AcDbLine
 10
5.6702975196850396
 20
-3.1797973622047242
 30
0
 11
5.6708941338582672
 21
-3.1802869685039368
 31
0
  0
LINE
  5
122
330
1A
100
AcDbEntity
  8
Edge.Cuts
  6
CONTINUOUS
100
AcDbLine
 10
5.6708941338582672
 20
-3.1802869685039368
 30
0
 11
5.9975127559055119
 21
-3.506905590551181
 31
0
  0
LINE
  5
123
330
1A
100
AcDbEntity
  8
Edge.Cuts
  6
CONTINUOUS
100
AcDbLine
 10
5.9975127559055119
 20
-3.506905590551181
 30
0
 11
6.0025689763779528
 21
-3.503232125984252
 31
0
  0
LINE
  5
124
330
1A
100
AcDbEntity
  8
Edge.Cuts
  6
CONTINUOUS
100
AcDbLine
 10
6.0025689763779528
 20
-3.503232125984252
 30
0
 11
6.008623937007874
 21
-3.500146968503937
 31
0
  0
LINE
  5
125
330
1A
100
AcDbEntity
  8
Edge.Cuts
  6
CONTINUOUS
100
AcDbLine
 10
6.008623937007874
 20
-3.500146968503937
 30
0
 11
6.0150870078740155
 21
-3.498046968503937
 31
0
  0
LINE
  5
126
330
1A
100
AcDbEntity
  8
Edge.Cuts
  6
CONTINUOUS
100
AcDbLine
 10
6.0150870078740155
 20
-3.498046968503937
 30
0
 11
6.021799015748031
 21
-3.4969838976377954
 31
0
  0
LINE
  5
127
330
1A
100
AcDbEntity
  8
Edge.Cuts
  6
CONTINUOUS
100
AcDbLine
 10
6.021799015748031
 20
-3.4969838976377954
 30
0
 11
6.0285946850393701
 21
-3.4969838976377954
 31
0
  0
LINE
  5
128
330
1A
100
AcDbEntity
  8
Edge.Cuts
  6
CONTINUOUS
100
AcDbLine
 10
6.0285946850393701
 20
-3.4969838976377954
 30
0
 11
6.0353066929133856
 21
-3.498046968503937
 31
0
  0
LINE
  5
129
330
1A
100
AcDbEntity
  8
Edge.Cuts
  6
CONTINUOUS
100
AcDbLine
 10
6.0353066929133856
 20
-3.498046968503937
 30
0
 11
6.0417697637795271
 21
-3.500146968503937
 31
0
  0
LINE
  5
12A
330
1A
100
AcDbEntity
  8
Edge.Cuts
  6
CONTINUOUS
100
AcDbLine
 10
6.0417697637795271
 20
-3.500146968503937
 30
0
 11
6.0478247244094483
 21
-3.503232125984252
 31
0
  0
LINE
  5
12B
330
1A
100
AcDbEntity
  8
Edge.Cuts
  6
CONTINUOUS
100
AcDbLine
 10
6.0478247244094483
 20
-3.503232125984252
 30
0
 11
6.0533225590551183
 21
-3.5072264960629922
 31
0
  0
LINE
  5
12C
330
1A
100
AcDbEntity
  8
Edge.Cuts
  6
CONTINUOUS
100
AcDbLine
 10
6.0533225590551183
 20
-3.5072264960629922
 30
0
 11
6.0581278346456688
 21
-3.5120317716535432
 31
0
  0
LINE
  5
12D
330
1A
100
AcDbEntity
  8
Edge.Cuts
  6
CONTINUOUS
100
AcDbLine
 10
6.0581278346456688
 20
-3.5120317716535432
 30
0
 11
6.0621222047244094
 21
-3.5175296062992123
 31
0
  0
LINE
  5
12E
330
1A
100
AcDbEntity
  8
Edge.Cuts
  6
CONTINUOUS
100
AcDbLine
 10
6.0621222047244094
 20
-3.5175296062992123
 30
0
 11
6.065207362204724
 21
-3.5235845669291339
 31
0
  0
LINE
  5
12F
330
1A
100
AcDbEntity
  8
Edge.Cuts
  6
CONTINUOUS
100
AcDbLine
 10
6.065207362204724
 20
-3.5235845669291339
 30
0
 11
6.0673073622047244
 21
-3.5300476377952754
 31
0
  0
LINE
  5
130
330
1A
100
AcDbEntity
  8
Edge.Cuts
  6
CONTINUOUS
100
AcDbLine
 10
6.0673073622047244
 20
-3.5300476377952754
 30
0
 11
6.0683704330708661
 21
-3.5367596456692914
 31
0
  0
LINE
  5
131
330
1A
100
AcDbEntity
  8
Edge.Cuts
  6
CONTINUOUS
100
AcDbLine
 10
6.0683704330708661
 20
-3.5367596456692914
 30
0
 11
6.0683704330708661
 21
-3.54355531496063
 31
0
  0
LINE
  5
132
330
1A
100
AcDbEntity
  8
Edge.Cuts
  6
CONTINUOUS
100
AcDbLine
 10
6.0683704330708661
 20
-3.54355531496063
 30
0
 11
6.0673073622047244
 21
-3.5502673228346455
 31
0
  0
LINE
  5
133
330
1A
100
AcDbEntity
  8
Edge.Cuts
  6
CONTINUOUS
100
AcDbLine
 10
6.0673073622047244
 20
-3.5502673228346455
 30
0
 11
6.065207362204724
 21
-3.5567303937007875
 31
0
  0
LINE
  5
134
330
1A
100
AcDbEntity
  8
Edge.Cuts
  6
CONTINUOUS
100
AcDbLine
 10
6.065207362204724
 20
-3.5567303937007875
 30
0
 11
6.0621222047244094
 21
-3.5627853543307086
 31
0
  0
LINE
  5
135
330
1A
100
AcDbEntity
  8
Edge.Cuts
  6
CONTINUOUS
100
AcDbLine
 10
6.0621222047244094
 20
-3.5627853543307086
 30
0
 11
6.0581278346456688
 21
-3.5682831889763778
 31
0
  0
LINE
  5
136
330
1A
100
AcDbEntity
  8
Edge.Cuts
  6
CONTINUOUS
100
AcDbLine
 10
6.0581278346456688
 20
-3.5682831889763778
 30
0
 11
6.0533225590551183
 21
-3.5730884645669292
 31
0
  0
LINE
  5
137
330
1A
100
AcDbEntity
  8
Edge.Cuts
  6
CONTINUOUS
100
AcDbLine
 10
6.0533225590551183
 20
-3.5730884645669292
 30
0
 11
6.0478247244094483
 21
-3.5770828346456693
 31
0
  0
LINE
  5
138
330
1A
100
AcDbEntity
  8
Edge.Cuts
  6
CONTINUOUS
100
AcDbLine
 10
6.0478247244094483
 20
-3.5770828346456693
 30
0
 11
6.0417697637795271
 21
-3.5801679921259844
 31
0
  0
LINE
  5
139
330
1A
100
AcDbEntity
  8
Edge.Cuts
  6
CONTINUOUS
100
AcDbLine
 10
6.0417697637795271
 20
-3.5801679921259844
 30
0
 11
6.0353066929133856
 21
-3.5822679921259843
 31
0
  0
LINE
  5
13A
330
1A
100
AcDbEntity
  8
Edge.Cuts
  6
CONTINUOUS
100
AcDbLine
 10
6.0353066929133856
 20
-3.5822679921259843
 30
0
 11
6.0285946850393701
 21
-3.583331062992126
 31
0
  0
LINE
  5
13B
330
1A
100
AcDbEntity
  8
Edge.Cuts
  6
CONTINUOUS
100
AcDbLine
 10
6.0285946850393701
 20
-3.583331062992126
 30
0
 11
6.021799015748031
 21
-3.583331062992126
 31
0
  0
LINE
  5
13C
330
1A
100
AcDbEntity
  8
Edge.Cuts
  6
CONTINUOUS
100
AcDbLine
 10
6.021799015748031
 20
-3.583331062992126
 30
0
 11
6.0150870078740155
 21
-3.5822679921259843
 31
0
  0
LINE
  5
13D
330
1A
100
AcDbEntity
  8
Edge.Cuts
  6
CONTINUOUS
100
AcDbLine
 10
6.0150870078740155
 20
-3.5822679921259843
 30
0
 11
6.008623937007874
 21
-3.5801679921259844
 31
0
  0
LINE
  5
13E
330
1A
100
AcDbEntity
  8
Edge.Cuts
  6
CONTINUOUS
100
AcDbLine
 10
6.008623937007874
 20
-3.5801679921259844
 30
0
 11
6.0025689763779528
 21
-3.5770828346456693
 31
0
  0
LINE
  5
13F
330
1A
100
AcDbEntity
  8
Edge.Cuts
  6
CONTINUOUS
100
AcDbLine
 10
6.0025689763779528
 20
-3.5770828346456693
 30
0
 11
5.9970711417322837
 21
-3.5730884645669292
 31
0
  0
LINE
  5
140
330
1A
100
AcDbEntity
  8
Edge.Cuts
  6
CONTINUOUS
100
AcDbLine
 10
5.9970711417322837
 20
-3.5730884645669292
 30
0
 11
5.9922658661417323
 21
-3.5682831889763778
 31
0
  0
LINE
  5
141
330
1A
100
AcDbEntity
  8
Edge.Cuts
  6
CONTINUOUS
100
AcDbLine
 10
5.9922658661417323
 20
-3.5682831889763778
 30
0
 11
5.9882714960629917
 21
-3.5627853543307086
 31
0
  0
LINE
  5
142
330
1A
100
AcDbEntity
  8
Edge.Cuts
  6
CONTINUOUS
100
AcDbLine
 10
5.9882714960629917
 20
-3.5627853543307086
 30
0
 11
5.9851863385826771
 21
-3.5567303937007875
 31
0
  0
LINE
  5
143
330
1A
100
AcDbEntity
  8
Edge.Cuts
  6
CONTINUOUS
100
AcDbLine
 10
5.9851863385826771
 20
-3.5567303937007875
 30
0
 11
5.9830863385826767
 21
-3.5502673228346455
 31
0
  0
LINE
  5
144
330
1A
100
AcDbEntity
  8
Edge.Cuts
  6
CONTINUOUS
100
AcDbLine
 10
5.9830863385826767
 20
-3.5502673228346455
 30
0
 11
5.982023267716535
 21
-3.54355531496063
 31
0
  0
LINE
  5
145
330
1A
100
AcDbEntity
  8
Edge.Cuts
  6
CONTINUOUS
100
AcDbLine
 10
5.982023267716535
 20
-3.54355531496063
 30
0
 11
5.982023267716535
 21
-3.5367596456692914
 31
0
  0
LINE
  5
146
330
1A
100
AcDbEntity
  8
Edge.Cuts
  6
CONTINUOUS
100
AcDbLine
 10
5.982023267716535
 20
-3.5367596456692914
 30
0
 11
5.9830863385826767
 21
-3.5300476377952754
 31
0
  0
LINE
  5
147
330
1A
100
AcDbEntity
  8
Edge.Cuts
  6
CONTINUOUS
100
AcDbLine
 10
5.9830863385826767
 20
-3.5300476377952754
 30
0
 11
5.9851863385826771
 21
-3.5235845669291339
 31
0
  0
LINE
  5
148
330
1A
100
AcDbEntity
  8
Edge.Cuts
  6
CONTINUOUS
100
AcDbLine
 10
5.9851863385826771
 20
-3.5235845669291339
 30
0
 11
5.9882714960629917
 21
-3.5175296062992123
 31
0
  0
LINE
  5
149
330
1A
100
AcDbEntity
  8
Edge.Cuts
  6
CONTINUOUS
100
AcDbLine
 10
5.9882714960629917
 20
-3.5175296062992123
 30
0
 11
5.9919449606299215
 21
-3.5124733858267714
 31
0
  0
LINE
  5
14A
330
1A
100
AcDbEntity
  8
Edge.Cuts
  6
CONTINUOUS
100
AcDbLine
 10
5.9919449606299215
 20
-3.5124733858267714
 30
0
 11
5.6664794488188974
 21
-3.1870078740157481
 31
0
  0
LINE
  5
14B
330
1A
100
AcDbEntity
  8
Edge.Cuts
  6
CONTINUOUS
100
AcDbLine
 10
5.6664794488188974
 20
-3.1870078740157481
 30
0
 11
5.258805275590551
 21
-3.1870078740157481
 31
0
  0
LINE
  5
14C
330
1A
100
AcDbEntity
  8
Edge.Cuts
  6
CONTINUOUS
100
AcDbLine
 10
5.258805275590551
 20
-3.1870078740157481
 30
0
 11
5.2580372047244097
 21
-3.1869322440944883
 31
0
  0
LINE
  5
14D
330
1A
100
AcDbEntity
  8
Edge.Cuts
  6
CONTINUOUS
100
AcDbLine
 10
5.2580372047244097
 20
-3.1869322440944883
 30
0
 11
5.2566179921259844
 21
-3.1863444094488189
 31
0
  0
LINE
  5
14E
330
1A
100
AcDbEntity
  8
Edge.Cuts
  6
CONTINUOUS
100
AcDbLine
 10
5.2566179921259844
 20
-3.1863444094488189
 30
0
 11
5.2560214173228346
 21
-3.1858547637795276
 31
0
  0
LINE
  5
14F
330
1A
100
AcDbEntity
  8
Edge.Cuts
  6
CONTINUOUS
100
AcDbLine
 10
5.2560214173228346
 20
-3.1858547637795276
 30
0
 11
5.2294995669291335
 21
-3.1593329527559053
 31
0
  0
LINE
  5
150
330
1A
100
AcDbEntity
  8
Edge.Cuts
  6
CONTINUOUS
100
AcDbLine
 10
5.2294995669291335
 20
-3.1593329527559053
 30
0
 11
5.229009960629921
 21
-3.1587363385826772
 31
0
  0
LINE
  5
151
330
1A
100
AcDbEntity
  8
Edge.Cuts
  6
CONTINUOUS
100
AcDbLine
 10
5.229009960629921
 20
-3.1587363385826772
 30
0
 11
5.2284220866141728
 21
-3.1573171259842518
 31
0
  0
LINE
  5
152
330
1A
100
AcDbEntity
  8
Edge.Cuts
  6
CONTINUOUS
100
AcDbLine
 10
5.2284220866141728
 20
-3.1573171259842518
 30
0
 11
5.228346456692913
 21
-3.1565490551181101
 31
0
  0
LINE
  5
153
330
1A
100
AcDbEntity
  8
Edge.Cuts
  6
CONTINUOUS
100
AcDbLine
 10
5.228346456692913
 20
-3.1565490551181101
 30
0
 11
5.228346456692913
 21
-3.0811023622047244
 31
0
  0
LINE
  5
154
330
1A
100
AcDbEntity
  8
Edge.Cuts
  6
CONTINUOUS
100
AcDbLine
 10
5.228346456692913
 20
-3.0811023622047244
 30
0
 11
5.2284220866141728
 21
-3.0803342913385827
 31
0
  0
LINE
  5
155
330
1A
100
AcDbEntity
  8
Edge.Cuts
  6
CONTINUOUS
100
AcDbLine
 10
5.2284220866141728
 20
-3.0803342913385827
 30
0
 11
5.229009960629921
 21
-3.0789150787401574
 31
0
  0
LINE
  5
156
330
1A
100
AcDbEntity
  8
Edge.Cuts
  6
CONTINUOUS
100
AcDbLine
 10
5.229009960629921
 20
-3.0789150787401574
 30
0
 11
5.2294995669291335
 21
-3.0783184645669293
 31
0
  0
LINE
  5
157
330
1A
100
AcDbEntity
  8
Edge.Cuts
  6
CONTINUOUS
100
AcDbLine
 10
5.2294995669291335
 20
-3.0783184645669293
 30
0
 11
5.2505299999999995
 21
-3.0572879921259841
 31
0
  0
LINE
  5
158
330
1A
100
AcDbEntity
  8
Edge.Cuts
  6
CONTINUOUS
100
AcDbLine
 10
5.2505299999999995
 20
-3.0572879921259841
 30
0
 11
5.2480459448818895
 21
-3.0535703543307084
 31
0
  0
LINE
  5
159
330
1A
100
AcDbEntity
  8
Edge.Cuts
  6
CONTINUOUS
100
AcDbLine
 10
5.2480459448818895
 20
-3.0535703543307084
 30
0
 11
5.2455354724409444
 21
-3.0475095275590549
 31
0
  0
LINE
  5
15A
330
1A
100
AcDbEntity
  8
Edge.Cuts
  6
CONTINUOUS
100
AcDbLine
 10
5.2455354724409444
 20
-3.0475095275590549
 30
0
 11
5.2442556299212599
 21
-3.0410753937007873
 31
0
  0
LINE
  5
15B
330
1A
100
AcDbEntity
  8
Edge.Cuts
  6
CONTINUOUS
100
AcDbLine
 10
5.2442556299212599
 20
-3.0410753937007873
 30
0
 11
5.2442556299212599
 21
-3.0345151574803149
 31
0
  0
LINE
  5
15C
330
1A
100
AcDbEntity
  8
Edge.Cuts
  6
CONTINUOUS
100
AcDbLine
 10
5.2442556299212599
 20
-3.0345151574803149
 30
0
 11
5.2455354724409444
 21
-3.0280810236220472
 31
0
  0
LINE
  5
15D
330
1A
100
AcDbEntity
  8
Edge.Cuts
  6
CONTINUOUS
100
AcDbLine
 10
5.2455354724409444
 20
-3.0280810236220472
 30
0
 11
5.2480459448818895
 21
-3.0220201968503937
 31
0
  0
LINE
  5
15E
330
1A
100
AcDbEntity
  8
Edge.Cuts
  6
CONTINUOUS
100
AcDbLine
 10
5.2480459448818895
 20
-3.0220201968503937
 30
0
 11
5.2516905905511813
 21
-3.0165655905511812
 31
0
  0
LINE
  5
15F
330
1A
100
AcDbEntity
  8
Edge.Cuts
  6
CONTINUOUS
100
AcDbLine
 10
5.2516905905511813
 20
-3.0165655905511812
 30
0
 11
5.2563293700787401
 21
-3.0119268110236219
 31
0
  0
LINE
  5
160
330
1A
100
AcDbEntity
  8
Edge.Cuts
  6
CONTINUOUS
100
AcDbLine
 10
5.2563293700787401
 20
-3.0119268110236219
 30
0
 11
5.261783976377953
 21
-3.0082821653543306
 31
0
  0
LINE
  5
161
330
1A
100
AcDbEntity
  8
Edge.Cuts
  6
CONTINUOUS
100
AcDbLine
 10
5.261783976377953
 20
-3.0082821653543306
 30
0
 11
5.2678448031496066
 21
-3.005771692913386
 31
0
  0
LINE
  5
162
330
1A
100
AcDbEntity
  8
Edge.Cuts
  6
CONTINUOUS
100
AcDbLine
 10
5.2678448031496066
 20
-3.005771692913386
 30
0
 11
5.2742789370078738
 21
-3.0044918503937006
 31
0
  0
LINE
  5
163
330
1A
100
AcDbEntity
  8
Edge.Cuts
  6
CONTINUOUS
100
AcDbLine
 10
5.2742789370078738
 20
-3.0044918503937006
 30
0
 11
5.2775590551181102
 21
-3.004330708661417
 31
0
  0
LINE
  5
164
330
1A
100
AcDbEntity
  8
Edge.Cuts
  6
CONTINUOUS
100
AcDbLine
 10
5.2775590551181102
 20
-3.004330708661417
 30
0
 11
5.3523622047244093
 21
-3.004330708661417
 31
0
  0
LINE
  5
165
330
1A
100
AcDbEntity
  8
Edge.Cuts
  6
CONTINUOUS
100
AcDbLine
 10
5.3523622047244093
 20
-3.004330708661417
 30
0
 11
5.3556423228346457
 21
-3.0044918503937006
 31
0
  0
LINE
  5
166
330
1A
100
AcDbEntity
  8
Edge.Cuts
  6
CONTINUOUS
100
AcDbLine
 10
6.8090318110236216
 20
-2.7347212992125982
 30
0
 11
6.810451023622047
 21
-2.7353091732283463
 31
0
  0
LINE
  5
167
330
1A
100
AcDbEntity
  8
Edge.Cuts
  6
CONTINUOUS
100
AcDbLine
 10
6.810451023622047
 20
-2.7353091732283463
 30
0
 11
6.8110476377952756
 21
-2.7357987795275589
 31
0
  0
LINE
  5
168
330
1A
100
AcDbEntity
  8
Edge.Cuts
  6
CONTINUOUS
100
AcDbLine
 10
6.8110476377952756
 20
-2.7357987795275589
 30
0
 11
7.5437287795275587
 21
-3.4684799212598425
 31
0
  0
LINE
  5
169
330
1A
100
AcDbEntity
  8
Edge.Cuts
  6
CONTINUOUS
100
AcDbLine
 10
7.5437287795275587
 20
-3.4684799212598425
 30
0
 11
7.5442183858267713
 21
-3.4690764960629918
 31
0
  0
LINE
  5
16A
330
1A
100
AcDbEntity
  8
Edge.Cuts
  6
CONTINUOUS
100
AcDbLine
 10
7.5442183858267713
 20
-3.4690764960629918
 30
0
 11
7.5442183858267713
 21
-3.4690765354330706
 31
0
  0
LINE
  5
16B
330
1A
100
AcDbEntity
  8
Edge.Cuts
  6
CONTINUOUS
100
AcDbLine
 10
7.5442183858267713
 20
-3.4690765354330706
 30
0
 11
7.5448062598425194
 21
-3.470495748031496
 31
0
  0
LINE
  5
16C
330
1A
100
AcDbEntity
  8
Edge.Cuts
  6
CONTINUOUS
100
AcDbLine
 10
7.5448062598425194
 20
-3.470495748031496
 30
0
 11
7.5448818897637793
 21
-3.4712638188976377
 31
0
  0
LINE
  5
16D
330
1A
100
AcDbEntity
  8
Edge.Cuts
  6
CONTINUOUS
100
AcDbLine
 10
7.5448818897637793
 20
-3.4712638188976377
 30
0
 11
7.5448818897637793
 21
-3.4970692913385828
 31
0
  0
LINE
  5
16E
330
1A
100
AcDbEntity
  8
Edge.Cuts
  6
CONTINUOUS
100
AcDbLine
 10
7.5448818897637793
 20
-3.4970692913385828
 30
0
 11
7.5510547244094486
 21
-3.498046968503937
 31
0
  0
LINE
  5
16F
330
1A
100
AcDbEntity
  8
Edge.Cuts
  6
CONTINUOUS
100
AcDbLine
 10
7.5510547244094486
 20
-3.498046968503937
 30
0
 11
7.5575177952755901
 21
-3.500146968503937
 31
0
  0
LINE
  5
170
330
1A
100
AcDbEntity
  8
Edge.Cuts
  6
CONTINUOUS
100
AcDbLine
 10
7.5575177952755901
 20
-3.500146968503937
 30
0
 11
7.5635727559055113
 21
-3.503232125984252
 31
0
  0
LINE
  5
171
330
1A
100
AcDbEntity
  8
Edge.Cuts
  6
CONTINUOUS
100
AcDbLine
 10
7.5635727559055113
 20
-3.503232125984252
 30
0
 11
7.5690705905511813
 21
-3.5072264960629922
 31
0
  0
LINE
  5
172
330
1A
100
AcDbEntity
  8
Edge.Cuts
  6
CONTINUOUS
100
AcDbLine
 10
7.5690705905511813
 20
-3.5072264960629922
 30
0
 11
7.5738758661417318
 21
-3.5120317716535432
 31
0
  0
LINE
  5
173
330
1A
100
AcDbEntity
  8
Edge.Cuts
  6
CONTINUOUS
100
AcDbLine
 10
7.5738758661417318
 20
-3.5120317716535432
 30
0
 11
7.5778702362204724
 21
-3.5175296062992123
 31
0
  0
LINE
  5
174
330
1A
100
AcDbEntity
  8
Edge.Cuts
  6
CONTINUOUS
100
AcDbLine
 10
7.5778702362204724
 20
-3.5175296062992123
 30
0
 11
7.580955393700787
 21
-3.5235845669291339
 31
0
  0
LINE
  5
175
330
1A
100
AcDbEntity
  8
Edge.Cuts
  6
CONTINUOUS
100
AcDbLine
 10
7.580955393700787
 20
-3.5235845669291339
 30
0
 11
7.5830553937007874
 21
-3.5300476377952754
 31
0
  0
LINE
  5
176
330
1A
100
AcDbEntity
  8
Edge.Cuts
  6
CONTINUOUS
100
AcDbLine
 10
7.5830553937007874
 20
-3.5300476377952754
 30
0
 11
7.5841184645669291
 21
-3.5367596456692914
 31
0
  0
LINE
  5
177
330
1A
100
AcDbEntity
  8
Edge.Cuts
  6
CONTINUOUS
100
AcDbLine
 10
7.5841184645669291
 20
-3.5367596456692914
 30
0
 11
7.5841184645669291
 21
-3.54355531496063
 31
0
  0
LINE
  5
178
330
1A
100
AcDbEntity
  8
Edge.Cuts
  6
CONTINUOUS
100
AcDbLine
 10
7.5841184645669291
 20
-3.54355531496063
 30
0
 11
7.5830553937007874
 21
-3.5502673228346455
 31
0
  0
LINE
  5
179
330
1A
100
AcDbEntity
  8
Edge.Cuts
  6
CONTINUOUS
100
AcDbLine
 10
7.5830553937007874
 20
-3.5502673228346455
 30
0
 11
7.580955393700787
 21
-3.5567303937007875
 31
0
  0
LINE
  5
17A
330
1A
100
AcDbEntity
  8
Edge.Cuts
  6
CONTINUOUS
100
AcDbLine
 10
7.580955393700787
 20
-3.5567303937007875
 30
0
 11
7.5778702362204724
 21
-3.5627853543307086
 31
0
  0
LINE
  5
17B
330
1A
100
AcDbEntity
  8
Edge.Cuts
  6
CONTINUOUS
100
AcDbLine
 10
7.5778702362204724
 20
-3.5627853543307086
 30
0
 11
7.5738758661417318
 21
-3.5682831889763778
 31
0
  0
LINE
  5
17C
330
1A
100
AcDbEntity
  8
Edge.Cuts
  6
CONTINUOUS
100
AcDbLine
 10
7.5738758661417318
 20
-3.5682831889763778
 30
0
 11
7.5690705905511813
 21
-3.5730884645669292
 31
0
  0
LINE
  5
17D
330
1A
100
AcDbEntity
  8
Edge.Cuts
  6
CONTINUOUS
100
AcDbLine
 10
7.5690705905511813
 20
-3.5730884645669292
 30
0
 11
7.5635727559055113
 21
-3.5770828346456693
 31
0
  0
LINE
  5
17E
330
1A
100
AcDbEntity
  8
Edge.Cuts
  6
CONTINUOUS
100
AcDbLine
 10
7.5635727559055113
 20
-3.5770828346456693
 30
0
 11
7.5575177952755901
 21
-3.5801679921259844
 31
0
  0
LINE
  5
17F
330
1A
100
AcDbEntity
  8
Edge.Cuts
  6
CONTINUOUS
100
AcDbLine
 10
7.5575177952755901
 20
-3.5801679921259844
 30
0
 11
7.5510547244094486
 21
-3.5822679921259843
 31
0
  0
LINE
  5
180
330
1A
100
AcDbEntity
  8
Edge.Cuts
  6
CONTINUOUS
100
AcDbLine
 10
7.5510547244094486
 20
-3.5822679921259843
 30
0
 11
7.5443427165354331
 21
-3.583331062992126
 31
0
  0
LINE
  5
181
330
1A
100
AcDbEntity
  8
Edge.Cuts
  6
CONTINUOUS
100
AcDbLine
 10
7.5443427165354331
 20
-3.583331062992126
 30
0
 11
7.537547047244094
 21
-3.583331062992126
 31
0
  0
LINE
  5
182
330
1A
100
AcDbEntity
  8
Edge.Cuts
  6
CONTINUOUS
100
AcDbLine
 10
7.537547047244094
 20
-3.583331062992126
 30
0
 11
7.5308350393700785
 21
-3.5822679921259843
 31
0
  0
LINE
  5
183
330
1A
100
AcDbEntity
  8
Edge.Cuts
  6
CONTINUOUS
100
AcDbLine
 10
7.5308350393700785
 20
-3.5822679921259843
 30
0
 11
7.524371968503937
 21
-3.5801679921259844
 31
0
  0
LINE
  5
184
330
1A
100
AcDbEntity
  8
Edge.Cuts
  6
CONTINUOUS
100
AcDbLine
 10
7.524371968503937
 20
-3.5801679921259844
 30
0
 11
7.5183170078740158
 21
-3.5770828346456693
 31
0
  0
LINE
  5
185
330
1A
100
AcDbEntity
  8
Edge.Cuts
  6
CONTINUOUS
100
AcDbLine
 10
7.5183170078740158
 20
-3.5770828346456693
 30
0
 11
7.5128191732283467
 21
-3.5730884645669292
 31
0
  0
LINE
  5
186
330
1A
100
AcDbEntity
  8
Edge.Cuts
  6
CONTINUOUS
100
AcDbLine
 10
7.5128191732283467
 20
-3.5730884645669292
 30
0
 11
7.5080138976377953
 21
-3.5682831889763778
 31
0
  0
LINE
  5
187
330
1A
100
AcDbEntity
  8
Edge.Cuts
  6
CONTINUOUS
100
AcDbLine
 10
7.5080138976377953
 20
-3.5682831889763778
 30
0
 11
7.5040195275590547
 21
-3.5627853543307086
 31
0
  0
LINE
  5
188
330
1A
100
AcDbEntity
  8
Edge.Cuts
  6
CONTINUOUS
100
AcDbLine
 10
7.5040195275590547
 20
-3.5627853543307086
 30
0
 11
7.5009343700787401
 21
-3.5567303937007875
 31
0
  0
LINE
  5
189
330
1A
100
AcDbEntity
  8
Edge.Cuts
  6
CONTINUOUS
100
AcDbLine
 10
7.5009343700787401
 20
-3.5567303937007875
 30
0
 11
7.4988343700787397
 21
-3.5502673228346455
 31
0
  0
LINE
  5
18A
330
1A
100
AcDbEntity
  8
Edge.Cuts
  6
CONTINUOUS
100
AcDbLine
 10
7.4988343700787397
 20
-3.5502673228346455
 30
0
 11
7.497771299212598
 21
-3.54355531496063
 31
0
  0
LINE
  5
18B
330
1A
100
AcDbEntity
  8
Edge.Cuts
  6
CONTINUOUS
100
AcDbLine
 10
7.497771299212598
 20
-3.54355531496063
 30
0
 11
7.497771299212598
 21
-3.5367596456692914
 31
0
  0
LINE
  5
18C
330
1A
100
AcDbEntity
  8
Edge.Cuts
  6
CONTINUOUS
100
AcDbLine
 10
7.497771299212598
 20
-3.5367596456692914
 30
0
 11
7.4988343700787397
 21
-3.5300476377952754
 31
0
  0
LINE
  5
18D
330
1A
100
AcDbEntity
  8
Edge.Cuts
  6
CONTINUOUS
100
AcDbLine
 10
7.4988343700787397
 20
-3.5300476377952754
 30
0
 11
7.5009343700787401
 21
-3.5235845669291339
 31
0
  0
LINE
  5
18E
330
1A
100
AcDbEntity
  8
Edge.Cuts
  6
CONTINUOUS
100
AcDbLine
 10
7.5009343700787401
 20
-3.5235845669291339
 30
0
 11
7.5040195275590547
 21
-3.5175296062992123
 31
0
  0
LINE
  5
18F
330
1A
100
AcDbEntity
  8
Edge.Cuts
  6
CONTINUOUS
100
AcDbLine
 10
7.5040195275590547
 20
-3.5175296062992123
 30
0
 11
7.5080138976377953
 21
-3.5120317716535432
 31
0
  0
LINE
  5
190
330
1A
100
AcDbEntity
  8
Edge.Cuts
  6
CONTINUOUS
100
AcDbLine
 10
7.5080138976377953
 20
-3.5120317716535432
 30
0
 11
7.5128191732283467
 21
-3.5072264960629922
 31
0
  0
LINE
  5
191
330
1A
100
AcDbEntity
  8
Edge.Cuts
  6
CONTINUOUS
100
AcDbLine
 10
7.5128191732283467
 20
-3.5072264960629922
 30
0
 11
7.5183170078740158
 21
-3.503232125984252
 31
0
  0
LINE
  5
192
330
1A
100
AcDbEntity
  8
Edge.Cuts
  6
CONTINUOUS
100
AcDbLine
 10
7.5183170078740158
 20
-3.503232125984252
 30
0
 11
7.524371968503937
 21
-3.500146968503937
 31
0
  0
LINE
  5
193
330
1A
100
AcDbEntity
  8
Edge.Cuts
  6
CONTINUOUS
100
AcDbLine
 10
7.524371968503937
 20
-3.500146968503937
 30
0
 11
7.5308350393700785
 21
-3.498046968503937
 31
0
  0
LINE
  5
194
330
1A
100
AcDbEntity
  8
Edge.Cuts
  6
CONTINUOUS
100
AcDbLine
 10
7.5308350393700785
 20
-3.498046968503937
 30
0
 11
7.5370078740157478
 21
-3.4970692913385828
 31
0
  0
LINE
  5
195
330
1A
100
AcDbEntity
  8
Edge.Cuts
  6
CONTINUOUS
100
AcDbLine
 10
7.5370078740157478
 20
-3.4970692913385828
 30
0
 11
7.5370078740157478
 21
-3.4728946062992123
 31
0
  0
LINE
  5
196
330
1A
100
AcDbEntity
  8
Edge.Cuts
  6
CONTINUOUS
100
AcDbLine
 10
7.5370078740157478
 20
-3.4728946062992123
 30
0
 11
6.8066329527559057
 21
-2.7425196850393698
 31
0
  0
LINE
  5
197
330
1A
100
AcDbEntity
  8
Edge.Cuts
  6
CONTINUOUS
100
AcDbLine
 10
6.8066329527559057
 20
-2.7425196850393698
 30
0
 11
5.4192034645669294
 21
-2.7425196850393698
 31
0
  0
LINE
  5
198
330
1A
100
AcDbEntity
  8
Edge.Cuts
  6
CONTINUOUS
100
AcDbLine
 10
5.4192034645669294
 20
-2.7425196850393698
 30
0
 11
5.3572490551181104
 21
-2.80447405511811
 31
0
  0
LINE
  5
199
330
1A
100
AcDbEntity
  8
Edge.Cuts
  6
CONTINUOUS
100
AcDbLine
 10
5.3572490551181104
 20
-2.80447405511811
 30
0
 11
5.3576108267716531
 21
-2.8044918503937009
 31
0
  0
LINE
  5
19A
330
1A
100
AcDbEntity
  8
Edge.Cuts
  6
CONTINUOUS
100
AcDbLine
 10
5.3576108267716531
 20
-2.8044918503937009
 30
0
 11
5.3640449606299212
 21
-2.8057716929133858
 31
0
  0
LINE
  5
19B
330
1A
100
AcDbEntity
  8
Edge.Cuts
  6
CONTINUOUS
100
AcDbLine
 10
5.3640449606299212
 20
-2.8057716929133858
 30
0
 11
5.3701057874015747
 21
-2.8082821653543308
 31
0
  0
LINE
  5
19C
330
1A
100
AcDbEntity
  8
Edge.Cuts
  6
CONTINUOUS
100
AcDbLine
 10
5.3701057874015747
 20
-2.8082821653543308
 30
0
 11
5.3755603937007876
 21
-2.8119268110236222
 31
0
  0
LINE
  5
19D
330
1A
100
AcDbEntity
  8
Edge.Cuts
  6
CONTINUOUS
100
AcDbLine
 10
5.3755603937007876
 20
-2.8119268110236222
 30
0
 11
5.3801991732283465
 21
-2.8165655905511811
 31
0
  0
LINE
  5
19E
330
1A
100
AcDbEntity
  8
Edge.Cuts
  6
CONTINUOUS
100
AcDbLine
 10
5.3801991732283465
 20
-2.8165655905511811
 30
0
 11
5.3838438188976374
 21
-2.8220201968503935
 31
0
  0
LINE
  5
19F
330
1A
100
AcDbEntity
  8
Edge.Cuts
  6
CONTINUOUS
100
AcDbLine
 10
5.3838438188976374
 20
-2.8220201968503935
 30
0
 11
5.3863542913385825
 21
-2.8280810236220471
 31
0
  0
LINE
  5
1A0
330
1A
100
AcDbEntity
  8
Edge.Cuts
  6
CONTINUOUS
100
AcDbLine
 10
5.3863542913385825
 20
-2.8280810236220471
 30
0
 11
5.3876341338582678
 21
-2.8345151574803147
 31
0
  0
LINE
  5
1A1
330
1A
100
AcDbEntity
  8
Edge.Cuts
  6
CONTINUOUS
100
AcDbLine
 10
5.3876341338582678
 20
-2.8345151574803147
 30
0
 11
5.3876341338582678
 21
-2.8410753937007875
 31
0
  0
LINE
  5
1A2
330
1A
100
AcDbEntity
  8
Edge.Cuts
  6
CONTINUOUS
100
AcDbLine
 10
5.3876341338582678
 20
-2.8410753937007875
 30
0
 11
5.3863542913385825
 21
-2.8475095275590552
 31
0
  0
LINE
  5
1A3
330
1A
100
AcDbEntity
  8
Edge.Cuts
  6
CONTINUOUS
100
AcDbLine
 10
5.3863542913385825
 20
-2.8475095275590552
 30
0
 11
5.3838438188976374
 21
-2.8535703543307087
 31
0
  0
LINE
  5
1A4
330
1A
100
AcDbEntity
  8
Edge.Cuts
  6
CONTINUOUS
100
AcDbLine
 10
5.3838438188976374
 20
-2.8535703543307087
 30
0
 11
5.3801991732283465
 21
-2.8590249606299212
 31
0
  0
LINE
  5
1A5
330
1A
100
AcDbEntity
  8
Edge.Cuts
  6
CONTINUOUS
100
AcDbLine
 10
5.3801991732283465
 20
-2.8590249606299212
 30
0
 11
5.3755603937007876
 21
-2.86366374015748
 31
0
  0
LINE
  5
1A6
330
1A
100
AcDbEntity
  8
Edge.Cuts
  6
CONTINUOUS
100
AcDbLine
 10
5.3755603937007876
 20
-2.86366374015748
 30
0
 11
5.3701057874015747
 21
-2.8673083858267714
 31
0
  0
LINE
  5
1A7
330
1A
100
AcDbEntity
  8
Edge.Cuts
  6
CONTINUOUS
100
AcDbLine
 10
5.3701057874015747
 20
-2.8673083858267714
 30
0
 11
5.3640449606299212
 21
-2.8698188582677164
 31
0
  0
LINE
  5
1A8
330
1A
100
AcDbEntity
  8
Edge.Cuts
  6
CONTINUOUS
100
AcDbLine
 10
5.3640449606299212
 20
-2.8698188582677164
 30
0
 11
5.3576108267716531
 21
-2.8710987007874014
 31
0
  0
LINE
  5
1A9
330
1A
100
AcDbEntity
  8
Edge.Cuts
  6
CONTINUOUS
100
AcDbLine
 10
5.3576108267716531
 20
-2.8710987007874014
 30
0
 11
5.3543307086614176
 21
-2.8712598425196849
 31
0
  0
LINE
  5
1AA
330
1A
100
AcDbEntity
  8
Edge.Cuts
  6
CONTINUOUS
100
AcDbLine
 10
5.3543307086614176
 20
-2.8712598425196849
 30
0
 11
5.2755905511811019
 21
-2.8712598425196849
 31
0
  0
LINE
  5
1AB
330
1A
100
AcDbEntity
  8
Edge.Cuts
  6
CONTINUOUS
100
AcDbLine
 10
5.2755905511811019
 20
-2.8712598425196849
 30
0
 11
5.2723104330708663
 21
-2.8710987007874014
 31
0
  0
LINE
  5
1AC
330
1A
100
AcDbEntity
  8
Edge.Cuts
  6
CONTINUOUS
100
AcDbLine
 10
5.2723104330708663
 20
-2.8710987007874014
 30
0
 11
5.2658762992125983
 21
-2.8698188582677164
 31
0
  0
LINE
  5
1AD
330
1A
100
AcDbEntity
  8
Edge.Cuts
  6
CONTINUOUS
100
AcDbLine
 10
5.2658762992125983
 20
-2.8698188582677164
 30
0
 11
5.2598154724409447
 21
-2.8673083858267714
 31
0
  0
LINE
  5
1AE
330
1A
100
AcDbEntity
  8
Edge.Cuts
  6
CONTINUOUS
100
AcDbLine
 10
5.2598154724409447
 20
-2.8673083858267714
 30
0
 11
5.2543608661417318
 21
-2.86366374015748
 31
0
  0
LINE
  5
1AF
330
1A
100
AcDbEntity
  8
Edge.Cuts
  6
CONTINUOUS
100
AcDbLine
 10
5.2543608661417318
 20
-2.86366374015748
 30
0
 11
5.2497220866141729
 21
-2.8590249606299212
 31
0
  0
LINE
  5
1B0
330
1A
100
AcDbEntity
  8
Edge.Cuts
  6
CONTINUOUS
100
AcDbLine
 10
5.2497220866141729
 20
-2.8590249606299212
 30
0
 11
5.246077440944882
 21
-2.8535703543307087
 31
0
  0
LINE
  5
1B1
330
1A
100
AcDbEntity
  8
Edge.Cuts
  6
CONTINUOUS
100
AcDbLine
 10
5.246077440944882
 20
-2.8535703543307087
 30
0
 11
5.243566968503937
 21
-2.8475095275590552
 31
0
  0
LINE
  5
1B2
330
1A
100
AcDbEntity
  8
Edge.Cuts
  6
CONTINUOUS
100
AcDbLine
 10
5.243566968503937
 20
-2.8475095275590552
 30
0
 11
5.2422871259842516
 21
-2.8410753937007875
 31
0
  0
LINE
  5
1B3
330
1A
100
AcDbEntity
  8
Edge.Cuts
  6
CONTINUOUS
100
AcDbLine
 10
5.2422871259842516
 20
-2.8410753937007875
 30
0
 11
5.2422871259842516
 21
-2.8345151574803147
 31
0
  0
LINE
  5
1B4
330
1A
100
AcDbEntity
  8
Edge.Cuts
  6
CONTINUOUS
100
AcDbLine
 10
5.2422871259842516
 20
-2.8345151574803147
 30
0
 11
5.243566968503937
 21
-2.8280810236220471
 31
0
  0
LINE
  5
1B5
330
1A
100
AcDbEntity
  8
Edge.Cuts
  6
CONTINUOUS
100
AcDbLine
 10
5.243566968503937
 20
-2.8280810236220471
 30
0
 11
5.246077440944882
 21
-2.8220201968503935
 31
0
  0
LINE
  5
1B6
330
1A
100
AcDbEntity
  8
Edge.Cuts
  6
CONTINUOUS
100
AcDbLine
 10
5.246077440944882
 20
-2.8220201968503935
 30
0
 11
5.2497220866141729
 21
-2.8165655905511811
 31
0
  0
LINE
  5
1B7
330
1A
100
AcDbEntity
  8
Edge.Cuts
  6
CONTINUOUS
100
AcDbLine
 10
5.2497220866141729
 20
-2.8165655905511811
 30
0
 11
5.2543608661417318
 21
-2.8119268110236222
 31
0
  0
LINE
  5
1B8
330
1A
100
AcDbEntity
  8
Edge.Cuts
  6
CONTINUOUS
100
AcDbLine
 10
5.2543608661417318
 20
-2.8119268110236222
 30
0
 11
5.2598154724409447
 21
-2.8082821653543308
 31
0
  0
LINE
  5
1B9
330
1A
100
AcDbEntity
  8
Edge.Cuts
  6
CONTINUOUS
100
AcDbLine
 10
5.2598154724409447
 20
-2.8082821653543308
 30
0
 11
5.2658762992125983
 21
-2.8057716929133858
 31
0
  0
LINE
  5
1BA
330
1A
100
AcDbEntity
  8
Edge.Cuts
  6
CONTINUOUS
100
AcDbLine
 10
5.2658762992125983
 20
-2.8057716929133858
 30
0
 11
5.2723104330708663
 21
-2.8044918503937009
 31
0
  0
LINE
  5
1BB
330
1A
100
AcDbEntity
  8
Edge.Cuts
  6
CONTINUOUS
100
AcDbLine
 10
5.2723104330708663
 20
-2.8044918503937009
 30
0
 11
5.2755905511811019
 21
-2.8043307086614173
 31
0
  0
LINE
  5
1BC
330
1A
100
AcDbEntity
  8
Edge.Cuts
  6
CONTINUOUS
100
AcDbLine
 10
5.2755905511811019
 20
-2.8043307086614173
 30
0
 11
5.3462568503937007
 21
-2.8043307086614173
 31
0
  0
LINE
  5
1BD
330
1A
100
AcDbEntity
  8
Edge.Cuts
  6
CONTINUOUS
100
AcDbLine
 10
5.3462568503937007
 20
-2.8043307086614173
 30
0
 11
5.4147887795275587
 21
-2.7357987795275589
 31
0
  0
LINE
  5
1BE
330
1A
100
AcDbEntity
  8
Edge.Cuts
  6
CONTINUOUS
100
AcDbLine
 10
5.4147887795275587
 20
-2.7357987795275589
 30
0
 11
5.4153853543307084
 21
-2.7353091732283463
 31
0
  0
LINE
  5
1BF
330
1A
100
AcDbEntity
  8
Edge.Cuts
  6
CONTINUOUS
100
AcDbLine
 10
5.4153853543307084
 20
-2.7353091732283463
 30
0
 11
5.4158010236220475
 21
-2.7351369685039368
 31
0
  0
LINE
  5
1C0
330
1A
100
AcDbEntity
  8
Edge.Cuts
  6
CONTINUOUS
100
AcDbLine
 10
5.4158010236220475
 20
-2.7351369685039368
 30
0
 11
5.4168046062992126
 21
-2.7347212992125982
 31
0
  0
LINE
  5
1C1
330
1A
100
AcDbEntity
  8
Edge.Cuts
  6
CONTINUOUS
100
AcDbLine
 10
5.4168046062992126
 20
-2.7347212992125982
 30
0
 11
5.4175726771653538
 21
-2.7346456692913383
 31
0
  0
LINE
  5
1C2
330
1A
100
AcDbEntity
  8
Edge.Cuts
  6
CONTINUOUS
100
AcDbLine
 10
5.4175726771653538
 20
-2.7346456692913383
 30
0
 11
6.8082637401574804
 21
-2.7346456692913383
 31
0
  0
LINE
  5
1C3
330
1A
100
AcDbEntity
  8
Edge.Cuts
  6
CONTINUOUS
100
AcDbLine
 10
6.8082637401574804
 20
-2.7346456692913383
 30
0
 11
6.8090318110236216
 21
-2.7347212992125982
 31
0
  0
LINE
  5
1C4
330
1A
100
AcDbEntity
  8
Edge.Cuts
  6
CONTINUOUS
100
AcDbLine
 10
4.676508464566929
 20
-3.2044918503937008
 30
0
 11
4.6829425984251971
 21
-3.2057716929133857
 31
0
  0
LINE
  5
1C5
330
1A
100
AcDbEntity
  8
Edge.Cuts
  6
CONTINUOUS
100
AcDbLine
 10
4.6829425984251971
 20
-3.2057716929133857
 30
0
 11
4.6890034251968506
 21
-3.2082821653543308
 31
0
  0
LINE
  5
1C6
330
1A
100
AcDbEntity
  8
Edge.Cuts
  6
CONTINUOUS
100
AcDbLine
 10
4.6890034251968506
 20
-3.2082821653543308
 30
0
 11
4.6944580314960627
 21
-3.2119268110236221
 31
0
  0
LINE
  5
1C7
330
1A
100
AcDbEntity
  8
Edge.Cuts
  6
CONTINUOUS
100
AcDbLine
 10
4.6944580314960627
 20
-3.2119268110236221
 30
0
 11
4.6990968110236215
 21
-3.216565590551181
 31
0
  0
LINE
  5
1C8
330
1A
100
AcDbEntity
  8
Edge.Cuts
  6
CONTINUOUS
100
AcDbLine
 10
4.6990968110236215
 20
-3.216565590551181
 30
0
 11
4.7027414566929133
 21
-3.2220201968503934
 31
0
  0
LINE
  5
1C9
330
1A
100
AcDbEntity
  8
Edge.Cuts
  6
CONTINUOUS
100
AcDbLine
 10
4.7027414566929133
 20
-3.2220201968503934
 30
0
 11
4.7052519291338584
 21
-3.228081023622047
 31
0
  0
LINE
  5
1CA
330
1A
100
AcDbEntity
  8
Edge.Cuts
  6
CONTINUOUS
100
AcDbLine
 10
4.7052519291338584
 20
-3.228081023622047
 30
0
 11
4.7065317716535429
 21
-3.234515157480315
 31
0
  0
LINE
  5
1CB
330
1A
100
AcDbEntity
  8
Edge.Cuts
  6
CONTINUOUS
100
AcDbLine
 10
4.7065317716535429
 20
-3.234515157480315
 30
0
 11
4.7065317716535429
 21
-3.2410753937007875
 31
0
  0
LINE
  5
1CC
330
1A
100
AcDbEntity
  8
Edge.Cuts
  6
CONTINUOUS
100
AcDbLine
 10
4.7065317716535429
 20
-3.2410753937007875
 30
0
 11
4.7052519291338584
 21
-3.2475095275590551
 31
0
  0
LINE
  5
1CD
330
1A
100
AcDbEntity
  8
Edge.Cuts
  6
CONTINUOUS
100
AcDbLine
 10
4.7052519291338584
 20
-3.2475095275590551
 30
0
 11
4.7027414566929133
 21
-3.2535703543307086
 31
0
  0
LINE
  5
1CE
330
1A
100
AcDbEntity
  8
Edge.Cuts
  6
CONTINUOUS
100
AcDbLine
 10
4.7027414566929133
 20
-3.2535703543307086
 30
0
 11
4.6990968110236215
 21
-3.2590249606299211
 31
0
  0
LINE
  5
1CF
330
1A
100
AcDbEntity
  8
Edge.Cuts
  6
CONTINUOUS
100
AcDbLine
 10
4.6990968110236215
 20
-3.2590249606299211
 30
0
 11
4.6944580314960627
 21
-3.2636637401574804
 31
0
  0
LINE
  5
1D0
330
1A
100
AcDbEntity
  8
Edge.Cuts
  6
CONTINUOUS
100
AcDbLine
 10
4.6944580314960627
 20
-3.2636637401574804
 30
0
 11
4.6890034251968506
 21
-3.2673083858267717
 31
0
  0
LINE
  5
1D1
330
1A
100
AcDbEntity
  8
Edge.Cuts
  6
CONTINUOUS
100
AcDbLine
 10
4.6890034251968506
 20
-3.2673083858267717
 30
0
 11
4.6829425984251971
 21
-3.2698188582677163
 31
0
  0
LINE
  5
1D2
330
1A
100
AcDbEntity
  8
Edge.Cuts
  6
CONTINUOUS
100
AcDbLine
 10
4.6829425984251971
 20
-3.2698188582677163
 30
0
 11
4.676508464566929
 21
-3.2710987007874013
 31
0
  0
LINE
  5
1D3
330
1A
100
AcDbEntity
  8
Edge.Cuts
  6
CONTINUOUS
100
AcDbLine
 10
4.676508464566929
 20
-3.2710987007874013
 30
0
 11
4.6732283464566926
 21
-3.2712598425196848
 31
0
  0
LINE
  5
1D4
330
1A
100
AcDbEntity
  8
Edge.Cuts
  6
CONTINUOUS
100
AcDbLine
 10
4.6732283464566926
 20
-3.2712598425196848
 30
0
 11
4.5984251968503935
 21
-3.2712598425196848
 31
0
  0
LINE
  5
1D5
330
1A
100
AcDbEntity
  8
Edge.Cuts
  6
CONTINUOUS
100
AcDbLine
 10
4.5984251968503935
 20
-3.2712598425196848
 30
0
 11
4.5951450787401571
 21
-3.2710987007874013
 31
0
  0
LINE
  5
1D6
330
1A
100
AcDbEntity
  8
Edge.Cuts
  6
CONTINUOUS
100
AcDbLine
 10
4.5951450787401571
 20
-3.2710987007874013
 30
0
 11
4.5887109448818899
 21
-3.2698188582677163
 31
0
  0
LINE
  5
1D7
330
1A
100
AcDbEntity
  8
Edge.Cuts
  6
CONTINUOUS
100
AcDbLine
 10
4.5887109448818899
 20
-3.2698188582677163
 30
0
 11
4.5826501181102364
 21
-3.2673083858267717
 31
0
  0
LINE
  5
1D8
330
1A
100
AcDbEntity
  8
Edge.Cuts
  6
CONTINUOUS
100
AcDbLine
 10
4.5826501181102364
 20
-3.2673083858267717
 30
0
 11
4.5771955118110235
 21
-3.2636637401574804
 31
0
  0
LINE
  5
1D9
330
1A
100
AcDbEntity
  8
Edge.Cuts
  6
CONTINUOUS
100
AcDbLine
 10
4.5771955118110235
 20
-3.2636637401574804
 30
0
 11
4.5725567322834646
 21
-3.2590249606299211
 31
0
  0
LINE
  5
1DA
330
1A
100
AcDbEntity
  8
Edge.Cuts
  6
CONTINUOUS
100
AcDbLine
 10
4.5725567322834646
 20
-3.2590249606299211
 30
0
 11
4.5689120866141728
 21
-3.2535703543307086
 31
0
  0
LINE
  5
1DB
330
1A
100
AcDbEntity
  8
Edge.Cuts
  6
CONTINUOUS
100
AcDbLine
 10
4.5689120866141728
 20
-3.2535703543307086
 30
0
 11
4.5664016141732287
 21
-3.2475095275590551
 31
0
  0
LINE
  5
1DC
330
1A
100
AcDbEntity
  8
Edge.Cuts
  6
CONTINUOUS
100
AcDbLine
 10
4.5664016141732287
 20
-3.2475095275590551
 30
0
 11
4.5651217716535433
 21
-3.2410753937007875
 31
0
  0
LINE
  5
1DD
330
1A
100
AcDbEntity
  8
Edge.Cuts
  6
CONTINUOUS
100
AcDbLine
 10
4.5651217716535433
 20
-3.2410753937007875
 30
0
 11
4.5651217716535433
 21
-3.234515157480315
 31
0
  0
LINE
  5
1DE
330
1A
100
AcDbEntity
  8
Edge.Cuts
  6
CONTINUOUS
100
AcDbLine
 10
4.5651217716535433
 20
-3.234515157480315
 30
0
 11
4.5664016141732287
 21
-3.228081023622047
 31
0
  0
LINE
  5
1DF
330
1A
100
AcDbEntity
  8
Edge.Cuts
  6
CONTINUOUS
100
AcDbLine
 10
4.5664016141732287
 20
-3.228081023622047
 30
0
 11
4.5689120866141728
 21
-3.2220201968503934
 31
0
  0
LINE
  5
1E0
330
1A
100
AcDbEntity
  8
Edge.Cuts
  6
CONTINUOUS
100
AcDbLine
 10
4.5689120866141728
 20
-3.2220201968503934
 30
0
 11
4.5725567322834646
 21
-3.216565590551181
 31
0
  0
LINE
  5
1E1
330
1A
100
AcDbEntity
  8
Edge.Cuts
  6
CONTINUOUS
100
AcDbLine
 10
4.5725567322834646
 20
-3.216565590551181
 30
0
 11
4.5771955118110235
 21
-3.2119268110236221
 31
0
  0
LINE
  5
1E2
330
1A
100
AcDbEntity
  8
Edge.Cuts
  6
CONTINUOUS
100
AcDbLine
 10
4.5771955118110235
 20
-3.2119268110236221
 30
0
 11
4.5826501181102364
 21
-3.2082821653543308
 31
0
  0
LINE
  5
1E3
330
1A
100
AcDbEntity
  8
Edge.Cuts
  6
CONTINUOUS
100
AcDbLine
 10
4.5826501181102364
 20
-3.2082821653543308
 30
0
 11
4.5887109448818899
 21
-3.2057716929133857
 31
0
  0
LINE
  5
1E4
330
1A
100
AcDbEntity
  8
Edge.Cuts
  6
CONTINUOUS
100
AcDbLine
 10
4.5887109448818899
 20
-3.2057716929133857
 30
0
 11
4.5951450787401571
 21
-3.2044918503937008
 31
0
  0
LINE
  5
1E5
330
1A
100
AcDbEntity
  8
Edge.Cuts
  6
CONTINUOUS
100
AcDbLine
 10
4.5951450787401571
 20
-3.2044918503937008
 30
0
 11
4.5984251968503935
 21
-3.2043307086614172
 31
0
  0
LINE
  5
1E6
330
1A
100
AcDbEntity
  8
Edge.Cuts
  6
CONTINUOUS
100
AcDbLine
 10
4.5984251968503935
 20
-3.2043307086614172
 30
0
 11
4.6732283464566926
 21
-3.2043307086614172
 31
0
  0
LINE
  5
1E7
330
1A
100
AcDbEntity
  8
Edge.Cuts
  6
CONTINUOUS
100
AcDbLine
 10
4.6732283464566926
 20
-3.2043307086614172
 30
0
 11
4.676508464566929
 21
-3.2044918503937008
 31
0
  0
LINE
  5
1E8
330
1A
100
AcDbEntity
  8
Edge.Cuts
  6
CONTINUOUS
100
AcDbLine
 10
5.3556423228346457
 20
-3.2044918503937008
 30
0
 11
5.3620764566929129
 21
-3.2057716929133857
 31
0
  0
LINE
  5
1E9
330
1A
100
AcDbEntity
  8
Edge.Cuts
  6
CONTINUOUS
100
AcDbLine
 10
5.3620764566929129
 20
-3.2057716929133857
 30
0
 11
5.3681372834645664
 21
-3.2082821653543308
 31
0
  0
LINE
  5
1EA
330
1A
100
AcDbEntity
  8
Edge.Cuts
  6
CONTINUOUS
100
AcDbLine
 10
5.3681372834645664
 20
-3.2082821653543308
 30
0
 11
5.3735918897637793
 21
-3.2119268110236221
 31
0
  0
LINE
  5
1EB
330
1A
100
AcDbEntity
  8
Edge.Cuts
  6
CONTINUOUS
100
AcDbLine
 10
5.3735918897637793
 20
-3.2119268110236221
 30
0
 11
5.3782306692913382
 21
-3.216565590551181
 31
0
  0
LINE
  5
1EC
330
1A
100
AcDbEntity
  8
Edge.Cuts
  6
CONTINUOUS
100
AcDbLine
 10
5.3782306692913382
 20
-3.216565590551181
 30
0
 11
5.38187531496063
 21
-3.2220201968503934
 31
0
  0
LINE
  5
1ED
330
1A
100
AcDbEntity
  8
Edge.Cuts
  6
CONTINUOUS
100
AcDbLine
 10
5.38187531496063
 20
-3.2220201968503934
 30
0
 11
5.384385787401575
 21
-3.228081023622047
 31
0
  0
LINE
  5
1EE
330
1A
100
AcDbEntity
  8
Edge.Cuts
  6
CONTINUOUS
100
AcDbLine
 10
5.384385787401575
 20
-3.228081023622047
 30
0
 11
5.3856656299212595
 21
-3.234515157480315
 31
0
  0
LINE
  5
1EF
330
1A
100
AcDbEntity
  8
Edge.Cuts
  6
CONTINUOUS
100
AcDbLine
 10
5.3856656299212595
 20
-3.234515157480315
 30
0
 11
5.3856656299212595
 21
-3.2410753937007875
 31
0
  0
LINE
  5
1F0
330
1A
100
AcDbEntity
  8
Edge.Cuts
  6
CONTINUOUS
100
AcDbLine
 10
5.3856656299212595
 20
-3.2410753937007875
 30
0
 11
5.384385787401575
 21
-3.2475095275590551
 31
0
  0
LINE
  5
1F1
330
1A
100
AcDbEntity
  8
Edge.Cuts
  6
CONTINUOUS
100
AcDbLine
 10
5.384385787401575
 20
-3.2475095275590551
 30
0
 11
5.38187531496063
 21
-3.2535703543307086
 31
0
  0
LINE
  5
1F2
330
1A
100
AcDbEntity
  8
Edge.Cuts
  6
CONTINUOUS
100
AcDbLine
 10
5.38187531496063
 20
-3.2535703543307086
 30
0
 11
5.3782306692913382
 21
-3.2590249606299211
 31
0
  0
LINE
  5
1F3
330
1A
100
AcDbEntity
  8
Edge.Cuts
  6
CONTINUOUS
100
AcDbLine
 10
5.3782306692913382
 20
-3.2590249606299211
 30
0
 11
5.3735918897637793
 21
-3.2636637401574804
 31
0
  0
LINE
  5
1F4
330
1A
100
AcDbEntity
  8
Edge.Cuts
  6
CONTINUOUS
100
AcDbLine
 10
5.3735918897637793
 20
-3.2636637401574804
 30
0
 11
5.3681372834645664
 21
-3.2673083858267717
 31
0
  0
LINE
  5
1F5
330
1A
100
AcDbEntity
  8
Edge.Cuts
  6
CONTINUOUS
100
AcDbLine
 10
5.3681372834645664
 20
-3.2673083858267717
 30
0
 11
5.3620764566929129
 21
-3.2698188582677163
 31
0
  0
LINE
  5
1F6
330
1A
100
AcDbEntity
  8
Edge.Cuts
  6
CONTINUOUS
100
AcDbLine
 10
5.3620764566929129
 20
-3.2698188582677163
 30
0
 11
5.3556423228346457
 21
-3.2710987007874013
 31
0
  0
LINE
  5
1F7
330
1A
100
AcDbEntity
  8
Edge.Cuts
  6
CONTINUOUS
100
AcDbLine
 10
5.3556423228346457
 20
-3.2710987007874013
 30
0
 11
5.3523622047244093
 21
-3.2712598425196848
 31
0
  0
LINE
  5
1F8
330
1A
100
AcDbEntity
  8
Edge.Cuts
  6
CONTINUOUS
100
AcDbLine
 10
5.3523622047244093
 20
-3.2712598425196848
 30
0
 11
5.2775590551181102
 21
-3.2712598425196848
 31
0
  0
LINE
  5
1F9
330
1A
100
AcDbEntity
  8
Edge.Cuts
  6
CONTINUOUS
100
AcDbLine
 10
5.2775590551181102
 20
-3.2712598425196848
 30
0
 11
5.2742789370078738
 21
-3.2710987007874013
 31
0
  0
LINE
  5
1FA
330
1A
100
AcDbEntity
  8
Edge.Cuts
  6
CONTINUOUS
100
AcDbLine
 10
5.2742789370078738
 20
-3.2710987007874013
 30
0
 11
5.2678448031496066
 21
-3.2698188582677163
 31
0
  0
LINE
  5
1FB
330
1A
100
AcDbEntity
  8
Edge.Cuts
  6
CONTINUOUS
100
AcDbLine
 10
5.2678448031496066
 20
-3.2698188582677163
 30
0
 11
5.261783976377953
 21
-3.2673083858267717
 31
0
  0
LINE
  5
1FC
330
1A
100
AcDbEntity
  8
Edge.Cuts
  6
CONTINUOUS
100
AcDbLine
 10
5.261783976377953
 20
-3.2673083858267717
 30
0
 11
5.2563293700787401
 21
-3.2636637401574804
 31
0
  0
LINE
  5
1FD
330
1A
100
AcDbEntity
  8
Edge.Cuts
  6
CONTINUOUS
100
AcDbLine
 10
5.2563293700787401
 20
-3.2636637401574804
 30
0
 11
5.2516905905511813
 21
-3.2590249606299211
 31
0
  0
LINE
  5
1FE
330
1A
100
AcDbEntity
  8
Edge.Cuts
  6
CONTINUOUS
100
AcDbLine
 10
5.2516905905511813
 20
-3.2590249606299211
 30
0
 11
5.2480459448818895
 21
-3.2535703543307086
 31
0
  0
LINE
  5
1FF
330
1A
100
AcDbEntity
  8
Edge.Cuts
  6
CONTINUOUS
100
AcDbLine
 10
5.2480459448818895
 20
-3.2535703543307086
 30
0
 11
5.2455354724409444
 21
-3.2475095275590551
 31
0
  0
LINE
  5
200
330
1A
100
AcDbEntity
  8
Edge.Cuts
  6
CONTINUOUS
100
AcDbLine
 10
5.2455354724409444
 20
-3.2475095275590551
 30
0
 11
5.2442556299212599
 21
-3.2410753937007875
 31
0
  0
LINE
  5
201
330
1A
100
AcDbEntity
  8
Edge.Cuts
  6
CONTINUOUS
100
AcDbLine
 10
5.2442556299212599
 20
-3.2410753937007875
 30
0
 11
5.2442556299212599
 21
-3.234515157480315
 31
0
  0
LINE
  5
202
330
1A
100
AcDbEntity
  8
Edge.Cuts
  6
CONTINUOUS
100
AcDbLine
 10
5.2442556299212599
 20
-3.234515157480315
 30
0
 11
5.2455354724409444
 21
-3.228081023622047
 31
0
  0
LINE
  5
203
330
1A
100
AcDbEntity
  8
Edge.Cuts
  6
CONTINUOUS
100
AcDbLine
 10
5.2455354724409444
 20
-3.228081023622047
 30
0
 11
5.2480459448818895
 21
-3.2220201968503934
 31
0
  0
LINE
  5
204
330
1A
100
AcDbEntity
  8
Edge.Cuts
  6
CONTINUOUS
100
AcDbLine
 10
5.2480459448818895
 20
-3.2220201968503934
 30
0
 11
5.2516905905511813
 21
-3.216565590551181
 31
0
  0
LINE
  5
205
330
1A
100
AcDbEntity
  8
Edge.Cuts
  6
CONTINUOUS
100
AcDbLine
 10
5.2516905905511813
 20
-3.216565590551181
 30
0
 11
5.2563293700787401
 21
-3.2119268110236221
 31
0
  0
LINE
  5
206
330
1A
100
AcDbEntity
  8
Edge.Cuts
  6
CONTINUOUS
100
AcDbLine
 10
5.2563293700787401
 20
-3.2119268110236221
 30
0
 11
5.261783976377953
 21
-3.2082821653543308
 31
0
  0
LINE
  5
207
330
1A
100
AcDbEntity
  8
Edge.Cuts
  6
CONTINUOUS
100
AcDbLine
 10
5.261783976377953
 20
-3.2082821653543308
 30
0
 11
5.2678448031496066
 21
-3.2057716929133857
 31
0
  0
LINE
  5
208
330
1A
100
AcDbEntity
  8
Edge.Cuts
  6
CONTINUOUS
100
AcDbLine
 10
5.2678448031496066
 20
-3.2057716929133857
 30
0
 11
5.2742789370078738
 21
-3.2044918503937008
 31
0
  0
LINE
  5
209
330
1A
100
AcDbEntity
  8
Edge.Cuts
  6
CONTINUOUS
100
AcDbLine
 10
5.2742789370078738
 20
-3.2044918503937008
 30
0
 11
5.2775590551181102
 21
-3.2043307086614172
 31
0
  0
LINE
  5
20A
330
1A
100
AcDbEntity
  8
Edge.Cuts
  6
CONTINUOUS
100
AcDbLine
 10
5.2775590551181102
 20
-3.2043307086614172
 30
0
 11
5.3523622047244093
 21
-3.2043307086614172
 31
0
  0
LINE
  5
20B
330
1A
100
AcDbEntity
  8
Edge.Cuts
  6
CONTINUOUS
100
AcDbLine
 10
5.3523622047244093
 20
-3.2043307086614172
 30
0
 11
5.3556423228346457
 21
-3.2044918503937008
 31
0
  0
LINE
  5
20C
330
1A
100
AcDbEntity
  8
Edge.Cuts
  6
CONTINUOUS
100
AcDbLine
 10
4.676508464566929
 20
-3.1044918503937007
 30
0
 11
4.6829425984251971
 21
-3.1057716929133856
 31
0
  0
LINE
  5
20D
330
1A
100
AcDbEntity
  8
Edge.Cuts
  6
CONTINUOUS
100
AcDbLine
 10
4.6829425984251971
 20
-3.1057716929133856
 30
0
 11
4.6890034251968506
 21
-3.1082821653543307
 31
0
  0
LINE
  5
20E
330
1A
100
AcDbEntity
  8
Edge.Cuts
  6
CONTINUOUS
100
AcDbLine
 10
4.6890034251968506
 20
-3.1082821653543307
 30
0
 11
4.6944580314960627
 21
-3.111926811023622
 31
0
  0
LINE
  5
20F
330
1A
100
AcDbEntity
  8
Edge.Cuts
  6
CONTINUOUS
100
AcDbLine
 10
4.6944580314960627
 20
-3.111926811023622
 30
0
 11
4.6990968110236215
 21
-3.1165655905511809
 31
0
  0
LINE
  5
210
330
1A
100
AcDbEntity
  8
Edge.Cuts
  6
CONTINUOUS
100
AcDbLine
 10
4.6990968110236215
 20
-3.1165655905511809
 30
0
 11
4.7027414566929133
 21
-3.1220201968503938
 31
0
  0
LINE
  5
211
330
1A
100
AcDbEntity
  8
Edge.Cuts
  6
CONTINUOUS
100
AcDbLine
 10
4.7027414566929133
 20
-3.1220201968503938
 30
0
 11
4.7052519291338584
 21
-3.1280810236220473
 31
0
  0
LINE
  5
212
330
1A
100
AcDbEntity
  8
Edge.Cuts
  6
CONTINUOUS
100
AcDbLine
 10
4.7052519291338584
 20
-3.1280810236220473
 30
0
 11
4.7065317716535429
 21
-3.134515157480315
 31
0
  0
LINE
  5
213
330
1A
100
AcDbEntity
  8
Edge.Cuts
  6
CONTINUOUS
100
AcDbLine
 10
4.7065317716535429
 20
-3.134515157480315
 30
0
 11
4.7065317716535429
 21
-3.1410753937007874
 31
0
  0
LINE
  5
214
330
1A
100
AcDbEntity
  8
Edge.Cuts
  6
CONTINUOUS
100
AcDbLine
 10
4.7065317716535429
 20
-3.1410753937007874
 30
0
 11
4.7052519291338584
 21
-3.147509527559055
 31
0
  0
LINE
  5
215
330
1A
100
AcDbEntity
  8
Edge.Cuts
  6
CONTINUOUS
100
AcDbLine
 10
4.7052519291338584
 20
-3.147509527559055
 30
0
 11
4.7027414566929133
 21
-3.1535703543307085
 31
0
  0
LINE
  5
216
330
1A
100
AcDbEntity
  8
Edge.Cuts
  6
CONTINUOUS
100
AcDbLine
 10
4.7027414566929133
 20
-3.1535703543307085
 30
0
 11
4.6990968110236215
 21
-3.159024960629921
 31
0
  0
LINE
  5
217
330
1A
100
AcDbEntity
  8
Edge.Cuts
  6
CONTINUOUS
100
AcDbLine
 10
4.6990968110236215
 20
-3.159024960629921
 30
0
 11
4.6944580314960627
 21
-3.1636637401574803
 31
0
  0
LINE
  5
218
330
1A
100
AcDbEntity
  8
Edge.Cuts
  6
CONTINUOUS
100
AcDbLine
 10
4.6944580314960627
 20
-3.1636637401574803
 30
0
 11
4.6890034251968506
 21
-3.1673083858267717
 31
0
  0
LINE
  5
219
330
1A
100
AcDbEntity
  8
Edge.Cuts
  6
CONTINUOUS
100
AcDbLine
 10
4.6890034251968506
 20
-3.1673083858267717
 30
0
 11
4.6829425984251971
 21
-3.1698188582677163
 31
0
  0
LINE
  5
21A
330
1A
100
AcDbEntity
  8
Edge.Cuts
  6
CONTINUOUS
100
AcDbLine
 10
4.6829425984251971
 20
-3.1698188582677163
 30
0
 11
4.676508464566929
 21
-3.1710987007874016
 31
0
  0
LINE
  5
21B
330
1A
100
AcDbEntity
  8
Edge.Cuts
  6
CONTINUOUS
100
AcDbLine
 10
4.676508464566929
 20
-3.1710987007874016
 30
0
 11
4.6732283464566926
 21
-3.1712598425196852
 31
0
  0
LINE
  5
21C
330
1A
100
AcDbEntity
  8
Edge.Cuts
  6
CONTINUOUS
100
AcDbLine
 10
4.6732283464566926
 20
-3.1712598425196852
 30
0
 11
4.5984251968503935
 21
-3.1712598425196852
 31
0
  0
LINE
  5
21D
330
1A
100
AcDbEntity
  8
Edge.Cuts
  6
CONTINUOUS
100
AcDbLine
 10
4.5984251968503935
 20
-3.1712598425196852
 30
0
 11
4.5951450787401571
 21
-3.1710987007874016
 31
0
  0
LINE
  5
21E
330
1A
100
AcDbEntity
  8
Edge.Cuts
  6
CONTINUOUS
100
AcDbLine
 10
4.5951450787401571
 20
-3.1710987007874016
 30
0
 11
4.5887109448818899
 21
-3.1698188582677163
 31
0
  0
LINE
  5
21F
330
1A
100
AcDbEntity
  8
Edge.Cuts
  6
CONTINUOUS
100
AcDbLine
 10
4.5887109448818899
 20
-3.1698188582677163
 30
0
 11
4.5826501181102364
 21
-3.1673083858267717
 31
0
  0
LINE
  5
220
330
1A
100
AcDbEntity
  8
Edge.Cuts
  6
CONTINUOUS
100
AcDbLine
 10
4.5826501181102364
 20
-3.1673083858267717
 30
0
 11
4.5771955118110235
 21
-3.1636637401574803
 31
0
  0
LINE
  5
221
330
1A
100
AcDbEntity
  8
Edge.Cuts
  6
CONTINUOUS
100
AcDbLine
 10
4.5771955118110235
 20
-3.1636637401574803
 30
0
 11
4.5725567322834646
 21
-3.159024960629921
 31
0
  0
LINE
  5
222
330
1A
100
AcDbEntity
  8
Edge.Cuts
  6
CONTINUOUS
100
AcDbLine
 10
4.5725567322834646
 20
-3.159024960629921
 30
0
 11
4.5689120866141728
 21
-3.1535703543307085
 31
0
  0
LINE
  5
223
330
1A
100
AcDbEntity
  8
Edge.Cuts
  6
CONTINUOUS
100
AcDbLine
 10
4.5689120866141728
 20
-3.1535703543307085
 30
0
 11
4.5664016141732287
 21
-3.147509527559055
 31
0
  0
LINE
  5
224
330
1A
100
AcDbEntity
  8
Edge.Cuts
  6
CONTINUOUS
100
AcDbLine
 10
4.5664016141732287
 20
-3.147509527559055
 30
0
 11
4.5651217716535433
 21
-3.1410753937007874
 31
0
  0
LINE
  5
225
330
1A
100
AcDbEntity
  8
Edge.Cuts
  6
CONTINUOUS
100
AcDbLine
 10
4.5651217716535433
 20
-3.1410753937007874
 30
0
 11
4.5651217716535433
 21
-3.134515157480315
 31
0
  0
LINE
  5
226
330
1A
100
AcDbEntity
  8
Edge.Cuts
  6
CONTINUOUS
100
AcDbLine
 10
4.5651217716535433
 20
-3.134515157480315
 30
0
 11
4.5664016141732287
 21
-3.1280810236220473
 31
0
  0
LINE
  5
227
330
1A
100
AcDbEntity
  8
Edge.Cuts
  6
CONTINUOUS
100
AcDbLine
 10
4.5664016141732287
 20
-3.1280810236220473
 30
0
 11
4.5689120866141728
 21
-3.1220201968503938
 31
0
  0
LINE
  5
228
330
1A
100
AcDbEntity
  8
Edge.Cuts
  6
CONTINUOUS
100
AcDbLine
 10
4.5689120866141728
 20
-3.1220201968503938
 30
0
 11
4.5725567322834646
 21
-3.1165655905511809
 31
0
  0
LINE
  5
229
330
1A
100
AcDbEntity
  8
Edge.Cuts
  6
CONTINUOUS
100
AcDbLine
 10
4.5725567322834646
 20
-3.1165655905511809
 30
0
 11
4.5771955118110235
 21
-3.111926811023622
 31
0
  0
LINE
  5
22A
330
1A
100
AcDbEntity
  8
Edge.Cuts
  6
CONTINUOUS
100
AcDbLine
 10
4.5771955118110235
 20
-3.111926811023622
 30
0
 11
4.5826501181102364
 21
-3.1082821653543307
 31
0
  0
LINE
  5
22B
330
1A
100
AcDbEntity
  8
Edge.Cuts
  6
CONTINUOUS
100
AcDbLine
 10
4.5826501181102364
 20
-3.1082821653543307
 30
0
 11
4.5887109448818899
 21
-3.1057716929133856
 31
0
  0
LINE
  5
22C
330
1A
100
AcDbEntity
  8
Edge.Cuts
  6
CONTINUOUS
100
AcDbLine
 10
4.5887109448818899
 20
-3.1057716929133856
 30
0
 11
4.5951450787401571
 21
-3.1044918503937007
 31
0
  0
LINE
  5
22D
330
1A
100
AcDbEntity
  8
Edge.Cuts
  6
CONTINUOUS
100
AcDbLine
 10
4.5951450787401571
 20
-3.1044918503937007
 30
0
 11
4.5984251968503935
 21
-3.1043307086614171
 31
0
  0
LINE
  5
22E
330
1A
100
AcDbEntity
  8
Edge.Cuts
  6
CONTINUOUS
100
AcDbLine
 10
4.5984251968503935
 20
-3.1043307086614171
 30
0
 11
4.6732283464566926
 21
-3.1043307086614171
 31
0
  0
LINE
  5
22F
330
1A
100
AcDbEntity
  8
Edge.Cuts
  6
CONTINUOUS
100
AcDbLine
 10
4.6732283464566926
 20
-3.1043307086614171
 30
0
 11
4.676508464566929
 21
-3.1044918503937007
 31
0
  0
LINE
  5
230
330
1A
100
AcDbEntity
  8
Edge.Cuts
  6
CONTINUOUS
100
AcDbLine
 10
4.676508464566929
 20
-3.0044918503937006
 30
0
 11
4.6829425984251971
 21
-3.005771692913386
 31
0
  0
LINE
  5
231
330
1A
100
AcDbEntity
  8
Edge.Cuts
  6
CONTINUOUS
100
AcDbLine
 10
4.6829425984251971
 20
-3.005771692913386
 30
0
 11
4.6890034251968506
 21
-3.0082821653543306
 31
0
  0
LINE
  5
232
330
1A
100
AcDbEntity
  8
Edge.Cuts
  6
CONTINUOUS
100
AcDbLine
 10
4.6890034251968506
 20
-3.0082821653543306
 30
0
 11
4.6944580314960627
 21
-3.0119268110236219
 31
0
  0
LINE
  5
233
330
1A
100
AcDbEntity
  8
Edge.Cuts
  6
CONTINUOUS
100
AcDbLine
 10
4.6944580314960627
 20
-3.0119268110236219
 30
0
 11
4.6990968110236215
 21
-3.0165655905511812
 31
0
  0
LINE
  5
234
330
1A
100
AcDbEntity
  8
Edge.Cuts
  6
CONTINUOUS
100
AcDbLine
 10
4.6990968110236215
 20
-3.0165655905511812
 30
0
 11
4.7027414566929133
 21
-3.0220201968503937
 31
0
  0
LINE
  5
235
330
1A
100
AcDbEntity
  8
Edge.Cuts
  6
CONTINUOUS
100
AcDbLine
 10
4.7027414566929133
 20
-3.0220201968503937
 30
0
 11
4.7052519291338584
 21
-3.0280810236220472
 31
0
  0
LINE
  5
236
330
1A
100
AcDbEntity
  8
Edge.Cuts
  6
CONTINUOUS
100
AcDbLine
 10
4.7052519291338584
 20
-3.0280810236220472
 30
0
 11
4.7065317716535429
 21
-3.0345151574803149
 31
0
  0
LINE
  5
237
330
1A
100
AcDbEntity
  8
Edge.Cuts
  6
CONTINUOUS
100
AcDbLine
 10
4.7065317716535429
 20
-3.0345151574803149
 30
0
 11
4.7065317716535429
 21
-3.0410753937007873
 31
0
  0
LINE
  5
238
330
1A
100
AcDbEntity
  8
Edge.Cuts
  6
CONTINUOUS
100
AcDbLine
 10
4.7065317716535429
 20
-3.0410753937007873
 30
0
 11
4.7052519291338584
 21
-3.0475095275590549
 31
0
  0
LINE
  5
239
330
1A
100
AcDbEntity
  8
Edge.Cuts
  6
CONTINUOUS
100
AcDbLine
 10
4.7052519291338584
 20
-3.0475095275590549
 30
0
 11
4.7027414566929133
 21
-3.0535703543307084
 31
0
  0
LINE
  5
23A
330
1A
100
AcDbEntity
  8
Edge.Cuts
  6
CONTINUOUS
100
AcDbLine
 10
4.7027414566929133
 20
-3.0535703543307084
 30
0
 11
4.6990968110236215
 21
-3.0590249606299214
 31
0
  0
LINE
  5
23B
330
1A
100
AcDbEntity
  8
Edge.Cuts
  6
CONTINUOUS
100
AcDbLine
 10
4.6990968110236215
 20
-3.0590249606299214
 30
0
 11
4.6944580314960627
 21
-3.0636637401574802
 31
0
  0
LINE
  5
23C
330
1A
100
AcDbEntity
  8
Edge.Cuts
  6
CONTINUOUS
100
AcDbLine
 10
4.6944580314960627
 20
-3.0636637401574802
 30
0
 11
4.6890034251968506
 21
-3.0673083858267716
 31
0
  0
LINE
  5
23D
330
1A
100
AcDbEntity
  8
Edge.Cuts
  6
CONTINUOUS
100
AcDbLine
 10
4.6890034251968506
 20
-3.0673083858267716
 30
0
 11
4.6829425984251971
 21
-3.0698188582677166
 31
0
  0
LINE
  5
23E
330
1A
100
AcDbEntity
  8
Edge.Cuts
  6
CONTINUOUS
100
AcDbLine
 10
4.6829425984251971
 20
-3.0698188582677166
 30
0
 11
4.676508464566929
 21
-3.0710987007874015
 31
0
  0
LINE
  5
23F
330
1A
100
AcDbEntity
  8
Edge.Cuts
  6
CONTINUOUS
100
AcDbLine
 10
4.676508464566929
 20
-3.0710987007874015
 30
0
 11
4.6732283464566926
 21
-3.0712598425196851
 31
0
  0
LINE
  5
240
330
1A
100
AcDbEntity
  8
Edge.Cuts
  6
CONTINUOUS
100
AcDbLine
 10
4.6732283464566926
 20
-3.0712598425196851
 30
0
 11
4.5984251968503935
 21
-3.0712598425196851
 31
0
  0
LINE
  5
241
330
1A
100
AcDbEntity
  8
Edge.Cuts
  6
CONTINUOUS
100
AcDbLine
 10
4.5984251968503935
 20
-3.0712598425196851
 30
0
 11
4.5951450787401571
 21
-3.0710987007874015
 31
0
  0
LINE
  5
242
330
1A
100
AcDbEntity
  8
Edge.Cuts
  6
CONTINUOUS
100
AcDbLine
 10
4.5951450787401571
 20
-3.0710987007874015
 30
0
 11
4.5887109448818899
 21
-3.0698188582677166
 31
0
  0
LINE
  5
243
330
1A
100
AcDbEntity
  8
Edge.Cuts
  6
CONTINUOUS
100
AcDbLine
 10
4.5887109448818899
 20
-3.0698188582677166
 30
0
 11
4.5826501181102364
 21
-3.0673083858267716
 31
0
  0
LINE
  5
244
330
1A
100
AcDbEntity
  8
Edge.Cuts
  6
CONTINUOUS
100
AcDbLine
 10
4.5826501181102364
 20
-3.0673083858267716
 30
0
 11
4.5771955118110235
 21
-3.0636637401574802
 31
0
  0
LINE
  5
245
330
1A
100
AcDbEntity
  8
Edge.Cuts
  6
CONTINUOUS
100
AcDbLine
 10
4.5771955118110235
 20
-3.0636637401574802
 30
0
 11
4.5725567322834646
 21
-3.0590249606299214
 31
0
  0
LINE
  5
246
330
1A
100
AcDbEntity
  8
Edge.Cuts
  6
CONTINUOUS
100
AcDbLine
 10
4.5725567322834646
 20
-3.0590249606299214
 30
0
 11
4.5689120866141728
 21
-3.0535703543307084
 31
0
  0
LINE
  5
247
330
1A
100
AcDbEntity
  8
Edge.Cuts
  6
CONTINUOUS
100
AcDbLine
 10
4.5689120866141728
 20
-3.0535703543307084
 30
0
 11
4.5664016141732287
 21
-3.0475095275590549
 31
0
  0
LINE
  5
248
330
1A
100
AcDbEntity
  8
Edge.Cuts
  6
CONTINUOUS
100
AcDbLine
 10
4.5664016141732287
 20
-3.0475095275590549
 30
0
 11
4.5651217716535433
 21
-3.0410753937007873
 31
0
  0
LINE
  5
249
330
1A
100
AcDbEntity
  8
Edge.Cuts
  6
CONTINUOUS
100
AcDbLine
 10
4.5651217716535433
 20
-3.0410753937007873
 30
0
 11
4.5651217716535433
 21
-3.0345151574803149
 31
0
  0
LINE
  5
24A
330
1A
100
AcDbEntity
  8
Edge.Cuts
  6
CONTINUOUS
100
AcDbLine
 10
4.5651217716535433
 20
-3.0345151574803149
 30
0
 11
4.5664016141732287
 21
-3.0280810236220472
 31
0
  0
LINE
  5
24B
330
1A
100
AcDbEntity
  8
Edge.Cuts
  6
CONTINUOUS
100
AcDbLine
 10
4.5664016141732287
 20
-3.0280810236220472
 30
0
 11
4.5689120866141728
 21
-3.0220201968503937
 31
0
  0
LINE
  5
24C
330
1A
100
AcDbEntity
  8
Edge.Cuts
  6
CONTINUOUS
100
AcDbLine
 10
4.5689120866141728
 20
-3.0220201968503937
 30
0
 11
4.5725567322834646
 21
-3.0165655905511812
 31
0
  0
LINE
  5
24D
330
1A
100
AcDbEntity
  8
Edge.Cuts
  6
CONTINUOUS
100
AcDbLine
 10
4.5725567322834646
 20
-3.0165655905511812
 30
0
 11
4.5771955118110235
 21
-3.0119268110236219
 31
0
  0
LINE
  5
24E
330
1A
100
AcDbEntity
  8
Edge.Cuts
  6
CONTINUOUS
100
AcDbLine
 10
4.5771955118110235
 20
-3.0119268110236219
 30
0
 11
4.5826501181102364
 21
-3.0082821653543306
 31
0
  0
LINE
  5
24F
330
1A
100
AcDbEntity
  8
Edge.Cuts
  6
CONTINUOUS
100
AcDbLine
 10
4.5826501181102364
 20
-3.0082821653543306
 30
0
 11
4.5887109448818899
 21
-3.005771692913386
 31
0
  0
LINE
  5
250
330
1A
100
AcDbEntity
  8
Edge.Cuts
  6
CONTINUOUS
100
AcDbLine
 10
4.5887109448818899
 20
-3.005771692913386
 30
0
 11
4.5951450787401571
 21
-3.0044918503937006
 31
0
  0
LINE
  5
251
330
1A
100
AcDbEntity
  8
Edge.Cuts
  6
CONTINUOUS
100
AcDbLine
 10
4.5951450787401571
 20
-3.0044918503937006
 30
0
 11
4.5984251968503935
 21
-3.004330708661417
 31
0
  0
LINE
  5
252
330
1A
100
AcDbEntity
  8
Edge.Cuts
  6
CONTINUOUS
100
AcDbLine
 10
4.5984251968503935
 20
-3.004330708661417
 30
0
 11
4.6732283464566926
 21
-3.004330708661417
 31
0
  0
LINE
  5
253
330
1A
100
AcDbEntity
  8
Edge.Cuts
  6
CONTINUOUS
100
AcDbLine
 10
4.6732283464566926
 20
-3.004330708661417
 30
0
 11
4.676508464566929
 21
-3.0044918503937006
 31
0
  0
LINE
  5
254
330
1A
100
AcDbEntity
  8
Edge.Cuts
  6
CONTINUOUS
100
AcDbLine
 10
6.8427384645669287
 20
-2.7904272834645667
 30
0
 11
6.8438246850393698
 21
-2.7915135039370078
 31
0
  0
LINE
  5
255
330
1A
100
AcDbEntity
  8
Edge.Cuts
  6
CONTINUOUS
100
AcDbLine
 10
6.8438246850393698
 20
-2.7915135039370078
 30
0
 11
6.8444125590551179
 21
-2.7929327165354332
 31
0
  0
LINE
  5
256
330
1A
100
AcDbEntity
  8
Edge.Cuts
  6
CONTINUOUS
100
AcDbLine
 10
6.8444125590551179
 20
-2.7929327165354332
 30
0
 11
6.8444881889763778
 21
-2.7937007874015749
 31
0
  0
LINE
  5
257
330
1A
100
AcDbEntity
  8
Edge.Cuts
  6
CONTINUOUS
100
AcDbLine
 10
6.8444881889763778
 20
-2.7937007874015749
 30
0
 11
6.8444881889763778
 21
-2.8231723622047245
 31
0
  0
LINE
  5
258
330
1A
100
AcDbEntity
  8
Edge.Cuts
  6
CONTINUOUS
100
AcDbLine
 10
6.8444881889763778
 20
-2.8231723622047245
 30
0
 11
7.0697130314960628
 21
-3.0483972047244094
 31
0
  0
LINE
  5
259
330
1A
100
AcDbEntity
  8
Edge.Cuts
  6
CONTINUOUS
100
AcDbLine
 10
7.0697130314960628
 20
-3.0483972047244094
 30
0
 11
7.0702026377952754
 21
-3.0489938188976375
 31
0
  0
LINE
  5
25A
330
1A
100
AcDbEntity
  8
Edge.Cuts
  6
CONTINUOUS
100
AcDbLine
 10
7.0702026377952754
 20
-3.0489938188976375
 30
0
 11
7.0707905118110235
 21
-3.0504130314960629
 31
0
  0
LINE
  5
25B
330
1A
100
AcDbEntity
  8
Edge.Cuts
  6
CONTINUOUS
100
AcDbLine
 10
7.0707905118110235
 20
-3.0504130314960629
 30
0
 11
7.0707905118110235
 21
-3.0519491732283464
 31
0
  0
LINE
  5
25C
330
1A
100
AcDbEntity
  8
Edge.Cuts
  6
CONTINUOUS
100
AcDbLine
 10
7.0707905118110235
 20
-3.0519491732283464
 30
0
 11
7.0702026377952754
 21
-3.0533683858267717
 31
0
  0
LINE
  5
25D
330
1A
100
AcDbEntity
  8
Edge.Cuts
  6
CONTINUOUS
100
AcDbLine
 10
7.0702026377952754
 20
-3.0533683858267717
 30
0
 11
7.0691164173228342
 21
-3.0544546062992124
 31
0
  0
LINE
  5
25E
330
1A
100
AcDbEntity
  8
Edge.Cuts
  6
CONTINUOUS
100
AcDbLine
 10
7.0691164173228342
 20
-3.0544546062992124
 30
0
 11
7.0676972047244089
 21
-3.0550424803149605
 31
0
  0
LINE
  5
25F
330
1A
100
AcDbEntity
  8
Edge.Cuts
  6
CONTINUOUS
100
AcDbLine
 10
7.0676972047244089
 20
-3.0550424803149605
 30
0
 11
7.0661610629921254
 21
-3.0550424803149605
 31
0
  0
LINE
  5
260
330
1A
100
AcDbEntity
  8
Edge.Cuts
  6
CONTINUOUS
100
AcDbLine
 10
7.0661610629921254
 20
-3.0550424803149605
 30
0
 11
7.064741850393701
 21
-3.0544546062992124
 31
0
  0
LINE
  5
261
330
1A
100
AcDbEntity
  8
Edge.Cuts
  6
CONTINUOUS
100
AcDbLine
 10
7.064741850393701
 20
-3.0544546062992124
 30
0
 11
7.0641452362204724
 21
-3.0539649999999998
 31
0
  0
LINE
  5
262
330
1A
100
AcDbEntity
  8
Edge.Cuts
  6
CONTINUOUS
100
AcDbLine
 10
7.0641452362204724
 20
-3.0539649999999998
 30
0
 11
6.8377672834645669
 21
-2.8275870472440943
 31
0
  0
LINE
  5
263
330
1A
100
AcDbEntity
  8
Edge.Cuts
  6
CONTINUOUS
100
AcDbLine
 10
6.8377672834645669
 20
-2.8275870472440943
 30
0
 11
6.8372776771653543
 21
-2.8269904330708662
 31
0
  0
LINE
  5
264
330
1A
100
AcDbEntity
  8
Edge.Cuts
  6
CONTINUOUS
100
AcDbLine
 10
6.8372776771653543
 20
-2.8269904330708662
 30
0
 11
6.8366898031496062
 21
-2.8255712204724408
 31
0
  0
LINE
  5
265
330
1A
100
AcDbEntity
  8
Edge.Cuts
  6
CONTINUOUS
100
AcDbLine
 10
6.8366898031496062
 20
-2.8255712204724408
 30
0
 11
6.8366141732283463
 21
-2.8248031496062991
 31
0
  0
LINE
  5
266
330
1A
100
AcDbEntity
  8
Edge.Cuts
  6
CONTINUOUS
100
AcDbLine
 10
6.8366141732283463
 20
-2.8248031496062991
 30
0
 11
6.8366141732283463
 21
-2.7937007874015749
 31
0
  0
LINE
  5
267
330
1A
100
AcDbEntity
  8
Edge.Cuts
  6
CONTINUOUS
100
AcDbLine
 10
6.8366141732283463
 20
-2.7937007874015749
 30
0
 11
6.8366898031496062
 21
-2.7929327165354332
 31
0
  0
LINE
  5
268
330
1A
100
AcDbEntity
  8
Edge.Cuts
  6
CONTINUOUS
100
AcDbLine
 10
6.8366898031496062
 20
-2.7929327165354332
 30
0
 11
6.8372776771653543
 21
-2.7915135039370078
 31
0
  0
LINE
  5
269
330
1A
100
AcDbEntity
  8
Edge.Cuts
  6
CONTINUOUS
100
AcDbLine
 10
6.8372776771653543
 20
-2.7915135039370078
 30
0
 11
6.8383638976377954
 21
-2.7904272834645667
 31
0
  0
LINE
  5
26A
330
1A
100
AcDbEntity
  8
Edge.Cuts
  6
CONTINUOUS
100
AcDbLine
 10
6.8383638976377954
 20
-2.7904272834645667
 30
0
 11
6.8397831102362199
 21
-2.789839409448819
 31
0
  0
LINE
  5
26B
330
1A
100
AcDbEntity
  8
Edge.Cuts
  6
CONTINUOUS
100
AcDbLine
 10
6.8397831102362199
 20
-2.789839409448819
 30
0
 11
6.8413192519685042
 21
-2.789839409448819
 31
0
  0
LINE
  5
26C
330
1A
100
AcDbEntity
  8
Edge.Cuts
  6
CONTINUOUS
100
AcDbLine
 10
6.8413192519685042
 20
-2.789839409448819
 30
0
 11
6.8427384645669287
 21
-2.7904272834645667
 31
0
  0
LINE
  5
26D
330
1A
100
AcDbEntity
  8
Edge.Cuts
  6
CONTINUOUS
100
AcDbLine
 10
4.676508464566929
 20
-2.9044918503937005
 30
0
 11
4.6829425984251971
 21
-2.9057716929133859
 31
0
  0
LINE
  5
26E
330
1A
100
AcDbEntity
  8
Edge.Cuts
  6
CONTINUOUS
100
AcDbLine
 10
4.6829425984251971
 20
-2.9057716929133859
 30
0
 11
4.6890034251968506
 21
-2.9082821653543305
 31
0
  0
LINE
  5
26F
330
1A
100
AcDbEntity
  8
Edge.Cuts
  6
CONTINUOUS
100
AcDbLine
 10
4.6890034251968506
 20
-2.9082821653543305
 30
0
 11
4.6944580314960627
 21
-2.9119268110236218
 31
0
  0
LINE
  5
270
330
1A
100
AcDbEntity
  8
Edge.Cuts
  6
CONTINUOUS
100
AcDbLine
 10
4.6944580314960627
 20
-2.9119268110236218
 30
0
 11
4.6990968110236215
 21
-2.9165655905511811
 31
0
  0
LINE
  5
271
330
1A
100
AcDbEntity
  8
Edge.Cuts
  6
CONTINUOUS
100
AcDbLine
 10
4.6990968110236215
 20
-2.9165655905511811
 30
0
 11
4.7027414566929133
 21
-2.9220201968503936
 31
0
  0
LINE
  5
272
330
1A
100
AcDbEntity
  8
Edge.Cuts
  6
CONTINUOUS
100
AcDbLine
 10
4.7027414566929133
 20
-2.9220201968503936
 30
0
 11
4.7052519291338584
 21
-2.9280810236220471
 31
0
  0
LINE
  5
273
330
1A
100
AcDbEntity
  8
Edge.Cuts
  6
CONTINUOUS
100
AcDbLine
 10
4.7052519291338584
 20
-2.9280810236220471
 30
0
 11
4.7065317716535429
 21
-2.9345151574803148
 31
0
  0
LINE
  5
274
330
1A
100
AcDbEntity
  8
Edge.Cuts
  6
CONTINUOUS
100
AcDbLine
 10
4.7065317716535429
 20
-2.9345151574803148
 30
0
 11
4.7065317716535429
 21
-2.9410753937007872
 31
0
  0
LINE
  5
275
330
1A
100
AcDbEntity
  8
Edge.Cuts
  6
CONTINUOUS
100
AcDbLine
 10
4.7065317716535429
 20
-2.9410753937007872
 30
0
 11
4.7052519291338584
 21
-2.9475095275590553
 31
0
  0
LINE
  5
276
330
1A
100
AcDbEntity
  8
Edge.Cuts
  6
CONTINUOUS
100
AcDbLine
 10
4.7052519291338584
 20
-2.9475095275590553
 30
0
 11
4.7027414566929133
 21
-2.9535703543307088
 31
0
  0
LINE
  5
277
330
1A
100
AcDbEntity
  8
Edge.Cuts
  6
CONTINUOUS
100
AcDbLine
 10
4.7027414566929133
 20
-2.9535703543307088
 30
0
 11
4.6990968110236215
 21
-2.9590249606299213
 31
0
  0
LINE
  5
278
330
1A
100
AcDbEntity
  8
Edge.Cuts
  6
CONTINUOUS
100
AcDbLine
 10
4.6990968110236215
 20
-2.9590249606299213
 30
0
 11
4.6944580314960627
 21
-2.9636637401574801
 31
0
  0
LINE
  5
279
330
1A
100
AcDbEntity
  8
Edge.Cuts
  6
CONTINUOUS
100
AcDbLine
 10
4.6944580314960627
 20
-2.9636637401574801
 30
0
 11
4.6890034251968506
 21
-2.9673083858267715
 31
0
  0
LINE
  5
27A
330
1A
100
AcDbEntity
  8
Edge.Cuts
  6
CONTINUOUS
100
AcDbLine
 10
4.6890034251968506
 20
-2.9673083858267715
 30
0
 11
4.6829425984251971
 21
-2.9698188582677165
 31
0
  0
LINE
  5
27B
330
1A
100
AcDbEntity
  8
Edge.Cuts
  6
CONTINUOUS
100
AcDbLine
 10
4.6829425984251971
 20
-2.9698188582677165
 30
0
 11
4.676508464566929
 21
-2.9710987007874015
 31
0
  0
LINE
  5
27C
330
1A
100
AcDbEntity
  8
Edge.Cuts
  6
CONTINUOUS
100
AcDbLine
 10
4.676508464566929
 20
-2.9710987007874015
 30
0
 11
4.6732283464566926
 21
-2.971259842519685
 31
0
  0
LINE
  5
27D
330
1A
100
AcDbEntity
  8
Edge.Cuts
  6
CONTINUOUS
100
AcDbLine
 10
4.6732283464566926
 20
-2.971259842519685
 30
0
 11
4.5984251968503935
 21
-2.971259842519685
 31
0
  0
LINE
  5
27E
330
1A
100
AcDbEntity
  8
Edge.Cuts
  6
CONTINUOUS
100
AcDbLine
 10
4.5984251968503935
 20
-2.971259842519685
 30
0
 11
4.5951450787401571
 21
-2.9710987007874015
 31
0
  0
LINE
  5
27F
330
1A
100
AcDbEntity
  8
Edge.Cuts
  6
CONTINUOUS
100
AcDbLine
 10
4.5951450787401571
 20
-2.9710987007874015
 30
0
 11
4.5887109448818899
 21
-2.9698188582677165
 31
0
  0
LINE
  5
280
330
1A
100
AcDbEntity
  8
Edge.Cuts
  6
CONTINUOUS
100
AcDbLine
 10
4.5887109448818899
 20
-2.9698188582677165
 30
0
 11
4.5826501181102364
 21
-2.9673083858267715
 31
0
  0
LINE
  5
281
330
1A
100
AcDbEntity
  8
Edge.Cuts
  6
CONTINUOUS
100
AcDbLine
 10
4.5826501181102364
 20
-2.9673083858267715
 30
0
 11
4.5771955118110235
 21
-2.9636637401574801
 31
0
  0
LINE
  5
282
330
1A
100
AcDbEntity
  8
Edge.Cuts
  6
CONTINUOUS
100
AcDbLine
 10
4.5771955118110235
 20
-2.9636637401574801
 30
0
 11
4.5725567322834646
 21
-2.9590249606299213
 31
0
  0
LINE
  5
283
330
1A
100
AcDbEntity
  8
Edge.Cuts
  6
CONTINUOUS
100
AcDbLine
 10
4.5725567322834646
 20
-2.9590249606299213
 30
0
 11
4.5689120866141728
 21
-2.9535703543307088
 31
0
  0
LINE
  5
284
330
1A
100
AcDbEntity
  8
Edge.Cuts
  6
CONTINUOUS
100
AcDbLine
 10
4.5689120866141728
 20
-2.9535703543307088
 30
0
 11
4.5664016141732287
 21
-2.9475095275590553
 31
0
  0
LINE
  5
285
330
1A
100
AcDbEntity
  8
Edge.Cuts
  6
CONTINUOUS
100
AcDbLine
 10
4.5664016141732287
 20
-2.9475095275590553
 30
0
 11
4.5651217716535433
 21
-2.9410753937007872
 31
0
  0
LINE
  5
286
330
1A
100
AcDbEntity
  8
Edge.Cuts
  6
CONTINUOUS
100
AcDbLine
 10
4.5651217716535433
 20
-2.9410753937007872
 30
0
 11
4.5651217716535433
 21
-2.9345151574803148
 31
0
  0
LINE
  5
287
330
1A
100
AcDbEntity
  8
Edge.Cuts
  6
CONTINUOUS
100
AcDbLine
 10
4.5651217716535433
 20
-2.9345151574803148
 30
0
 11
4.5664016141732287
 21
-2.9280810236220471
 31
0
  0
LINE
  5
288
330
1A
100
AcDbEntity
  8
Edge.Cuts
  6
CONTINUOUS
100
AcDbLine
 10
4.5664016141732287
 20
-2.9280810236220471
 30
0
 11
4.5689120866141728
 21
-2.9220201968503936
 31
0
  0
LINE
  5
289
330
1A
100
AcDbEntity
  8
Edge.Cuts
  6
CONTINUOUS
100
AcDbLine
 10
4.5689120866141728
 20
-2.9220201968503936
 30
0
 11
4.5725567322834646
 21
-2.9165655905511811
 31
0
  0
LINE
  5
28A
330
1A
100
AcDbEntity
  8
Edge.Cuts
  6
CONTINUOUS
100
AcDbLine
 10
4.5725567322834646
 20
-2.9165655905511811
 30
0
 11
4.5771955118110235
 21
-2.9119268110236218
 31
0
  0
LINE
  5
28B
330
1A
100
AcDbEntity
  8
Edge.Cuts
  6
CONTINUOUS
100
AcDbLine
 10
4.5771955118110235
 20
-2.9119268110236218
 30
0
 11
4.5826501181102364
 21
-2.9082821653543305
 31
0
  0
LINE
  5
28C
330
1A
100
AcDbEntity
  8
Edge.Cuts
  6
CONTINUOUS
100
AcDbLine
 10
4.5826501181102364
 20
-2.9082821653543305
 30
0
 11
4.5887109448818899
 21
-2.9057716929133859
 31
0
  0
LINE
  5
28D
330
1A
100
AcDbEntity
  8
Edge.Cuts
  6
CONTINUOUS
100
AcDbLine
 10
4.5887109448818899
 20
-2.9057716929133859
 30
0
 11
4.5951450787401571
 21
-2.9044918503937005
 31
0
  0
LINE
  5
28E
330
1A
100
AcDbEntity
  8
Edge.Cuts
  6
CONTINUOUS
100
AcDbLine
 10
4.5951450787401571
 20
-2.9044918503937005
 30
0
 11
4.5984251968503935
 21
-2.9043307086614174
 31
0
  0
LINE
  5
28F
330
1A
100
AcDbEntity
  8
Edge.Cuts
  6
CONTINUOUS
100
AcDbLine
 10
4.5984251968503935
 20
-2.9043307086614174
 30
0
 11
4.6732283464566926
 21
-2.9043307086614174
 31
0
  0
LINE
  5
290
330
1A
100
AcDbEntity
  8
Edge.Cuts
  6
CONTINUOUS
100
AcDbLine
 10
4.6732283464566926
 20
-2.9043307086614174
 30
0
 11
4.676508464566929
 21
-2.9044918503937005
 31
0
  0
LINE
  5
291
330
1A
100
AcDbEntity
  8
Edge.Cuts
  6
CONTINUOUS
100
AcDbLine
 10
6.7955429133858267
 20
-2.751590275590551
 30
0
 11
6.8020059842519682
 21
-2.753690275590551
 31
0
  0
LINE
  5
292
330
1A
100
AcDbEntity
  8
Edge.Cuts
  6
CONTINUOUS
100
AcDbLine
 10
6.8020059842519682
 20
-2.753690275590551
 30
0
 11
6.8080609448818894
 21
-2.756775433070866
 31
0
  0
LINE
  5
293
330
1A
100
AcDbEntity
  8
Edge.Cuts
  6
CONTINUOUS
100
AcDbLine
 10
6.8080609448818894
 20
-2.756775433070866
 30
0
 11
6.8135587795275585
 21
-2.7607698031496062
 31
0
  0
LINE
  5
294
330
1A
100
AcDbEntity
  8
Edge.Cuts
  6
CONTINUOUS
100
AcDbLine
 10
6.8135587795275585
 20
-2.7607698031496062
 30
0
 11
6.8183640551181099
 21
-2.7655750787401576
 31
0
  0
LINE
  5
295
330
1A
100
AcDbEntity
  8
Edge.Cuts
  6
CONTINUOUS
100
AcDbLine
 10
6.8183640551181099
 20
-2.7655750787401576
 30
0
 11
6.8223584251968505
 21
-2.7710729133858267
 31
0
  0
LINE
  5
296
330
1A
100
AcDbEntity
  8
Edge.Cuts
  6
CONTINUOUS
100
AcDbLine
 10
6.8223584251968505
 20
-2.7710729133858267
 30
0
 11
6.8254435826771651
 21
-2.7771278740157479
 31
0
  0
LINE
  5
297
330
1A
100
AcDbEntity
  8
Edge.Cuts
  6
CONTINUOUS
100
AcDbLine
 10
6.8254435826771651
 20
-2.7771278740157479
 30
0
 11
6.8275435826771655
 21
-2.7835909448818899
 31
0
  0
LINE
  5
298
330
1A
100
AcDbEntity
  8
Edge.Cuts
  6
CONTINUOUS
100
AcDbLine
 10
6.8275435826771655
 20
-2.7835909448818899
 30
0
 11
6.8286066535433072
 21
-2.7903029527559053
 31
0
  0
LINE
  5
299
330
1A
100
AcDbEntity
  8
Edge.Cuts
  6
CONTINUOUS
100
AcDbLine
 10
6.8286066535433072
 20
-2.7903029527559053
 30
0
 11
6.8286066535433072
 21
-2.797098622047244
 31
0
  0
LINE
  5
29A
330
1A
100
AcDbEntity
  8
Edge.Cuts
  6
CONTINUOUS
100
AcDbLine
 10
6.8286066535433072
 20
-2.797098622047244
 30
0
 11
6.8275435826771655
 21
-2.80381062992126
 31
0
  0
LINE
  5
29B
330
1A
100
AcDbEntity
  8
Edge.Cuts
  6
CONTINUOUS
100
AcDbLine
 10
6.8275435826771655
 20
-2.80381062992126
 30
0
 11
6.8254435826771651
 21
-2.8102737007874015
 31
0
  0
LINE
  5
29C
330
1A
100
AcDbEntity
  8
Edge.Cuts
  6
CONTINUOUS
100
AcDbLine
 10
6.8254435826771651
 20
-2.8102737007874015
 30
0
 11
6.8223584251968505
 21
-2.8163286614173226
 31
0
  0
LINE
  5
29D
330
1A
100
AcDbEntity
  8
Edge.Cuts
  6
CONTINUOUS
100
AcDbLine
 10
6.8223584251968505
 20
-2.8163286614173226
 30
0
 11
6.8183640551181099
 21
-2.8218264960629922
 31
0
  0
LINE
  5
29E
330
1A
100
AcDbEntity
  8
Edge.Cuts
  6
CONTINUOUS
100
AcDbLine
 10
6.8183640551181099
 20
-2.8218264960629922
 30
0
 11
6.8135587795275585
 21
-2.8266317716535432
 31
0
  0
LINE
  5
29F
330
1A
100
AcDbEntity
  8
Edge.Cuts
  6
CONTINUOUS
100
AcDbLine
 10
6.8135587795275585
 20
-2.8266317716535432
 30
0
 11
6.8080609448818894
 21
-2.8306261417322833
 31
0
  0
LINE
  5
2A0
330
1A
100
AcDbEntity
  8
Edge.Cuts
  6
CONTINUOUS
100
AcDbLine
 10
6.8080609448818894
 20
-2.8306261417322833
 30
0
 11
6.8020059842519682
 21
-2.8337112992125983
 31
0
  0
LINE
  5
2A1
330
1A
100
AcDbEntity
  8
Edge.Cuts
  6
CONTINUOUS
100
AcDbLine
 10
6.8020059842519682
 20
-2.8337112992125983
 30
0
 11
6.7955429133858267
 21
-2.8358112992125983
 31
0
  0
LINE
  5
2A2
330
1A
100
AcDbEntity
  8
Edge.Cuts
  6
CONTINUOUS
100
AcDbLine
 10
6.7955429133858267
 20
-2.8358112992125983
 30
0
 11
6.7888309055118112
 21
-2.83687437007874
 31
0
  0
LINE
  5
2A3
330
1A
100
AcDbEntity
  8
Edge.Cuts
  6
CONTINUOUS
100
AcDbLine
 10
6.7888309055118112
 20
-2.83687437007874
 30
0
 11
6.7820352362204721
 21
-2.83687437007874
 31
0
  0
LINE
  5
2A4
330
1A
100
AcDbEntity
  8
Edge.Cuts
  6
CONTINUOUS
100
AcDbLine
 10
6.7820352362204721
 20
-2.83687437007874
 30
0
 11
6.7753232283464566
 21
-2.8358112992125983
 31
0
  0
LINE
  5
2A5
330
1A
100
AcDbEntity
  8
Edge.Cuts
  6
CONTINUOUS
100
AcDbLine
 10
6.7753232283464566
 20
-2.8358112992125983
 30
0
 11
6.7688601574803151
 21
-2.8337112992125983
 31
0
  0
LINE
  5
2A6
330
1A
100
AcDbEntity
  8
Edge.Cuts
  6
CONTINUOUS
100
AcDbLine
 10
6.7688601574803151
 20
-2.8337112992125983
 30
0
 11
6.7628051968503939
 21
-2.8306261417322833
 31
0
  0
LINE
  5
2A7
330
1A
100
AcDbEntity
  8
Edge.Cuts
  6
CONTINUOUS
100
AcDbLine
 10
6.7628051968503939
 20
-2.8306261417322833
 30
0
 11
6.7573073622047239
 21
-2.8266317716535432
 31
0
  0
LINE
  5
2A8
330
1A
100
AcDbEntity
  8
Edge.Cuts
  6
CONTINUOUS
100
AcDbLine
 10
6.7573073622047239
 20
-2.8266317716535432
 30
0
 11
6.7525020866141734
 21
-2.8218264960629922
 31
0
  0
LINE
  5
2A9
330
1A
100
AcDbEntity
  8
Edge.Cuts
  6
CONTINUOUS
100
AcDbLine
 10
6.7525020866141734
 20
-2.8218264960629922
 30
0
 11
6.7485077165354328
 21
-2.8163286614173226
 31
0
  0
LINE
  5
2AA
330
1A
100
AcDbEntity
  8
Edge.Cuts
  6
CONTINUOUS
100
AcDbLine
 10
6.7485077165354328
 20
-2.8163286614173226
 30
0
 11
6.7454225590551182
 21
-2.8102737007874015
 31
0
  0
LINE
  5
2AB
330
1A
100
AcDbEntity
  8
Edge.Cuts
  6
CONTINUOUS
100
AcDbLine
 10
6.7454225590551182
 20
-2.8102737007874015
 30
0
 11
6.7433225590551178
 21
-2.80381062992126
 31
0
  0
LINE
  5
2AC
330
1A
100
AcDbEntity
  8
Edge.Cuts
  6
CONTINUOUS
100
AcDbLine
 10
6.7433225590551178
 20
-2.80381062992126
 30
0
 11
6.742344881889764
 21
-2.7976377952755906
 31
0
  0
LINE
  5
2AD
330
1A
100
AcDbEntity
  8
Edge.Cuts
  6
CONTINUOUS
100
AcDbLine
 10
6.742344881889764
 20
-2.7976377952755906
 30
0
 11
5.4640853149606299
 21
-2.7976377952755906
 31
0
  0
LINE
  5
2AE
330
1A
100
AcDbEntity
  8
Edge.Cuts
  6
CONTINUOUS
100
AcDbLine
 10
5.4640853149606299
 20
-2.7976377952755906
 30
0
 11
5.3572490551181104
 21
-2.9044740551181101
 31
0
  0
LINE
  5
2AF
330
1A
100
AcDbEntity
  8
Edge.Cuts
  6
CONTINUOUS
100
AcDbLine
 10
5.3572490551181104
 20
-2.9044740551181101
 30
0
 11
5.3576108267716531
 21
-2.9044918503937005
 31
0
  0
LINE
  5
2B0
330
1A
100
AcDbEntity
  8
Edge.Cuts
  6
CONTINUOUS
100
AcDbLine
 10
5.3576108267716531
 20
-2.9044918503937005
 30
0
 11
5.3640449606299212
 21
-2.9057716929133859
 31
0
  0
LINE
  5
2B1
330
1A
100
AcDbEntity
  8
Edge.Cuts
  6
CONTINUOUS
100
AcDbLine
 10
5.3640449606299212
 20
-2.9057716929133859
 30
0
 11
5.3701057874015747
 21
-2.9082821653543305
 31
0
  0
LINE
  5
2B2
330
1A
100
AcDbEntity
  8
Edge.Cuts
  6
CONTINUOUS
100
AcDbLine
 10
5.3701057874015747
 20
-2.9082821653543305
 30
0
 11
5.3755603937007876
 21
-2.9119268110236218
 31
0
  0
LINE
  5
2B3
330
1A
100
AcDbEntity
  8
Edge.Cuts
  6
CONTINUOUS
100
AcDbLine
 10
5.3755603937007876
 20
-2.9119268110236218
 30
0
 11
5.3801991732283465
 21
-2.9165655905511811
 31
0
  0
LINE
  5
2B4
330
1A
100
AcDbEntity
  8
Edge.Cuts
  6
CONTINUOUS
100
AcDbLine
 10
5.3801991732283465
 20
-2.9165655905511811
 30
0
 11
5.3838438188976374
 21
-2.9220201968503936
 31
0
  0
LINE
  5
2B5
330
1A
100
AcDbEntity
  8
Edge.Cuts
  6
CONTINUOUS
100
AcDbLine
 10
5.3838438188976374
 20
-2.9220201968503936
 30
0
 11
5.3863542913385825
 21
-2.9280810236220471
 31
0
  0
LINE
  5
2B6
330
1A
100
AcDbEntity
  8
Edge.Cuts
  6
CONTINUOUS
100
AcDbLine
 10
5.3863542913385825
 20
-2.9280810236220471
 30
0
 11
5.3876341338582678
 21
-2.9345151574803148
 31
0
  0
LINE
  5
2B7
330
1A
100
AcDbEntity
  8
Edge.Cuts
  6
CONTINUOUS
100
AcDbLine
 10
5.3876341338582678
 20
-2.9345151574803148
 30
0
 11
5.3876341338582678
 21
-2.9410753937007872
 31
0
  0
LINE
  5
2B8
330
1A
100
AcDbEntity
  8
Edge.Cuts
  6
CONTINUOUS
100
AcDbLine
 10
5.3876341338582678
 20
-2.9410753937007872
 30
0
 11
5.3863542913385825
 21
-2.9475095275590553
 31
0
  0
LINE
  5
2B9
330
1A
100
AcDbEntity
  8
Edge.Cuts
  6
CONTINUOUS
100
AcDbLine
 10
5.3863542913385825
 20
-2.9475095275590553
 30
0
 11
5.3838438188976374
 21
-2.9535703543307088
 31
0
  0
LINE
  5
2BA
330
1A
100
AcDbEntity
  8
Edge.Cuts
  6
CONTINUOUS
100
AcDbLine
 10
5.3838438188976374
 20
-2.9535703543307088
 30
0
 11
5.3801991732283465
 21
-2.9590249606299213
 31
0
  0
LINE
  5
2BB
330
1A
100
AcDbEntity
  8
Edge.Cuts
  6
CONTINUOUS
100
AcDbLine
 10
5.3801991732283465
 20
-2.9590249606299213
 30
0
 11
5.3755603937007876
 21
-2.9636637401574801
 31
0
  0
LINE
  5
2BC
330
1A
100
AcDbEntity
  8
Edge.Cuts
  6
CONTINUOUS
100
AcDbLine
 10
5.3755603937007876
 20
-2.9636637401574801
 30
0
 11
5.3701057874015747
 21
-2.9673083858267715
 31
0
  0
LINE
  5
2BD
330
1A
100
AcDbEntity
  8
Edge.Cuts
  6
CONTINUOUS
100
AcDbLine
 10
5.3701057874015747
 20
-2.9673083858267715
 30
0
 11
5.3640449606299212
 21
-2.9698188582677165
 31
0
  0
LINE
  5
2BE
330
1A
100
AcDbEntity
  8
Edge.Cuts
  6
CONTINUOUS
100
AcDbLine
 10
5.3640449606299212
 20
-2.9698188582677165
 30
0
 11
5.3576108267716531
 21
-2.9710987007874015
 31
0
  0
LINE
  5
2BF
330
1A
100
AcDbEntity
  8
Edge.Cuts
  6
CONTINUOUS
100
AcDbLine
 10
5.3576108267716531
 20
-2.9710987007874015
 30
0
 11
5.3543307086614176
 21
-2.971259842519685
 31
0
  0
LINE
  5
2C0
330
1A
100
AcDbEntity
  8
Edge.Cuts
  6
CONTINUOUS
100
AcDbLine
 10
5.3543307086614176
 20
-2.971259842519685
 30
0
 11
5.2755905511811019
 21
-2.971259842519685
 31
0
  0
LINE
  5
2C1
330
1A
100
AcDbEntity
  8
Edge.Cuts
  6
CONTINUOUS
100
AcDbLine
 10
5.2755905511811019
 20
-2.971259842519685
 30
0
 11
5.2723104330708663
 21
-2.9710987007874015
 31
0
  0
LINE
  5
2C2
330
1A
100
AcDbEntity
  8
Edge.Cuts
  6
CONTINUOUS
100
AcDbLine
 10
5.2723104330708663
 20
-2.9710987007874015
 30
0
 11
5.2658762992125983
 21
-2.9698188582677165
 31
0
  0
LINE
  5
2C3
330
1A
100
AcDbEntity
  8
Edge.Cuts
  6
CONTINUOUS
100
AcDbLine
 10
5.2658762992125983
 20
-2.9698188582677165
 30
0
 11
5.2598154724409447
 21
-2.9673083858267715
 31
0
  0
LINE
  5
2C4
330
1A
100
AcDbEntity
  8
Edge.Cuts
  6
CONTINUOUS
100
AcDbLine
 10
5.2598154724409447
 20
-2.9673083858267715
 30
0
 11
5.2543608661417318
 21
-2.9636637401574801
 31
0
  0
LINE
  5
2C5
330
1A
100
AcDbEntity
  8
Edge.Cuts
  6
CONTINUOUS
100
AcDbLine
 10
5.2543608661417318
 20
-2.9636637401574801
 30
0
 11
5.2497220866141729
 21
-2.9590249606299213
 31
0
  0
LINE
  5
2C6
330
1A
100
AcDbEntity
  8
Edge.Cuts
  6
CONTINUOUS
100
AcDbLine
 10
5.2497220866141729
 20
-2.9590249606299213
 30
0
 11
5.246077440944882
 21
-2.9535703543307088
 31
0
  0
LINE
  5
2C7
330
1A
100
AcDbEntity
  8
Edge.Cuts
  6
CONTINUOUS
100
AcDbLine
 10
5.246077440944882
 20
-2.9535703543307088
 30
0
 11
5.243566968503937
 21
-2.9475095275590553
 31
0
  0
LINE
  5
2C8
330
1A
100
AcDbEntity
  8
Edge.Cuts
  6
CONTINUOUS
100
AcDbLine
 10
5.243566968503937
 20
-2.9475095275590553
 30
0
 11
5.2422871259842516
 21
-2.9410753937007872
 31
0
  0
LINE
  5
2C9
330
1A
100
AcDbEntity
  8
Edge.Cuts
  6
CONTINUOUS
100
AcDbLine
 10
5.2422871259842516
 20
-2.9410753937007872
 30
0
 11
5.2422871259842516
 21
-2.9345151574803148
 31
0
  0
LINE
  5
2CA
330
1A
100
AcDbEntity
  8
Edge.Cuts
  6
CONTINUOUS
100
AcDbLine
 10
5.2422871259842516
 20
-2.9345151574803148
 30
0
 11
5.243566968503937
 21
-2.9280810236220471
 31
0
  0
LINE
  5
2CB
330
1A
100
AcDbEntity
  8
Edge.Cuts
  6
CONTINUOUS
100
AcDbLine
 10
5.243566968503937
 20
-2.9280810236220471
 30
0
 11
5.246077440944882
 21
-2.9220201968503936
 31
0
  0
LINE
  5
2CC
330
1A
100
AcDbEntity
  8
Edge.Cuts
  6
CONTINUOUS
100
AcDbLine
 10
5.246077440944882
 20
-2.9220201968503936
 30
0
 11
5.2497220866141729
 21
-2.9165655905511811
 31
0
  0
LINE
  5
2CD
330
1A
100
AcDbEntity
  8
Edge.Cuts
  6
CONTINUOUS
100
AcDbLine
 10
5.2497220866141729
 20
-2.9165655905511811
 30
0
 11
5.2543608661417318
 21
-2.9119268110236218
 31
0
  0
LINE
  5
2CE
330
1A
100
AcDbEntity
  8
Edge.Cuts
  6
CONTINUOUS
100
AcDbLine
 10
5.2543608661417318
 20
-2.9119268110236218
 30
0
 11
5.2598154724409447
 21
-2.9082821653543305
 31
0
  0
LINE
  5
2CF
330
1A
100
AcDbEntity
  8
Edge.Cuts
  6
CONTINUOUS
100
AcDbLine
 10
5.2598154724409447
 20
-2.9082821653543305
 30
0
 11
5.2658762992125983
 21
-2.9057716929133859
 31
0
  0
LINE
  5
2D0
330
1A
100
AcDbEntity
  8
Edge.Cuts
  6
CONTINUOUS
100
AcDbLine
 10
5.2658762992125983
 20
-2.9057716929133859
 30
0
 11
5.2723104330708663
 21
-2.9044918503937005
 31
0
  0
LINE
  5
2D1
330
1A
100
AcDbEntity
  8
Edge.Cuts
  6
CONTINUOUS
100
AcDbLine
 10
5.2723104330708663
 20
-2.9044918503937005
 30
0
 11
5.2755905511811019
 21
-2.9043307086614174
 31
0
  0
LINE
  5
2D2
330
1A
100
AcDbEntity
  8
Edge.Cuts
  6
CONTINUOUS
100
AcDbLine
 10
5.2755905511811019
 20
-2.9043307086614174
 30
0
 11
5.3462568503937007
 21
-2.9043307086614174
 31
0
  0
LINE
  5
2D3
330
1A
100
AcDbEntity
  8
Edge.Cuts
  6
CONTINUOUS
100
AcDbLine
 10
5.3462568503937007
 20
-2.9043307086614174
 30
0
 11
5.4596707086614176
 21
-2.7909168897637793
 31
0
  0
LINE
  5
2D4
330
1A
100
AcDbEntity
  8
Edge.Cuts
  6
CONTINUOUS
100
AcDbLine
 10
5.4596707086614176
 20
-2.7909168897637793
 30
0
 11
5.4602672834645665
 21
-2.7904272440944879
 31
0
  0
LINE
  5
2D5
330
1A
100
AcDbEntity
  8
Edge.Cuts
  6
CONTINUOUS
100
AcDbLine
 10
5.4602672834645665
 20
-2.7904272440944879
 30
0
 11
5.4616864960629918
 21
-2.789839409448819
 31
0
  0
LINE
  5
2D6
330
1A
100
AcDbEntity
  8
Edge.Cuts
  6
CONTINUOUS
100
AcDbLine
 10
5.4616864960629918
 20
-2.789839409448819
 30
0
 11
5.462454566929134
 21
-2.7897637795275592
 31
0
  0
LINE
  5
2D7
330
1A
100
AcDbEntity
  8
Edge.Cuts
  6
CONTINUOUS
100
AcDbLine
 10
5.462454566929134
 20
-2.7897637795275592
 30
0
 11
6.742344881889764
 21
-2.7897637795275592
 31
0
  0
LINE
  5
2D8
330
1A
100
AcDbEntity
  8
Edge.Cuts
  6
CONTINUOUS
100
AcDbLine
 10
6.742344881889764
 20
-2.7897637795275592
 30
0
 11
6.7433225590551178
 21
-2.7835909448818899
 31
0
  0
LINE
  5
2D9
330
1A
100
AcDbEntity
  8
Edge.Cuts
  6
CONTINUOUS
100
AcDbLine
 10
6.7433225590551178
 20
-2.7835909448818899
 30
0
 11
6.7454225590551182
 21
-2.7771278740157479
 31
0
  0
LINE
  5
2DA
330
1A
100
AcDbEntity
  8
Edge.Cuts
  6
CONTINUOUS
100
AcDbLine
 10
6.7454225590551182
 20
-2.7771278740157479
 30
0
 11
6.7485077165354328
 21
-2.7710729133858267
 31
0
  0
LINE
  5
2DB
330
1A
100
AcDbEntity
  8
Edge.Cuts
  6
CONTINUOUS
100
AcDbLine
 10
6.7485077165354328
 20
-2.7710729133858267
 30
0
 11
6.7525020866141734
 21
-2.7655750787401576
 31
0
  0
LINE
  5
2DC
330
1A
100
AcDbEntity
  8
Edge.Cuts
  6
CONTINUOUS
100
AcDbLine
 10
6.7525020866141734
 20
-2.7655750787401576
 30
0
 11
6.7573073622047239
 21
-2.7607698031496062
 31
0
  0
LINE
  5
2DD
330
1A
100
AcDbEntity
  8
Edge.Cuts
  6
CONTINUOUS
100
AcDbLine
 10
6.7573073622047239
 20
-2.7607698031496062
 30
0
 11
6.7628051968503939
 21
-2.756775433070866
 31
0
  0
LINE
  5
2DE
330
1A
100
AcDbEntity
  8
Edge.Cuts
  6
CONTINUOUS
100
AcDbLine
 10
6.7628051968503939
 20
-2.756775433070866
 30
0
 11
6.7688601574803151
 21
-2.753690275590551
 31
0
  0
LINE
  5
2DF
330
1A
100
AcDbEntity
  8
Edge.Cuts
  6
CONTINUOUS
100
AcDbLine
 10
6.7688601574803151
 20
-2.753690275590551
 30
0
 11
6.7753232283464566
 21
-2.751590275590551
 31
0
  0
LINE
  5
2E0
330
1A
100
AcDbEntity
  8
Edge.Cuts
  6
CONTINUOUS
100
AcDbLine
 10
6.7753232283464566
 20
-2.751590275590551
 30
0
 11
6.7820352362204721
 21
-2.7505272047244094
 31
0
  0
LINE
  5
2E1
330
1A
100
AcDbEntity
  8
Edge.Cuts
  6
CONTINUOUS
100
AcDbLine
 10
6.7820352362204721
 20
-2.7505272047244094
 30
0
 11
6.7888309055118112
 21
-2.7505272047244094
 31
0
  0
LINE
  5
2E2
330
1A
100
AcDbEntity
  8
Edge.Cuts
  6
CONTINUOUS
100
AcDbLine
 10
6.7888309055118112
 20
-2.7505272047244094
 30
0
 11
6.7955429133858267
 21
-2.751590275590551
 31
0
  0
LINE
  5
2E3
330
1A
100
AcDbEntity
  8
Edge.Cuts
  6
CONTINUOUS
100
AcDbLine
 10
6.5455429133858267
 20
-2.8515902755905511
 30
0
 11
6.5520059842519682
 21
-2.8536902755905511
 31
0
  0
LINE
  5
2E4
330
1A
100
AcDbEntity
  8
Edge.Cuts
  6
CONTINUOUS
100
AcDbLine
 10
6.5520059842519682
 20
-2.8536902755905511
 30
0
 11
6.5580609448818894
 21
-2.8567754330708661
 31
0
  0
LINE
  5
2E5
330
1A
100
AcDbEntity
  8
Edge.Cuts
  6
CONTINUOUS
100
AcDbLine
 10
6.5580609448818894
 20
-2.8567754330708661
 30
0
 11
6.5635587795275585
 21
-2.8607698031496063
 31
0
  0
LINE
  5
2E6
330
1A
100
AcDbEntity
  8
Edge.Cuts
  6
CONTINUOUS
100
AcDbLine
 10
6.5635587795275585
 20
-2.8607698031496063
 30
0
 11
6.5683640551181099
 21
-2.8655750787401573
 31
0
  0
LINE
  5
2E7
330
1A
100
AcDbEntity
  8
Edge.Cuts
  6
CONTINUOUS
100
AcDbLine
 10
6.5683640551181099
 20
-2.8655750787401573
 30
0
 11
6.5723584251968505
 21
-2.8710729133858268
 31
0
  0
LINE
  5
2E8
330
1A
100
AcDbEntity
  8
Edge.Cuts
  6
CONTINUOUS
100
AcDbLine
 10
6.5723584251968505
 20
-2.8710729133858268
 30
0
 11
6.5754435826771651
 21
-2.877127874015748
 31
0
  0
LINE
  5
2E9
330
1A
100
AcDbEntity
  8
Edge.Cuts
  6
CONTINUOUS
100
AcDbLine
 10
6.5754435826771651
 20
-2.877127874015748
 30
0
 11
6.5775435826771655
 21
-2.8835909448818895
 31
0
  0
LINE
  5
2EA
330
1A
100
AcDbEntity
  8
Edge.Cuts
  6
CONTINUOUS
100
AcDbLine
 10
6.5775435826771655
 20
-2.8835909448818895
 30
0
 11
6.5786066535433072
 21
-2.8903029527559054
 31
0
  0
LINE
  5
2EB
330
1A
100
AcDbEntity
  8
Edge.Cuts
  6
CONTINUOUS
100
AcDbLine
 10
6.5786066535433072
 20
-2.8903029527559054
 30
0
 11
6.5786066535433072
 21
-2.8970986220472441
 31
0
  0
LINE
  5
2EC
330
1A
100
AcDbEntity
  8
Edge.Cuts
  6
CONTINUOUS
100
AcDbLine
 10
6.5786066535433072
 20
-2.8970986220472441
 30
0
 11
6.5775435826771655
 21
-2.9038106299212596
 31
0
  0
LINE
  5
2ED
330
1A
100
AcDbEntity
  8
Edge.Cuts
  6
CONTINUOUS
100
AcDbLine
 10
6.5775435826771655
 20
-2.9038106299212596
 30
0
 11
6.5754435826771651
 21
-2.9102737007874016
 31
0
  0
LINE
  5
2EE
330
1A
100
AcDbEntity
  8
Edge.Cuts
  6
CONTINUOUS
100
AcDbLine
 10
6.5754435826771651
 20
-2.9102737007874016
 30
0
 11
6.5723584251968505
 21
-2.9163286614173227
 31
0
  0
LINE
  5
2EF
330
1A
100
AcDbEntity
  8
Edge.Cuts
  6
CONTINUOUS
100
AcDbLine
 10
6.5723584251968505
 20
-2.9163286614173227
 30
0
 11
6.5683640551181099
 21
-2.9218264960629923
 31
0
  0
LINE
  5
2F0
330
1A
100
AcDbEntity
  8
Edge.Cuts
  6
CONTINUOUS
100
AcDbLine
 10
6.5683640551181099
 20
-2.9218264960629923
 30
0
 11
6.5635587795275585
 21
-2.9266317716535433
 31
0
  0
LINE
  5
2F1
330
1A
100
AcDbEntity
  8
Edge.Cuts
  6
CONTINUOUS
100
AcDbLine
 10
6.5635587795275585
 20
-2.9266317716535433
 30
0
 11
6.5580609448818894
 21
-2.9306261417322834
 31
0
  0
LINE
  5
2F2
330
1A
100
AcDbEntity
  8
Edge.Cuts
  6
CONTINUOUS
100
AcDbLine
 10
6.5580609448818894
 20
-2.9306261417322834
 30
0
 11
6.5520059842519682
 21
-2.9337112992125984
 31
0
  0
LINE
  5
2F3
330
1A
100
AcDbEntity
  8
Edge.Cuts
  6
CONTINUOUS
100
AcDbLine
 10
6.5520059842519682
 20
-2.9337112992125984
 30
0
 11
6.5455429133858267
 21
-2.9358112992125984
 31
0
  0
LINE
  5
2F4
330
1A
100
AcDbEntity
  8
Edge.Cuts
  6
CONTINUOUS
100
AcDbLine
 10
6.5455429133858267
 20
-2.9358112992125984
 30
0
 11
6.5388309055118112
 21
-2.9368743700787401
 31
0
  0
LINE
  5
2F5
330
1A
100
AcDbEntity
  8
Edge.Cuts
  6
CONTINUOUS
100
AcDbLine
 10
6.5388309055118112
 20
-2.9368743700787401
 30
0
 11
6.5320352362204721
 21
-2.9368743700787401
 31
0
  0
LINE
  5
2F6
330
1A
100
AcDbEntity
  8
Edge.Cuts
  6
CONTINUOUS
100
AcDbLine
 10
6.5320352362204721
 20
-2.9368743700787401
 30
0
 11
6.5253232283464566
 21
-2.9358112992125984
 31
0
  0
LINE
  5
2F7
330
1A
100
AcDbEntity
  8
Edge.Cuts
  6
CONTINUOUS
100
AcDbLine
 10
6.5253232283464566
 20
-2.9358112992125984
 30
0
 11
6.5188601574803151
 21
-2.9337112992125984
 31
0
  0
LINE
  5
2F8
330
1A
100
AcDbEntity
  8
Edge.Cuts
  6
CONTINUOUS
100
AcDbLine
 10
6.5188601574803151
 20
-2.9337112992125984
 30
0
 11
6.5128051968503939
 21
-2.9306261417322834
 31
0
  0
LINE
  5
2F9
330
1A
100
AcDbEntity
  8
Edge.Cuts
  6
CONTINUOUS
100
AcDbLine
 10
6.5128051968503939
 20
-2.9306261417322834
 30
0
 11
6.5073073622047239
 21
-2.9266317716535433
 31
0
  0
LINE
  5
2FA
330
1A
100
AcDbEntity
  8
Edge.Cuts
  6
CONTINUOUS
100
AcDbLine
 10
6.5073073622047239
 20
-2.9266317716535433
 30
0
 11
6.5025020866141734
 21
-2.9218264960629923
 31
0
  0
LINE
  5
2FB
330
1A
100
AcDbEntity
  8
Edge.Cuts
  6
CONTINUOUS
100
AcDbLine
 10
6.5025020866141734
 20
-2.9218264960629923
 30
0
 11
6.4985077165354328
 21
-2.9163286614173227
 31
0
  0
LINE
  5
2FC
330
1A
100
AcDbEntity
  8
Edge.Cuts
  6
CONTINUOUS
100
AcDbLine
 10
6.4985077165354328
 20
-2.9163286614173227
 30
0
 11
6.4954225590551182
 21
-2.9102737007874016
 31
0
  0
LINE
  5
2FD
330
1A
100
AcDbEntity
  8
Edge.Cuts
  6
CONTINUOUS
100
AcDbLine
 10
6.4954225590551182
 20
-2.9102737007874016
 30
0
 11
6.4933225590551178
 21
-2.9038106299212596
 31
0
  0
LINE
  5
2FE
330
1A
100
AcDbEntity
  8
Edge.Cuts
  6
CONTINUOUS
100
AcDbLine
 10
6.4933225590551178
 20
-2.9038106299212596
 30
0
 11
6.4922594881889761
 21
-2.8970986220472441
 31
0
  0
LINE
  5
2FF
330
1A
100
AcDbEntity
  8
Edge.Cuts
  6
CONTINUOUS
100
AcDbLine
 10
6.4922594881889761
 20
-2.8970986220472441
 30
0
 11
6.4922594881889761
 21
-2.8903029527559054
 31
0
  0
LINE
  5
300
330
1A
100
AcDbEntity
  8
Edge.Cuts
  6
CONTINUOUS
100
AcDbLine
 10
6.4922594881889761
 20
-2.8903029527559054
 30
0
 11
6.4933225590551178
 21
-2.8835909448818895
 31
0
  0
LINE
  5
301
330
1A
100
AcDbEntity
  8
Edge.Cuts
  6
CONTINUOUS
100
AcDbLine
 10
6.4933225590551178
 20
-2.8835909448818895
 30
0
 11
6.4954225590551182
 21
-2.877127874015748
 31
0
  0
LINE
  5
302
330
1A
100
AcDbEntity
  8
Edge.Cuts
  6
CONTINUOUS
100
AcDbLine
 10
6.4954225590551182
 20
-2.877127874015748
 30
0
 11
6.4985077165354328
 21
-2.8710729133858268
 31
0
  0
LINE
  5
303
330
1A
100
AcDbEntity
  8
Edge.Cuts
  6
CONTINUOUS
100
AcDbLine
 10
6.4985077165354328
 20
-2.8710729133858268
 30
0
 11
6.5025020866141734
 21
-2.8655750787401573
 31
0
  0
LINE
  5
304
330
1A
100
AcDbEntity
  8
Edge.Cuts
  6
CONTINUOUS
100
AcDbLine
 10
6.5025020866141734
 20
-2.8655750787401573
 30
0
 11
6.5073073622047239
 21
-2.8607698031496063
 31
0
  0
LINE
  5
305
330
1A
100
AcDbEntity
  8
Edge.Cuts
  6
CONTINUOUS
100
AcDbLine
 10
6.5073073622047239
 20
-2.8607698031496063
 30
0
 11
6.5128051968503939
 21
-2.8567754330708661
 31
0
  0
LINE
  5
306
330
1A
100
AcDbEntity
  8
Edge.Cuts
  6
CONTINUOUS
100
AcDbLine
 10
6.5128051968503939
 20
-2.8567754330708661
 30
0
 11
6.5188601574803151
 21
-2.8536902755905511
 31
0
  0
LINE
  5
307
330
1A
100
AcDbEntity
  8
Edge.Cuts
  6
CONTINUOUS
100
AcDbLine
 10
6.5188601574803151
 20
-2.8536902755905511
 30
0
 11
6.5253232283464566
 21
-2.8515902755905511
 31
0
  0
LINE
  5
308
330
1A
100
AcDbEntity
  8
Edge.Cuts
  6
CONTINUOUS
100
AcDbLine
 10
6.5253232283464566
 20
-2.8515902755905511
 30
0
 11
6.5320352362204721
 21
-2.8505272047244095
 31
0
  0
LINE
  5
309
330
1A
100
AcDbEntity
  8
Edge.Cuts
  6
CONTINUOUS
100
AcDbLine
 10
6.5320352362204721
 20
-2.8505272047244095
 30
0
 11
6.5388309055118112
 21
-2.8505272047244095
 31
0
  0
LINE
  5
30A
330
1A
100
AcDbEntity
  8
Edge.Cuts
  6
CONTINUOUS
100
AcDbLine
 10
6.5388309055118112
 20
-2.8505272047244095
 30
0
 11
6.5455429133858267
 21
-2.8515902755905511
 31
0
  0
LINE
  5
30B
330
1A
100
AcDbEntity
  8
Edge.Cuts
  6
CONTINUOUS
100
AcDbLine
 10
4.676508464566929
 20
-2.8044918503937009
 30
0
 11
4.6829425984251971
 21
-2.8057716929133858
 31
0
  0
LINE
  5
30C
330
1A
100
AcDbEntity
  8
Edge.Cuts
  6
CONTINUOUS
100
AcDbLine
 10
4.6829425984251971
 20
-2.8057716929133858
 30
0
 11
4.6890034251968506
 21
-2.8082821653543308
 31
0
  0
LINE
  5
30D
330
1A
100
AcDbEntity
  8
Edge.Cuts
  6
CONTINUOUS
100
AcDbLine
 10
4.6890034251968506
 20
-2.8082821653543308
 30
0
 11
4.6944580314960627
 21
-2.8119268110236222
 31
0
  0
LINE
  5
30E
330
1A
100
AcDbEntity
  8
Edge.Cuts
  6
CONTINUOUS
100
AcDbLine
 10
4.6944580314960627
 20
-2.8119268110236222
 30
0
 11
4.6990968110236215
 21
-2.8165655905511811
 31
0
  0
LINE
  5
30F
330
1A
100
AcDbEntity
  8
Edge.Cuts
  6
CONTINUOUS
100
AcDbLine
 10
4.6990968110236215
 20
-2.8165655905511811
 30
0
 11
4.7027414566929133
 21
-2.8220201968503935
 31
0
  0
LINE
  5
310
330
1A
100
AcDbEntity
  8
Edge.Cuts
  6
CONTINUOUS
100
AcDbLine
 10
4.7027414566929133
 20
-2.8220201968503935
 30
0
 11
4.7052519291338584
 21
-2.8280810236220471
 31
0
  0
LINE
  5
311
330
1A
100
AcDbEntity
  8
Edge.Cuts
  6
CONTINUOUS
100
AcDbLine
 10
4.7052519291338584
 20
-2.8280810236220471
 30
0
 11
4.7065317716535429
 21
-2.8345151574803147
 31
0
  0
LINE
  5
312
330
1A
100
AcDbEntity
  8
Edge.Cuts
  6
CONTINUOUS
100
AcDbLine
 10
4.7065317716535429
 20
-2.8345151574803147
 30
0
 11
4.7065317716535429
 21
-2.8410753937007875
 31
0
  0
LINE
  5
313
330
1A
100
AcDbEntity
  8
Edge.Cuts
  6
CONTINUOUS
100
AcDbLine
 10
4.7065317716535429
 20
-2.8410753937007875
 30
0
 11
4.7052519291338584
 21
-2.8475095275590552
 31
0
  0
LINE
  5
314
330
1A
100
AcDbEntity
  8
Edge.Cuts
  6
CONTINUOUS
100
AcDbLine
 10
4.7052519291338584
 20
-2.8475095275590552
 30
0
 11
4.7027414566929133
 21
-2.8535703543307087
 31
0
  0
LINE
  5
315
330
1A
100
AcDbEntity
  8
Edge.Cuts
  6
CONTINUOUS
100
AcDbLine
 10
4.7027414566929133
 20
-2.8535703543307087
 30
0
 11
4.6990968110236215
 21
-2.8590249606299212
 31
0
  0
LINE
  5
316
330
1A
100
AcDbEntity
  8
Edge.Cuts
  6
CONTINUOUS
100
AcDbLine
 10
4.6990968110236215
 20
-2.8590249606299212
 30
0
 11
4.6944580314960627
 21
-2.86366374015748
 31
0
  0
LINE
  5
317
330
1A
100
AcDbEntity
  8
Edge.Cuts
  6
CONTINUOUS
100
AcDbLine
 10
4.6944580314960627
 20
-2.86366374015748
 30
0
 11
4.6890034251968506
 21
-2.8673083858267714
 31
0
  0
LINE
  5
318
330
1A
100
AcDbEntity
  8
Edge.Cuts
  6
CONTINUOUS
100
AcDbLine
 10
4.6890034251968506
 20
-2.8673083858267714
 30
0
 11
4.6829425984251971
 21
-2.8698188582677164
 31
0
  0
LINE
  5
319
330
1A
100
AcDbEntity
  8
Edge.Cuts
  6
CONTINUOUS
100
AcDbLine
 10
4.6829425984251971
 20
-2.8698188582677164
 30
0
 11
4.676508464566929
 21
-2.8710987007874014
 31
0
  0
LINE
  5
31A
330
1A
100
AcDbEntity
  8
Edge.Cuts
  6
CONTINUOUS
100
AcDbLine
 10
4.676508464566929
 20
-2.8710987007874014
 30
0
 11
4.6732283464566926
 21
-2.8712598425196849
 31
0
  0
LINE
  5
31B
330
1A
100
AcDbEntity
  8
Edge.Cuts
  6
CONTINUOUS
100
AcDbLine
 10
4.6732283464566926
 20
-2.8712598425196849
 30
0
 11
4.5984251968503935
 21
-2.8712598425196849
 31
0
  0
LINE
  5
31C
330
1A
100
AcDbEntity
  8
Edge.Cuts
  6
CONTINUOUS
100
AcDbLine
 10
4.5984251968503935
 20
-2.8712598425196849
 30
0
 11
4.5951450787401571
 21
-2.8710987007874014
 31
0
  0
LINE
  5
31D
330
1A
100
AcDbEntity
  8
Edge.Cuts
  6
CONTINUOUS
100
AcDbLine
 10
4.5951450787401571
 20
-2.8710987007874014
 30
0
 11
4.5887109448818899
 21
-2.8698188582677164
 31
0
  0
LINE
  5
31E
330
1A
100
AcDbEntity
  8
Edge.Cuts
  6
CONTINUOUS
100
AcDbLine
 10
4.5887109448818899
 20
-2.8698188582677164
 30
0
 11
4.5826501181102364
 21
-2.8673083858267714
 31
0
  0
LINE
  5
31F
330
1A
100
AcDbEntity
  8
Edge.Cuts
  6
CONTINUOUS
100
AcDbLine
 10
4.5826501181102364
 20
-2.8673083858267714
 30
0
 11
4.5771955118110235
 21
-2.86366374015748
 31
0
  0
LINE
  5
320
330
1A
100
AcDbEntity
  8
Edge.Cuts
  6
CONTINUOUS
100
AcDbLine
 10
4.5771955118110235
 20
-2.86366374015748
 30
0
 11
4.5725567322834646
 21
-2.8590249606299212
 31
0
  0
LINE
  5
321
330
1A
100
AcDbEntity
  8
Edge.Cuts
  6
CONTINUOUS
100
AcDbLine
 10
4.5725567322834646
 20
-2.8590249606299212
 30
0
 11
4.5689120866141728
 21
-2.8535703543307087
 31
0
  0
LINE
  5
322
330
1A
100
AcDbEntity
  8
Edge.Cuts
  6
CONTINUOUS
100
AcDbLine
 10
4.5689120866141728
 20
-2.8535703543307087
 30
0
 11
4.5664016141732287
 21
-2.8475095275590552
 31
0
  0
LINE
  5
323
330
1A
100
AcDbEntity
  8
Edge.Cuts
  6
CONTINUOUS
100
AcDbLine
 10
4.5664016141732287
 20
-2.8475095275590552
 30
0
 11
4.5651217716535433
 21
-2.8410753937007875
 31
0
  0
LINE
  5
324
330
1A
100
AcDbEntity
  8
Edge.Cuts
  6
CONTINUOUS
100
AcDbLine
 10
4.5651217716535433
 20
-2.8410753937007875
 30
0
 11
4.5651217716535433
 21
-2.8345151574803147
 31
0
  0
LINE
  5
325
330
1A
100
AcDbEntity
  8
Edge.Cuts
  6
CONTINUOUS
100
AcDbLine
 10
4.5651217716535433
 20
-2.8345151574803147
 30
0
 11
4.5664016141732287
 21
-2.8280810236220471
 31
0
  0
LINE
  5
326
330
1A
100
AcDbEntity
  8
Edge.Cuts
  6
CONTINUOUS
100
AcDbLine
 10
4.5664016141732287
 20
-2.8280810236220471
 30
0
 11
4.5689120866141728
 21
-2.8220201968503935
 31
0
  0
LINE
  5
327
330
1A
100
AcDbEntity
  8
Edge.Cuts
  6
CONTINUOUS
100
AcDbLine
 10
4.5689120866141728
 20
-2.8220201968503935
 30
0
 11
4.5725567322834646
 21
-2.8165655905511811
 31
0
  0
LINE
  5
328
330
1A
100
AcDbEntity
  8
Edge.Cuts
  6
CONTINUOUS
100
AcDbLine
 10
4.5725567322834646
 20
-2.8165655905511811
 30
0
 11
4.5771955118110235
 21
-2.8119268110236222
 31
0
  0
LINE
  5
329
330
1A
100
AcDbEntity
  8
Edge.Cuts
  6
CONTINUOUS
100
AcDbLine
 10
4.5771955118110235
 20
-2.8119268110236222
 30
0
 11
4.5826501181102364
 21
-2.8082821653543308
 31
0
  0
LINE
  5
32A
330
1A
100
AcDbEntity
  8
Edge.Cuts
  6
CONTINUOUS
100
AcDbLine
 10
4.5826501181102364
 20
-2.8082821653543308
 30
0
 11
4.5887109448818899
 21
-2.8057716929133858
 31
0
  0
LINE
  5
32B
330
1A
100
AcDbEntity
  8
Edge.Cuts
  6
CONTINUOUS
100
AcDbLine
 10
4.5887109448818899
 20
-2.8057716929133858
 30
0
 11
4.5951450787401571
 21
-2.8044918503937009
 31
0
  0
LINE
  5
32C
330
1A
100
AcDbEntity
  8
Edge.Cuts
  6
CONTINUOUS
100
AcDbLine
 10
4.5951450787401571
 20
-2.8044918503937009
 30
0
 11
4.5984251968503935
 21
-2.8043307086614173
 31
0
  0
LINE
  5
32D
330
1A
100
AcDbEntity
  8
Edge.Cuts
  6
CONTINUOUS
100
AcDbLine
 10
4.5984251968503935
 20
-2.8043307086614173
 30
0
 11
4.6732283464566926
 21
-2.8043307086614173
 31
0
  0
LINE
  5
32E
330
1A
100
AcDbEntity
  8
Edge.Cuts
  6
CONTINUOUS
100
AcDbLine
 10
4.6732283464566926
 20
-2.8043307086614173
 30
0
 11
4.676508464566929
 21
-2.8044918503937009
 31
0
  0
LINE
  5
32F
330
1A
100
AcDbEntity
  8
Edge.Cuts
  6
CONTINUOUS
100
AcDbLine
 10
4.676508464566929
 20
-2.7044918503937008
 30
0
 11
4.6829425984251971
 21
-2.7057716929133857
 31
0
  0
LINE
  5
330
330
1A
100
AcDbEntity
  8
Edge.Cuts
  6
CONTINUOUS
100
AcDbLine
 10
4.6829425984251971
 20
-2.7057716929133857
 30
0
 11
4.6890034251968506
 21
-2.7082821653543308
 31
0
  0
LINE
  5
331
330
1A
100
AcDbEntity
  8
Edge.Cuts
  6
CONTINUOUS
100
AcDbLine
 10
4.6890034251968506
 20
-2.7082821653543308
 30
0
 11
4.6944580314960627
 21
-2.7119268110236221
 31
0
  0
LINE
  5
332
330
1A
100
AcDbEntity
  8
Edge.Cuts
  6
CONTINUOUS
100
AcDbLine
 10
4.6944580314960627
 20
-2.7119268110236221
 30
0
 11
4.6990968110236215
 21
-2.716565590551181
 31
0
  0
LINE
  5
333
330
1A
100
AcDbEntity
  8
Edge.Cuts
  6
CONTINUOUS
100
AcDbLine
 10
4.6990968110236215
 20
-2.716565590551181
 30
0
 11
4.7027414566929133
 21
-2.7220201968503934
 31
0
  0
LINE
  5
334
330
1A
100
AcDbEntity
  8
Edge.Cuts
  6
CONTINUOUS
100
AcDbLine
 10
4.7027414566929133
 20
-2.7220201968503934
 30
0
 11
4.7052519291338584
 21
-2.728081023622047
 31
0
  0
LINE
  5
335
330
1A
100
AcDbEntity
  8
Edge.Cuts
  6
CONTINUOUS
100
AcDbLine
 10
4.7052519291338584
 20
-2.728081023622047
 30
0
 11
4.7065317716535429
 21
-2.734515157480315
 31
0
  0
LINE
  5
336
330
1A
100
AcDbEntity
  8
Edge.Cuts
  6
CONTINUOUS
100
AcDbLine
 10
4.7065317716535429
 20
-2.734515157480315
 30
0
 11
4.7065317716535429
 21
-2.7410753937007875
 31
0
  0
LINE
  5
337
330
1A
100
AcDbEntity
  8
Edge.Cuts
  6
CONTINUOUS
100
AcDbLine
 10
4.7065317716535429
 20
-2.7410753937007875
 30
0
 11
4.7052519291338584
 21
-2.7475095275590551
 31
0
  0
LINE
  5
338
330
1A
100
AcDbEntity
  8
Edge.Cuts
  6
CONTINUOUS
100
AcDbLine
 10
4.7052519291338584
 20
-2.7475095275590551
 30
0
 11
4.7027414566929133
 21
-2.7535703543307086
 31
0
  0
LINE
  5
339
330
1A
100
AcDbEntity
  8
Edge.Cuts
  6
CONTINUOUS
100
AcDbLine
 10
4.7027414566929133
 20
-2.7535703543307086
 30
0
 11
4.6990968110236215
 21
-2.7590249606299211
 31
0
  0
LINE
  5
33A
330
1A
100
AcDbEntity
  8
Edge.Cuts
  6
CONTINUOUS
100
AcDbLine
 10
4.6990968110236215
 20
-2.7590249606299211
 30
0
 11
4.6944580314960627
 21
-2.7636637401574804
 31
0
  0
LINE
  5
33B
330
1A
100
AcDbEntity
  8
Edge.Cuts
  6
CONTINUOUS
100
AcDbLine
 10
4.6944580314960627
 20
-2.7636637401574804
 30
0
 11
4.6890034251968506
 21
-2.7673083858267717
 31
0
  0
LINE
  5
33C
330
1A
100
AcDbEntity
  8
Edge.Cuts
  6
CONTINUOUS
100
AcDbLine
 10
4.6890034251968506
 20
-2.7673083858267717
 30
0
 11
4.6829425984251971
 21
-2.7698188582677163
 31
0
  0
LINE
  5
33D
330
1A
100
AcDbEntity
  8
Edge.Cuts
  6
CONTINUOUS
100
AcDbLine
 10
4.6829425984251971
 20
-2.7698188582677163
 30
0
 11
4.676508464566929
 21
-2.7710987007874017
 31
0
  0
LINE
  5
33E
330
1A
100
AcDbEntity
  8
Edge.Cuts
  6
CONTINUOUS
100
AcDbLine
 10
4.676508464566929
 20
-2.7710987007874017
 30
0
 11
4.6732283464566926
 21
-2.7712598425196848
 31
0
  0
LINE
  5
33F
330
1A
100
AcDbEntity
  8
Edge.Cuts
  6
CONTINUOUS
100
AcDbLine
 10
4.6732283464566926
 20
-2.7712598425196848
 30
0
 11
4.5984251968503935
 21
-2.7712598425196848
 31
0
  0
LINE
  5
340
330
1A
100
AcDbEntity
  8
Edge.Cuts
  6
CONTINUOUS
100
AcDbLine
 10
4.5984251968503935
 20
-2.7712598425196848
 30
0
 11
4.5951450787401571
 21
-2.7710987007874017
 31
0
  0
LINE
  5
341
330
1A
100
AcDbEntity
  8
Edge.Cuts
  6
CONTINUOUS
100
AcDbLine
 10
4.5951450787401571
 20
-2.7710987007874017
 30
0
 11
4.5887109448818899
 21
-2.7698188582677163
 31
0
  0
LINE
  5
342
330
1A
100
AcDbEntity
  8
Edge.Cuts
  6
CONTINUOUS
100
AcDbLine
 10
4.5887109448818899
 20
-2.7698188582677163
 30
0
 11
4.5826501181102364
 21
-2.7673083858267717
 31
0
  0
LINE
  5
343
330
1A
100
AcDbEntity
  8
Edge.Cuts
  6
CONTINUOUS
100
AcDbLine
 10
4.5826501181102364
 20
-2.7673083858267717
 30
0
 11
4.5771955118110235
 21
-2.7636637401574804
 31
0
  0
LINE
  5
344
330
1A
100
AcDbEntity
  8
Edge.Cuts
  6
CONTINUOUS
100
AcDbLine
 10
4.5771955118110235
 20
-2.7636637401574804
 30
0
 11
4.5725567322834646
 21
-2.7590249606299211
 31
0
  0
LINE
  5
345
330
1A
100
AcDbEntity
  8
Edge.Cuts
  6
CONTINUOUS
100
AcDbLine
 10
4.5725567322834646
 20
-2.7590249606299211
 30
0
 11
4.5689120866141728
 21
-2.7535703543307086
 31
0
  0
LINE
  5
346
330
1A
100
AcDbEntity
  8
Edge.Cuts
  6
CONTINUOUS
100
AcDbLine
 10
4.5689120866141728
 20
-2.7535703543307086
 30
0
 11
4.5664016141732287
 21
-2.7475095275590551
 31
0
  0
LINE
  5
347
330
1A
100
AcDbEntity
  8
Edge.Cuts
  6
CONTINUOUS
100
AcDbLine
 10
4.5664016141732287
 20
-2.7475095275590551
 30
0
 11
4.5651217716535433
 21
-2.7410753937007875
 31
0
  0
LINE
  5
348
330
1A
100
AcDbEntity
  8
Edge.Cuts
  6
CONTINUOUS
100
AcDbLine
 10
4.5651217716535433
 20
-2.7410753937007875
 30
0
 11
4.5651217716535433
 21
-2.734515157480315
 31
0
  0
LINE
  5
349
330
1A
100
AcDbEntity
  8
Edge.Cuts
  6
CONTINUOUS
100
AcDbLine
 10
4.5651217716535433
 20
-2.734515157480315
 30
0
 11
4.5664016141732287
 21
-2.728081023622047
 31
0
  0
LINE
  5
34A
330
1A
100
AcDbEntity
  8
Edge.Cuts
  6
CONTINUOUS
100
AcDbLine
 10
4.5664016141732287
 20
-2.728081023622047
 30
0
 11
4.5689120866141728
 21
-2.7220201968503934
 31
0
  0
LINE
  5
34B
330
1A
100
AcDbEntity
  8
Edge.Cuts
  6
CONTINUOUS
100
AcDbLine
 10
4.5689120866141728
 20
-2.7220201968503934
 30
0
 11
4.5725567322834646
 21
-2.716565590551181
 31
0
  0
LINE
  5
34C
330
1A
100
AcDbEntity
  8
Edge.Cuts
  6
CONTINUOUS
100
AcDbLine
 10
4.5725567322834646
 20
-2.716565590551181
 30
0
 11
4.5771955118110235
 21
-2.7119268110236221
 31
0
  0
LINE
  5
34D
330
1A
100
AcDbEntity
  8
Edge.Cuts
  6
CONTINUOUS
100
AcDbLine
 10
4.5771955118110235
 20
-2.7119268110236221
 30
0
 11
4.5826501181102364
 21
-2.7082821653543308
 31
0
  0
LINE
  5
34E
330
1A
100
AcDbEntity
  8
Edge.Cuts
  6
CONTINUOUS
100
AcDbLine
 10
4.5826501181102364
 20
-2.7082821653543308
 30
0
 11
4.5887109448818899
 21
-2.7057716929133857
 31
0
  0
LINE
  5
34F
330
1A
100
AcDbEntity
  8
Edge.Cuts
  6
CONTINUOUS
100
AcDbLine
 10
4.5887109448818899
 20
-2.7057716929133857
 30
0
 11
4.5951450787401571
 21
-2.7044918503937008
 31
0
  0
LINE
  5
350
330
1A
100
AcDbEntity
  8
Edge.Cuts
  6
CONTINUOUS
100
AcDbLine
 10
4.5951450787401571
 20
-2.7044918503937008
 30
0
 11
4.5984251968503935
 21
-2.7043307086614172
 31
0
  0
LINE
  5
351
330
1A
100
AcDbEntity
  8
Edge.Cuts
  6
CONTINUOUS
100
AcDbLine
 10
4.5984251968503935
 20
-2.7043307086614172
 30
0
 11
4.6732283464566926
 21
-2.7043307086614172
 31
0
  0
LINE
  5
352
330
1A
100
AcDbEntity
  8
Edge.Cuts
  6
CONTINUOUS
100
AcDbLine
 10
4.6732283464566926
 20
-2.7043307086614172
 30
0
 11
4.676508464566929
 21
-2.7044918503937008
 31
0
  0
LINE
  5
353
330
1A
100
AcDbEntity
  8
Edge.Cuts
  6
CONTINUOUS
100
AcDbLine
 10
5.3576108267716531
 20
-2.7044918503937008
 30
0
 11
5.3640449606299212
 21
-2.7057716929133857
 31
0
  0
LINE
  5
354
330
1A
100
AcDbEntity
  8
Edge.Cuts
  6
CONTINUOUS
100
AcDbLine
 10
5.3640449606299212
 20
-2.7057716929133857
 30
0
 11
5.3701057874015747
 21
-2.7082821653543308
 31
0
  0
LINE
  5
355
330
1A
100
AcDbEntity
  8
Edge.Cuts
  6
CONTINUOUS
100
AcDbLine
 10
5.3701057874015747
 20
-2.7082821653543308
 30
0
 11
5.3755603937007876
 21
-2.7119268110236221
 31
0
  0
LINE
  5
356
330
1A
100
AcDbEntity
  8
Edge.Cuts
  6
CONTINUOUS
100
AcDbLine
 10
5.3755603937007876
 20
-2.7119268110236221
 30
0
 11
5.3801991732283465
 21
-2.716565590551181
 31
0
  0
LINE
  5
357
330
1A
100
AcDbEntity
  8
Edge.Cuts
  6
CONTINUOUS
100
AcDbLine
 10
5.3801991732283465
 20
-2.716565590551181
 30
0
 11
5.3838438188976374
 21
-2.7220201968503934
 31
0
  0
LINE
  5
358
330
1A
100
AcDbEntity
  8
Edge.Cuts
  6
CONTINUOUS
100
AcDbLine
 10
5.3838438188976374
 20
-2.7220201968503934
 30
0
 11
5.3863542913385825
 21
-2.728081023622047
 31
0
  0
LINE
  5
359
330
1A
100
AcDbEntity
  8
Edge.Cuts
  6
CONTINUOUS
100
AcDbLine
 10
5.3863542913385825
 20
-2.728081023622047
 30
0
 11
5.3876341338582678
 21
-2.734515157480315
 31
0
  0
LINE
  5
35A
330
1A
100
AcDbEntity
  8
Edge.Cuts
  6
CONTINUOUS
100
AcDbLine
 10
5.3876341338582678
 20
-2.734515157480315
 30
0
 11
5.3876341338582678
 21
-2.7410753937007875
 31
0
  0
LINE
  5
35B
330
1A
100
AcDbEntity
  8
Edge.Cuts
  6
CONTINUOUS
100
AcDbLine
 10
5.3876341338582678
 20
-2.7410753937007875
 30
0
 11
5.3863542913385825
 21
-2.7475095275590551
 31
0
  0
LINE
  5
35C
330
1A
100
AcDbEntity
  8
Edge.Cuts
  6
CONTINUOUS
100
AcDbLine
 10
5.3863542913385825
 20
-2.7475095275590551
 30
0
 11
5.3838438188976374
 21
-2.7535703543307086
 31
0
  0
LINE
  5
35D
330
1A
100
AcDbEntity
  8
Edge.Cuts
  6
CONTINUOUS
100
AcDbLine
 10
5.3838438188976374
 20
-2.7535703543307086
 30
0
 11
5.3801991732283465
 21
-2.7590249606299211
 31
0
  0
LINE
  5
35E
330
1A
100
AcDbEntity
  8
Edge.Cuts
  6
CONTINUOUS
100
AcDbLine
 10
5.3801991732283465
 20
-2.7590249606299211
 30
0
 11
5.3755603937007876
 21
-2.7636637401574804
 31
0
  0
LINE
  5
35F
330
1A
100
AcDbEntity
  8
Edge.Cuts
  6
CONTINUOUS
100
AcDbLine
 10
5.3755603937007876
 20
-2.7636637401574804
 30
0
 11
5.3701057874015747
 21
-2.7673083858267717
 31
0
  0
LINE
  5
360
330
1A
100
AcDbEntity
  8
Edge.Cuts
  6
CONTINUOUS
100
AcDbLine
 10
5.3701057874015747
 20
-2.7673083858267717
 30
0
 11
5.3640449606299212
 21
-2.7698188582677163
 31
0
  0
LINE
  5
361
330
1A
100
AcDbEntity
  8
Edge.Cuts
  6
CONTINUOUS
100
AcDbLine
 10
5.3640449606299212
 20
-2.7698188582677163
 30
0
 11
5.3576108267716531
 21
-2.7710987007874017
 31
0
  0
LINE
  5
362
330
1A
100
AcDbEntity
  8
Edge.Cuts
  6
CONTINUOUS
100
AcDbLine
 10
5.3576108267716531
 20
-2.7710987007874017
 30
0
 11
5.3543307086614176
 21
-2.7712598425196848
 31
0
  0
LINE
  5
363
330
1A
100
AcDbEntity
  8
Edge.Cuts
  6
CONTINUOUS
100
AcDbLine
 10
5.3543307086614176
 20
-2.7712598425196848
 30
0
 11
5.2755905511811019
 21
-2.7712598425196848
 31
0
  0
LINE
  5
364
330
1A
100
AcDbEntity
  8
Edge.Cuts
  6
CONTINUOUS
100
AcDbLine
 10
5.2755905511811019
 20
-2.7712598425196848
 30
0
 11
5.2723104330708663
 21
-2.7710987007874017
 31
0
  0
LINE
  5
365
330
1A
100
AcDbEntity
  8
Edge.Cuts
  6
CONTINUOUS
100
AcDbLine
 10
5.2723104330708663
 20
-2.7710987007874017
 30
0
 11
5.2658762992125983
 21
-2.7698188582677163
 31
0
  0
LINE
  5
366
330
1A
100
AcDbEntity
  8
Edge.Cuts
  6
CONTINUOUS
100
AcDbLine
 10
5.2658762992125983
 20
-2.7698188582677163
 30
0
 11
5.2598154724409447
 21
-2.7673083858267717
 31
0
  0
LINE
  5
367
330
1A
100
AcDbEntity
  8
Edge.Cuts
  6
CONTINUOUS
100
AcDbLine
 10
5.2598154724409447
 20
-2.7673083858267717
 30
0
 11
5.2543608661417318
 21
-2.7636637401574804
 31
0
  0
LINE
  5
368
330
1A
100
AcDbEntity
  8
Edge.Cuts
  6
CONTINUOUS
100
AcDbLine
 10
5.2543608661417318
 20
-2.7636637401574804
 30
0
 11
5.2497220866141729
 21
-2.7590249606299211
 31
0
  0
LINE
  5
369
330
1A
100
AcDbEntity
  8
Edge.Cuts
  6
CONTINUOUS
100
AcDbLine
 10
5.2497220866141729
 20
-2.7590249606299211
 30
0
 11
5.246077440944882
 21
-2.7535703543307086
 31
0
  0
LINE
  5
36A
330
1A
100
AcDbEntity
  8
Edge.Cuts
  6
CONTINUOUS
100
AcDbLine
 10
5.246077440944882
 20
-2.7535703543307086
 30
0
 11
5.243566968503937
 21
-2.7475095275590551
 31
0
  0
LINE
  5
36B
330
1A
100
AcDbEntity
  8
Edge.Cuts
  6
CONTINUOUS
100
AcDbLine
 10
5.243566968503937
 20
-2.7475095275590551
 30
0
 11
5.2422871259842516
 21
-2.7410753937007875
 31
0
  0
LINE
  5
36C
330
1A
100
AcDbEntity
  8
Edge.Cuts
  6
CONTINUOUS
100
AcDbLine
 10
5.2422871259842516
 20
-2.7410753937007875
 30
0
 11
5.2422871259842516
 21
-2.734515157480315
 31
0
  0
LINE
  5
36D
330
1A
100
AcDbEntity
  8
Edge.Cuts
  6
CONTINUOUS
100
AcDbLine
 10
5.2422871259842516
 20
-2.734515157480315
 30
0
 11
5.243566968503937
 21
-2.728081023622047
 31
0
  0
LINE
  5
36E
330
1A
100
AcDbEntity
  8
Edge.Cuts
  6
CONTINUOUS
100
AcDbLine
 10
5.243566968503937
 20
-2.728081023622047
 30
0
 11
5.246077440944882
 21
-2.7220201968503934
 31
0
  0
LINE
  5
36F
330
1A
100
AcDbEntity
  8
Edge.Cuts
  6
CONTINUOUS
100
AcDbLine
 10
5.246077440944882
 20
-2.7220201968503934
 30
0
 11
5.2497220866141729
 21
-2.716565590551181
 31
0
  0
LINE
  5
370
330
1A
100
AcDbEntity
  8
Edge.Cuts
  6
CONTINUOUS
100
AcDbLine
 10
5.2497220866141729
 20
-2.716565590551181
 30
0
 11
5.2543608661417318
 21
-2.7119268110236221
 31
0
  0
LINE
  5
371
330
1A
100
AcDbEntity
  8
Edge.Cuts
  6
CONTINUOUS
100
AcDbLine
 10
5.2543608661417318
 20
-2.7119268110236221
 30
0
 11
5.2598154724409447
 21
-2.7082821653543308
 31
0
  0
LINE
  5
372
330
1A
100
AcDbEntity
  8
Edge.Cuts
  6
CONTINUOUS
100
AcDbLine
 10
5.2598154724409447
 20
-2.7082821653543308
 30
0
 11
5.2658762992125983
 21
-2.7057716929133857
 31
0
  0
LINE
  5
373
330
1A
100
AcDbEntity
  8
Edge.Cuts
  6
CONTINUOUS
100
AcDbLine
 10
5.2658762992125983
 20
-2.7057716929133857
 30
0
 11
5.2723104330708663
 21
-2.7044918503937008
 31
0
  0
LINE
  5
374
330
1A
100
AcDbEntity
  8
Edge.Cuts
  6
CONTINUOUS
100
AcDbLine
 10
5.2723104330708663
 20
-2.7044918503937008
 30
0
 11
5.2755905511811019
 21
-2.7043307086614172
 31
0
  0
LINE
  5
375
330
1A
100
AcDbEntity
  8
Edge.Cuts
  6
CONTINUOUS
100
AcDbLine
 10
5.2755905511811019
 20
-2.7043307086614172
 30
0
 11
5.3543307086614176
 21
-2.7043307086614172
 31
0
  0
LINE
  5
376
330
1A
100
AcDbEntity
  8
Edge.Cuts
  6
CONTINUOUS
100
AcDbLine
 10
5.3543307086614176
 20
-2.7043307086614172
 30
0
 11
5.3576108267716531
 21
-2.7044918503937008
 31
0
  0
LINE
  5
377
330
1A
100
AcDbEntity
  8
Edge.Cuts
  6
CONTINUOUS
100
AcDbLine
 10
4.7047244094488185
 20
-2.6712598425196852
 30
0
 11
4.5669291338582676
 21
-2.6712598425196852
 31
0
  0
LINE
  5
378
330
1A
100
AcDbEntity
  8
Edge.Cuts
  6
CONTINUOUS
100
AcDbLine
 10
4.5669291338582676
 20
-2.6712598425196852
 30
0
 11
4.5669291338582676
 21
-2.6043307086614171
 31
0
  0
LINE
  5
379
330
1A
100
AcDbEntity
  8
Edge.Cuts
  6
CONTINUOUS
100
AcDbLine
 10
4.5669291338582676
 20
-2.6043307086614171
 30
0
 11
4.7047244094488185
 21
-2.6043307086614171
 31
0
  0
LINE
  5
37A
330
1A
100
AcDbEntity
  8
Edge.Cuts
  6
CONTINUOUS
100
AcDbLine
 10
4.7047244094488185
 20
-2.6043307086614171
 30
0
 11
4.7047244094488185
 21
-2.6712598425196852
 31
0
  0
LINE
  5
37B
330
1A
100
AcDbEntity
  8
Edge.Cuts
  6
CONTINUOUS
100
AcDbLine
 10
5.3576108267716531
 20
-2.6044918503937007
 30
0
 11
5.3640449606299212
 21
-2.6057716929133856
 31
0
  0
LINE
  5
37C
330
1A
100
AcDbEntity
  8
Edge.Cuts
  6
CONTINUOUS
100
AcDbLine
 10
5.3640449606299212
 20
-2.6057716929133856
 30
0
 11
5.3701057874015747
 21
-2.6082821653543307
 31
0
  0
LINE
  5
37D
330
1A
100
AcDbEntity
  8
Edge.Cuts
  6
CONTINUOUS
100
AcDbLine
 10
5.3701057874015747
 20
-2.6082821653543307
 30
0
 11
5.3755603937007876
 21
-2.611926811023622
 31
0
  0
LINE
  5
37E
330
1A
100
AcDbEntity
  8
Edge.Cuts
  6
CONTINUOUS
100
AcDbLine
 10
5.3755603937007876
 20
-2.611926811023622
 30
0
 11
5.3801991732283465
 21
-2.6165655905511809
 31
0
  0
LINE
  5
37F
330
1A
100
AcDbEntity
  8
Edge.Cuts
  6
CONTINUOUS
100
AcDbLine
 10
5.3801991732283465
 20
-2.6165655905511809
 30
0
 11
5.3838438188976374
 21
-2.6220201968503938
 31
0
  0
LINE
  5
380
330
1A
100
AcDbEntity
  8
Edge.Cuts
  6
CONTINUOUS
100
AcDbLine
 10
5.3838438188976374
 20
-2.6220201968503938
 30
0
 11
5.3863542913385825
 21
-2.6280810236220473
 31
0
  0
LINE
  5
381
330
1A
100
AcDbEntity
  8
Edge.Cuts
  6
CONTINUOUS
100
AcDbLine
 10
5.3863542913385825
 20
-2.6280810236220473
 30
0
 11
5.3876341338582678
 21
-2.634515157480315
 31
0
  0
LINE
  5
382
330
1A
100
AcDbEntity
  8
Edge.Cuts
  6
CONTINUOUS
100
AcDbLine
 10
5.3876341338582678
 20
-2.634515157480315
 30
0
 11
5.3876341338582678
 21
-2.6410753937007874
 31
0
  0
LINE
  5
383
330
1A
100
AcDbEntity
  8
Edge.Cuts
  6
CONTINUOUS
100
AcDbLine
 10
5.3876341338582678
 20
-2.6410753937007874
 30
0
 11
5.3863542913385825
 21
-2.647509527559055
 31
0
  0
LINE
  5
384
330
1A
100
AcDbEntity
  8
Edge.Cuts
  6
CONTINUOUS
100
AcDbLine
 10
5.3863542913385825
 20
-2.647509527559055
 30
0
 11
5.3838438188976374
 21
-2.6535703543307085
 31
0
  0
LINE
  5
385
330
1A
100
AcDbEntity
  8
Edge.Cuts
  6
CONTINUOUS
100
AcDbLine
 10
5.3838438188976374
 20
-2.6535703543307085
 30
0
 11
5.3801991732283465
 21
-2.659024960629921
 31
0
  0
LINE
  5
386
330
1A
100
AcDbEntity
  8
Edge.Cuts
  6
CONTINUOUS
100
AcDbLine
 10
5.3801991732283465
 20
-2.659024960629921
 30
0
 11
5.3755603937007876
 21
-2.6636637401574803
 31
0
  0
LINE
  5
387
330
1A
100
AcDbEntity
  8
Edge.Cuts
  6
CONTINUOUS
100
AcDbLine
 10
5.3755603937007876
 20
-2.6636637401574803
 30
0
 11
5.3701057874015747
 21
-2.6673083858267717
 31
0
  0
LINE
  5
388
330
1A
100
AcDbEntity
  8
Edge.Cuts
  6
CONTINUOUS
100
AcDbLine
 10
5.3701057874015747
 20
-2.6673083858267717
 30
0
 11
5.3640449606299212
 21
-2.6698188582677163
 31
0
  0
LINE
  5
389
330
1A
100
AcDbEntity
  8
Edge.Cuts
  6
CONTINUOUS
100
AcDbLine
 10
5.3640449606299212
 20
-2.6698188582677163
 30
0
 11
5.3576108267716531
 21
-2.6710987007874016
 31
0
  0
LINE
  5
38A
330
1A
100
AcDbEntity
  8
Edge.Cuts
  6
CONTINUOUS
100
AcDbLine
 10
5.3576108267716531
 20
-2.6710987007874016
 30
0
 11
5.3543307086614176
 21
-2.6712598425196852
 31
0
  0
LINE
  5
38B
330
1A
100
AcDbEntity
  8
Edge.Cuts
  6
CONTINUOUS
100
AcDbLine
 10
5.3543307086614176
 20
-2.6712598425196852
 30
0
 11
5.2755905511811019
 21
-2.6712598425196852
 31
0
  0
LINE
  5
38C
330
1A
100
AcDbEntity
  8
Edge.Cuts
  6
CONTINUOUS
100
AcDbLine
 10
5.2755905511811019
 20
-2.6712598425196852
 30
0
 11
5.2723104330708663
 21
-2.6710987007874016
 31
0
  0
LINE
  5
38D
330
1A
100
AcDbEntity
  8
Edge.Cuts
  6
CONTINUOUS
100
AcDbLine
 10
5.2723104330708663
 20
-2.6710987007874016
 30
0
 11
5.2658762992125983
 21
-2.6698188582677163
 31
0
  0
LINE
  5
38E
330
1A
100
AcDbEntity
  8
Edge.Cuts
  6
CONTINUOUS
100
AcDbLine
 10
5.2658762992125983
 20
-2.6698188582677163
 30
0
 11
5.2598154724409447
 21
-2.6673083858267717
 31
0
  0
LINE
  5
38F
330
1A
100
AcDbEntity
  8
Edge.Cuts
  6
CONTINUOUS
100
AcDbLine
 10
5.2598154724409447
 20
-2.6673083858267717
 30
0
 11
5.2543608661417318
 21
-2.6636637401574803
 31
0
  0
LINE
  5
390
330
1A
100
AcDbEntity
  8
Edge.Cuts
  6
CONTINUOUS
100
AcDbLine
 10
5.2543608661417318
 20
-2.6636637401574803
 30
0
 11
5.2497220866141729
 21
-2.659024960629921
 31
0
  0
LINE
  5
391
330
1A
100
AcDbEntity
  8
Edge.Cuts
  6
CONTINUOUS
100
AcDbLine
 10
5.2497220866141729
 20
-2.659024960629921
 30
0
 11
5.246077440944882
 21
-2.6535703543307085
 31
0
  0
LINE
  5
392
330
1A
100
AcDbEntity
  8
Edge.Cuts
  6
CONTINUOUS
100
AcDbLine
 10
5.246077440944882
 20
-2.6535703543307085
 30
0
 11
5.243566968503937
 21
-2.647509527559055
 31
0
  0
LINE
  5
393
330
1A
100
AcDbEntity
  8
Edge.Cuts
  6
CONTINUOUS
100
AcDbLine
 10
5.243566968503937
 20
-2.647509527559055
 30
0
 11
5.2422871259842516
 21
-2.6410753937007874
 31
0
  0
LINE
  5
394
330
1A
100
AcDbEntity
  8
Edge.Cuts
  6
CONTINUOUS
100
AcDbLine
 10
5.2422871259842516
 20
-2.6410753937007874
 30
0
 11
5.2422871259842516
 21
-2.634515157480315
 31
0
  0
LINE
  5
395
330
1A
100
AcDbEntity
  8
Edge.Cuts
  6
CONTINUOUS
100
AcDbLine
 10
5.2422871259842516
 20
-2.634515157480315
 30
0
 11
5.243566968503937
 21
-2.6280810236220473
 31
0
  0
LINE
  5
396
330
1A
100
AcDbEntity
  8
Edge.Cuts
  6
CONTINUOUS
100
AcDbLine
 10
5.243566968503937
 20
-2.6280810236220473
 30
0
 11
5.246077440944882
 21
-2.6220201968503938
 31
0
  0
LINE
  5
397
330
1A
100
AcDbEntity
  8
Edge.Cuts
  6
CONTINUOUS
100
AcDbLine
 10
5.246077440944882
 20
-2.6220201968503938
 30
0
 11
5.2497220866141729
 21
-2.6165655905511809
 31
0
  0
LINE
  5
398
330
1A
100
AcDbEntity
  8
Edge.Cuts
  6
CONTINUOUS
100
AcDbLine
 10
5.2497220866141729
 20
-2.6165655905511809
 30
0
 11
5.2543608661417318
 21
-2.611926811023622
 31
0
  0
LINE
  5
399
330
1A
100
AcDbEntity
  8
Edge.Cuts
  6
CONTINUOUS
100
AcDbLine
 10
5.2543608661417318
 20
-2.611926811023622
 30
0
 11
5.2598154724409447
 21
-2.6082821653543307
 31
0
  0
LINE
  5
39A
330
1A
100
AcDbEntity
  8
Edge.Cuts
  6
CONTINUOUS
100
AcDbLine
 10
5.2598154724409447
 20
-2.6082821653543307
 30
0
 11
5.2658762992125983
 21
-2.6057716929133856
 31
0
  0
LINE
  5
39B
330
1A
100
AcDbEntity
  8
Edge.Cuts
  6
CONTINUOUS
100
AcDbLine
 10
5.2658762992125983
 20
-2.6057716929133856
 30
0
 11
5.2723104330708663
 21
-2.6044918503937007
 31
0
  0
LINE
  5
39C
330
1A
100
AcDbEntity
  8
Edge.Cuts
  6
CONTINUOUS
100
AcDbLine
 10
5.2723104330708663
 20
-2.6044918503937007
 30
0
 11
5.2755905511811019
 21
-2.6043307086614171
 31
0
  0
LINE
  5
39D
330
1A
100
AcDbEntity
  8
Edge.Cuts
  6
CONTINUOUS
100
AcDbLine
 10
5.2755905511811019
 20
-2.6043307086614171
 30
0
 11
5.3543307086614176
 21
-2.6043307086614171
 31
0
  0
LINE
  5
39E
330
1A
100
AcDbEntity
  8
Edge.Cuts
  6
CONTINUOUS
100
AcDbLine
 10
5.3543307086614176
 20
-2.6043307086614171
 30
0
 11
5.3576108267716531
 21
-2.6044918503937007
 31
0
  0
ENDSEC
  0
SECTION
  2
OBJECTS
  0
DICTIONARY
  5
20
330
0
100
AcDbDictionary
281
1
  3
ACAD_GROUP
350
39F
  3
ACAD_LAYOUT
350
21
  3
ACAD_PLOTSTYLENAME
350
11
  0
DICTIONARY
  5
39F
330
20
100
AcDbDictionary
281
1
  0
ACDBDICTIONARYWDFLT
  5
11
330
20
100
AcDbDictionary
281
1
  3
Normal
350
10
100
AcDbDictionaryWithDefault
340
10
  0
ACDBPLACEHOLDER
  5
10
330
11
  0
DICTIONARY
  5
21
330
20
100
AcDbDictionary
281
1
  3
Model
350
1D
  3
Layout1
350
1E
  3
Layout2
350
1F
  0
LAYOUT
  5
1D
330
21
100
AcDbPlotSettings
  1

  2
none_device
  4
A3
  6

 40
0.0
 41
0.0
 42
0.0
 43
0.0
 44
420.0
 45
297.0
 46
0.0
 47
0.0
 48
0.0
 49
0.0
140
0.0
141
0.0
142
1.0
143
1.0
 70
1024
 72
1
 73
0
 74
5
  7

 75
16
 76
0
 77
2
 78
300
147
1.0
148
0.0
149
0.0
100
AcDbLayout
  1
Model
 70
1
 71
0
 10
0.0
 20
0.0
 11
420.0
 21
297.0
 12
0.0
 22
0.0
 32
0.0
 14
1e+20
 24
1e+20
 34
1e+20
 15
-1e+20
 25
-1e+20
 35
-1e+20
146
0.0
 13
0.0
 23
0.0
 33
0.0
 16
1.0
 26
0.0
 36
0.0
 17
0.0
 27
1.0
 37
0.0
 76
0
330
1A
  0
LAYOUT
  5
1E
330
21
100
AcDbPlotSettings
  1

  2
none_device
  4
A3
  6

 40
0.0
 41
0.0
 42
0.0
 43
0.0
 44
420.0
 45
297.0
 46
0.0
 47
0.0
 48
0.0
 49
0.0
140
0.0
141
0.0
142
1.0
143
1.0
 70
0
 72
1
 73
0
 74
5
  7

 75
16
 76
0
 77
2
 78
300
147
1.0
148
0.0
149
0.0
100
AcDbLayout
  1
Layout1
 70
1
 71
1
 10
0.0
 20
0.0
 11
420.0
 21
297.0
 12
0.0
 22
0.0
 32
0.0
 14
1e+20
 24
1e+20
 34
1e+20
 15
-1e+20
 25
-1e+20
 35
-1e+20
146
0.0
 13
0.0
 23
0.0
 33
0.0
 16
1.0
 26
0.0
 36
0.0
 17
0.0
 27
1.0
 37
0.0
 76
0
330
1B
  0
LAYOUT
  5
1F
330
21
100
AcDbPlotSettings
  1

  2
none_device
  4
A3
  6

 40
0.0
 41
0.0
 42
0.0
 43
0.0
 44
420.0
 45
297.0
 46
0.0
 47
0.0
 48
0.0
 49
0.0
140
0.0
141
0.0
142
1.0
143
1.0
 70
0
 72
1
 73
0
 74
5
  7

 75
16
 76
0
 77
2
 78
300
147
1.0
148
0.0
149
0.0
100
AcDbLayout
  1
Layout2
 70
1
 71
2
 10
0.0
 20
0.0
 11
420.0
 21
297.0
 12
0.0
 22
0.0
 32
0.0
 14
1e+20
 24
1e+20
 34
1e+20
 15
-1e+20
 25
-1e+20
 35
-1e+20
146
0.0
 13
0.0
 23
0.0
 33
0.0
 16
1.0
 26
0.0
 36
0.0
 17
0.0
 27
1.0
 37
0.0
 76
0
330
1C
  0
ENDSEC
  0
EOF
