ISO-10303-21;
HEADER;
/* Generated by software containing ST-Developer
 * from STEP Tools, Inc. (www.steptools.com) 
 */
/* OPTION: using custom renumber hook */

FILE_DESCRIPTION(
/* description */ ('STEP AP242 Edition 2',
'CAx-IF Rec.Pracs.---Representation and Presentation of Product Manufa
cturing Information (PMI)---4.0---2014-10-13',
'CAx-IF Rec.Pracs.---3D Tessellated Geometry---0.4---2014-09-14','2;1',
'CAx-IF Rec.Pracs.---User Defined Attributes---1.5---2016-08-15'),
/* implementation_level */ '2;1');

FILE_NAME(
/* name */ 'Part Studio 1 - Part 1',
/* time_stamp */ '2026-07-14T02:47:30Z',
/* author */ (''),
/* organization */ (''),
/* preprocessor_version */ 'ST-DEVELOPER v20',
/* originating_system */ 'ONSHAPE BY PTC INC, 1.217',
/* authorisation */ '  ');

FILE_SCHEMA (('AP242_MANAGED_MODEL_BASED_3D_ENGINEERING_MIM_LF { 1 0 10303 442 3 1 4 }'));
ENDSEC;

DATA;
#10=SHAPE_REPRESENTATION_RELATIONSHIP('','',#405,#11);
#11=ADVANCED_BREP_SHAPE_REPRESENTATION('',(#403),#643);
#12=CIRCLE('',#414,0.0016951851394339);
#13=CIRCLE('',#415,0.0016951851394339);
#14=CIRCLE('',#417,0.00169518513943391);
#15=CIRCLE('',#418,0.00169518513943391);
#16=CIRCLE('',#420,0.00145);
#17=CIRCLE('',#421,0.00145);
#18=CIRCLE('',#423,0.00145);
#19=CIRCLE('',#424,0.00145);
#20=CYLINDRICAL_SURFACE('',#413,0.0016951851394339);
#21=CYLINDRICAL_SURFACE('',#416,0.00169518513943391);
#22=CYLINDRICAL_SURFACE('',#419,0.00145);
#23=CYLINDRICAL_SURFACE('',#422,0.00145);
#24=ORIENTED_EDGE('',*,*,#124,.T.);
#25=ORIENTED_EDGE('',*,*,#125,.T.);
#26=ORIENTED_EDGE('',*,*,#126,.F.);
#27=ORIENTED_EDGE('',*,*,#127,.F.);
#28=ORIENTED_EDGE('',*,*,#128,.T.);
#29=ORIENTED_EDGE('',*,*,#129,.T.);
#30=ORIENTED_EDGE('',*,*,#126,.T.);
#31=ORIENTED_EDGE('',*,*,#130,.T.);
#32=ORIENTED_EDGE('',*,*,#131,.F.);
#33=ORIENTED_EDGE('',*,*,#132,.F.);
#34=ORIENTED_EDGE('',*,*,#131,.T.);
#35=ORIENTED_EDGE('',*,*,#133,.T.);
#36=ORIENTED_EDGE('',*,*,#134,.F.);
#37=ORIENTED_EDGE('',*,*,#135,.T.);
#38=ORIENTED_EDGE('',*,*,#136,.F.);
#39=ORIENTED_EDGE('',*,*,#137,.T.);
#40=ORIENTED_EDGE('',*,*,#138,.T.);
#41=ORIENTED_EDGE('',*,*,#139,.F.);
#42=ORIENTED_EDGE('',*,*,#140,.F.);
#43=ORIENTED_EDGE('',*,*,#141,.T.);
#44=ORIENTED_EDGE('',*,*,#142,.F.);
#45=ORIENTED_EDGE('',*,*,#143,.F.);
#46=ORIENTED_EDGE('',*,*,#144,.T.);
#47=ORIENTED_EDGE('',*,*,#145,.T.);
#48=ORIENTED_EDGE('',*,*,#146,.T.);
#49=ORIENTED_EDGE('',*,*,#147,.F.);
#50=ORIENTED_EDGE('',*,*,#148,.F.);
#51=ORIENTED_EDGE('',*,*,#143,.T.);
#52=ORIENTED_EDGE('',*,*,#149,.F.);
#53=ORIENTED_EDGE('',*,*,#150,.T.);
#54=ORIENTED_EDGE('',*,*,#151,.T.);
#55=ORIENTED_EDGE('',*,*,#152,.F.);
#56=ORIENTED_EDGE('',*,*,#153,.F.);
#57=ORIENTED_EDGE('',*,*,#147,.T.);
#58=ORIENTED_EDGE('',*,*,#154,.T.);
#59=ORIENTED_EDGE('',*,*,#155,.F.);
#60=ORIENTED_EDGE('',*,*,#156,.T.);
#61=ORIENTED_EDGE('',*,*,#157,.F.);
#62=ORIENTED_EDGE('',*,*,#158,.T.);
#63=ORIENTED_EDGE('',*,*,#159,.F.);
#64=ORIENTED_EDGE('',*,*,#160,.T.);
#65=ORIENTED_EDGE('',*,*,#161,.F.);
#66=ORIENTED_EDGE('',*,*,#162,.T.);
#67=ORIENTED_EDGE('',*,*,#163,.F.);
#68=ORIENTED_EDGE('',*,*,#164,.F.);
#69=ORIENTED_EDGE('',*,*,#145,.F.);
#70=ORIENTED_EDGE('',*,*,#165,.T.);
#71=ORIENTED_EDGE('',*,*,#155,.T.);
#72=ORIENTED_EDGE('',*,*,#136,.T.);
#73=ORIENTED_EDGE('',*,*,#166,.T.);
#74=ORIENTED_EDGE('',*,*,#128,.F.);
#75=ORIENTED_EDGE('',*,*,#167,.T.);
#76=ORIENTED_EDGE('',*,*,#168,.F.);
#77=ORIENTED_EDGE('',*,*,#149,.T.);
#78=ORIENTED_EDGE('',*,*,#165,.F.);
#79=ORIENTED_EDGE('',*,*,#144,.F.);
#80=ORIENTED_EDGE('',*,*,#148,.T.);
#81=ORIENTED_EDGE('',*,*,#153,.T.);
#82=ORIENTED_EDGE('',*,*,#169,.T.);
#83=ORIENTED_EDGE('',*,*,#137,.F.);
#84=ORIENTED_EDGE('',*,*,#167,.F.);
#85=ORIENTED_EDGE('',*,*,#127,.T.);
#86=ORIENTED_EDGE('',*,*,#132,.T.);
#87=ORIENTED_EDGE('',*,*,#141,.F.);
#88=ORIENTED_EDGE('',*,*,#162,.F.);
#89=ORIENTED_EDGE('',*,*,#160,.F.);
#90=ORIENTED_EDGE('',*,*,#158,.F.);
#91=ORIENTED_EDGE('',*,*,#156,.F.);
#92=ORIENTED_EDGE('',*,*,#146,.F.);
#93=ORIENTED_EDGE('',*,*,#142,.T.);
#94=ORIENTED_EDGE('',*,*,#164,.T.);
#95=ORIENTED_EDGE('',*,*,#154,.F.);
#96=ORIENTED_EDGE('',*,*,#161,.T.);
#97=ORIENTED_EDGE('',*,*,#157,.T.);
#98=ORIENTED_EDGE('',*,*,#134,.T.);
#99=ORIENTED_EDGE('',*,*,#170,.T.);
#100=ORIENTED_EDGE('',*,*,#124,.F.);
#101=ORIENTED_EDGE('',*,*,#171,.T.);
#102=ORIENTED_EDGE('',*,*,#159,.T.);
#103=ORIENTED_EDGE('',*,*,#163,.T.);
#104=ORIENTED_EDGE('',*,*,#172,.T.);
#105=ORIENTED_EDGE('',*,*,#139,.T.);
#106=ORIENTED_EDGE('',*,*,#173,.F.);
#107=ORIENTED_EDGE('',*,*,#151,.F.);
#108=ORIENTED_EDGE('',*,*,#168,.T.);
#109=ORIENTED_EDGE('',*,*,#140,.T.);
#110=ORIENTED_EDGE('',*,*,#172,.F.);
#111=ORIENTED_EDGE('',*,*,#150,.F.);
#112=ORIENTED_EDGE('',*,*,#152,.T.);
#113=ORIENTED_EDGE('',*,*,#173,.T.);
#114=ORIENTED_EDGE('',*,*,#138,.F.);
#115=ORIENTED_EDGE('',*,*,#169,.F.);
#116=ORIENTED_EDGE('',*,*,#125,.F.);
#117=ORIENTED_EDGE('',*,*,#170,.F.);
#118=ORIENTED_EDGE('',*,*,#133,.F.);
#119=ORIENTED_EDGE('',*,*,#130,.F.);
#120=ORIENTED_EDGE('',*,*,#129,.F.);
#121=ORIENTED_EDGE('',*,*,#166,.F.);
#122=ORIENTED_EDGE('',*,*,#135,.F.);
#123=ORIENTED_EDGE('',*,*,#171,.F.);
#124=EDGE_CURVE('',#174,#175,#210,.T.);
#125=EDGE_CURVE('',#175,#176,#211,.T.);
#126=EDGE_CURVE('',#177,#176,#212,.T.);
#127=EDGE_CURVE('',#178,#177,#213,.T.);
#128=EDGE_CURVE('',#178,#179,#214,.T.);
#129=EDGE_CURVE('',#179,#174,#215,.F.);
#130=EDGE_CURVE('',#176,#180,#216,.T.);
#131=EDGE_CURVE('',#181,#180,#217,.T.);
#132=EDGE_CURVE('',#177,#181,#218,.T.);
#133=EDGE_CURVE('',#180,#182,#219,.T.);
#134=EDGE_CURVE('',#183,#182,#220,.T.);
#135=EDGE_CURVE('',#183,#184,#221,.F.);
#136=EDGE_CURVE('',#185,#184,#222,.T.);
#137=EDGE_CURVE('',#185,#186,#223,.T.);
#138=EDGE_CURVE('',#186,#187,#224,.T.);
#139=EDGE_CURVE('',#188,#187,#225,.T.);
#140=EDGE_CURVE('',#189,#188,#226,.T.);
#141=EDGE_CURVE('',#189,#181,#227,.T.);
#142=EDGE_CURVE('',#190,#191,#228,.T.);
#143=EDGE_CURVE('',#192,#190,#229,.T.);
#144=EDGE_CURVE('',#192,#193,#230,.T.);
#145=EDGE_CURVE('',#193,#191,#231,.T.);
#146=EDGE_CURVE('',#190,#194,#232,.T.);
#147=EDGE_CURVE('',#195,#194,#233,.T.);
#148=EDGE_CURVE('',#192,#195,#234,.T.);
#149=EDGE_CURVE('',#196,#197,#235,.T.);
#150=EDGE_CURVE('',#196,#198,#236,.T.);
#151=EDGE_CURVE('',#198,#199,#237,.T.);
#152=EDGE_CURVE('',#200,#199,#238,.T.);
#153=EDGE_CURVE('',#195,#200,#239,.T.);
#154=EDGE_CURVE('',#194,#201,#240,.T.);
#155=EDGE_CURVE('',#197,#201,#241,.T.);
#156=EDGE_CURVE('',#202,#202,#12,.T.);
#157=EDGE_CURVE('',#203,#203,#13,.T.);
#158=EDGE_CURVE('',#204,#204,#14,.T.);
#159=EDGE_CURVE('',#205,#205,#15,.T.);
#160=EDGE_CURVE('',#206,#206,#16,.T.);
#161=EDGE_CURVE('',#207,#207,#17,.T.);
#162=EDGE_CURVE('',#208,#208,#18,.T.);
#163=EDGE_CURVE('',#209,#209,#19,.T.);
#164=EDGE_CURVE('',#191,#201,#242,.T.);
#165=EDGE_CURVE('',#193,#197,#243,.T.);
#166=EDGE_CURVE('',#184,#179,#244,.T.);
#167=EDGE_CURVE('',#178,#185,#245,.T.);
#168=EDGE_CURVE('',#196,#189,#246,.T.);
#169=EDGE_CURVE('',#200,#186,#247,.T.);
#170=EDGE_CURVE('',#182,#175,#248,.T.);
#171=EDGE_CURVE('',#174,#183,#249,.T.);
#172=EDGE_CURVE('',#198,#188,#250,.T.);
#173=EDGE_CURVE('',#199,#187,#251,.T.);
#174=VERTEX_POINT('',#538);
#175=VERTEX_POINT('',#539);
#176=VERTEX_POINT('',#541);
#177=VERTEX_POINT('',#543);
#178=VERTEX_POINT('',#545);
#179=VERTEX_POINT('',#547);
#180=VERTEX_POINT('',#551);
#181=VERTEX_POINT('',#553);
#182=VERTEX_POINT('',#557);
#183=VERTEX_POINT('',#559);
#184=VERTEX_POINT('',#561);
#185=VERTEX_POINT('',#563);
#186=VERTEX_POINT('',#565);
#187=VERTEX_POINT('',#567);
#188=VERTEX_POINT('',#569);
#189=VERTEX_POINT('',#571);
#190=VERTEX_POINT('',#575);
#191=VERTEX_POINT('',#576);
#192=VERTEX_POINT('',#578);
#193=VERTEX_POINT('',#580);
#194=VERTEX_POINT('',#584);
#195=VERTEX_POINT('',#586);
#196=VERTEX_POINT('',#590);
#197=VERTEX_POINT('',#591);
#198=VERTEX_POINT('',#593);
#199=VERTEX_POINT('',#595);
#200=VERTEX_POINT('',#597);
#201=VERTEX_POINT('',#600);
#202=VERTEX_POINT('',#604);
#203=VERTEX_POINT('',#606);
#204=VERTEX_POINT('',#609);
#205=VERTEX_POINT('',#611);
#206=VERTEX_POINT('',#614);
#207=VERTEX_POINT('',#616);
#208=VERTEX_POINT('',#619);
#209=VERTEX_POINT('',#621);
#210=LINE('',#537,#252);
#211=LINE('',#540,#253);
#212=LINE('',#542,#254);
#213=LINE('',#544,#255);
#214=LINE('',#546,#256);
#215=LINE('',#548,#257);
#216=LINE('',#550,#258);
#217=LINE('',#552,#259);
#218=LINE('',#554,#260);
#219=LINE('',#556,#261);
#220=LINE('',#558,#262);
#221=LINE('',#560,#263);
#222=LINE('',#562,#264);
#223=LINE('',#564,#265);
#224=LINE('',#566,#266);
#225=LINE('',#568,#267);
#226=LINE('',#570,#268);
#227=LINE('',#572,#269);
#228=LINE('',#574,#270);
#229=LINE('',#577,#271);
#230=LINE('',#579,#272);
#231=LINE('',#581,#273);
#232=LINE('',#583,#274);
#233=LINE('',#585,#275);
#234=LINE('',#587,#276);
#235=LINE('',#589,#277);
#236=LINE('',#592,#278);
#237=LINE('',#594,#279);
#238=LINE('',#596,#280);
#239=LINE('',#598,#281);
#240=LINE('',#599,#282);
#241=LINE('',#601,#283);
#242=LINE('',#623,#284);
#243=LINE('',#624,#285);
#244=LINE('',#626,#286);
#245=LINE('',#627,#287);
#246=LINE('',#629,#288);
#247=LINE('',#630,#289);
#248=LINE('',#633,#290);
#249=LINE('',#634,#291);
#250=LINE('',#636,#292);
#251=LINE('',#637,#293);
#252=VECTOR('',#439,1.);
#253=VECTOR('',#440,1.);
#254=VECTOR('',#441,1.);
#255=VECTOR('',#442,1.);
#256=VECTOR('',#443,1.);
#257=VECTOR('',#444,1.);
#258=VECTOR('',#447,1.);
#259=VECTOR('',#448,1.);
#260=VECTOR('',#449,1.);
#261=VECTOR('',#452,1.);
#262=VECTOR('',#453,1.);
#263=VECTOR('',#454,1.);
#264=VECTOR('',#455,1.);
#265=VECTOR('',#456,1.);
#266=VECTOR('',#457,1.);
#267=VECTOR('',#458,1.);
#268=VECTOR('',#459,1.);
#269=VECTOR('',#460,1.);
#270=VECTOR('',#463,1.);
#271=VECTOR('',#464,1.);
#272=VECTOR('',#465,1.);
#273=VECTOR('',#466,1.);
#274=VECTOR('',#469,1.);
#275=VECTOR('',#470,1.);
#276=VECTOR('',#471,1.);
#277=VECTOR('',#474,1.);
#278=VECTOR('',#475,1.);
#279=VECTOR('',#476,1.);
#280=VECTOR('',#477,1.);
#281=VECTOR('',#478,1.);
#282=VECTOR('',#479,1.);
#283=VECTOR('',#480,1.);
#284=VECTOR('',#507,1.);
#285=VECTOR('',#508,1.);
#286=VECTOR('',#511,1.);
#287=VECTOR('',#512,1.);
#288=VECTOR('',#515,1.);
#289=VECTOR('',#516,1.);
#290=VECTOR('',#521,1.);
#291=VECTOR('',#522,1.);
#292=VECTOR('',#525,1.);
#293=VECTOR('',#526,1.);
#294=EDGE_LOOP('',(#24,#25,#26,#27,#28,#29));
#295=EDGE_LOOP('',(#30,#31,#32,#33));
#296=EDGE_LOOP('',(#34,#35,#36,#37,#38,#39,#40,#41,#42,#43));
#297=EDGE_LOOP('',(#44,#45,#46,#47));
#298=EDGE_LOOP('',(#48,#49,#50,#51));
#299=EDGE_LOOP('',(#52,#53,#54,#55,#56,#57,#58,#59));
#300=EDGE_LOOP('',(#60));
#301=EDGE_LOOP('',(#61));
#302=EDGE_LOOP('',(#62));
#303=EDGE_LOOP('',(#63));
#304=EDGE_LOOP('',(#64));
#305=EDGE_LOOP('',(#65));
#306=EDGE_LOOP('',(#66));
#307=EDGE_LOOP('',(#67));
#308=EDGE_LOOP('',(#68,#69,#70,#71));
#309=EDGE_LOOP('',(#72,#73,#74,#75));
#310=EDGE_LOOP('',(#76,#77,#78,#79,#80,#81,#82,#83,#84,#85,#86,#87));
#311=EDGE_LOOP('',(#88));
#312=EDGE_LOOP('',(#89));
#313=EDGE_LOOP('',(#90));
#314=EDGE_LOOP('',(#91));
#315=EDGE_LOOP('',(#92,#93,#94,#95));
#316=EDGE_LOOP('',(#96));
#317=EDGE_LOOP('',(#97));
#318=EDGE_LOOP('',(#98,#99,#100,#101));
#319=EDGE_LOOP('',(#102));
#320=EDGE_LOOP('',(#103));
#321=EDGE_LOOP('',(#104,#105,#106,#107));
#322=EDGE_LOOP('',(#108,#109,#110,#111));
#323=EDGE_LOOP('',(#112,#113,#114,#115));
#324=EDGE_LOOP('',(#116,#117,#118,#119));
#325=EDGE_LOOP('',(#120,#121,#122,#123));
#326=FACE_BOUND('',#294,.T.);
#327=FACE_BOUND('',#295,.T.);
#328=FACE_BOUND('',#296,.T.);
#329=FACE_BOUND('',#297,.T.);
#330=FACE_BOUND('',#298,.T.);
#331=FACE_BOUND('',#299,.T.);
#332=FACE_BOUND('',#300,.T.);
#333=FACE_BOUND('',#301,.T.);
#334=FACE_BOUND('',#302,.T.);
#335=FACE_BOUND('',#303,.T.);
#336=FACE_BOUND('',#304,.T.);
#337=FACE_BOUND('',#305,.T.);
#338=FACE_BOUND('',#306,.T.);
#339=FACE_BOUND('',#307,.T.);
#340=FACE_BOUND('',#308,.T.);
#341=FACE_BOUND('',#309,.T.);
#342=FACE_BOUND('',#310,.T.);
#343=FACE_BOUND('',#311,.T.);
#344=FACE_BOUND('',#312,.T.);
#345=FACE_BOUND('',#313,.T.);
#346=FACE_BOUND('',#314,.T.);
#347=FACE_BOUND('',#315,.T.);
#348=FACE_BOUND('',#316,.T.);
#349=FACE_BOUND('',#317,.T.);
#350=FACE_BOUND('',#318,.T.);
#351=FACE_BOUND('',#319,.T.);
#352=FACE_BOUND('',#320,.T.);
#353=FACE_BOUND('',#321,.T.);
#354=FACE_BOUND('',#322,.T.);
#355=FACE_BOUND('',#323,.T.);
#356=FACE_BOUND('',#324,.T.);
#357=FACE_BOUND('',#325,.T.);
#358=PLANE('',#407);
#359=PLANE('',#408);
#360=PLANE('',#409);
#361=PLANE('',#410);
#362=PLANE('',#411);
#363=PLANE('',#412);
#364=PLANE('',#425);
#365=PLANE('',#426);
#366=PLANE('',#427);
#367=PLANE('',#428);
#368=PLANE('',#429);
#369=PLANE('',#430);
#370=PLANE('',#431);
#371=PLANE('',#432);
#372=PLANE('',#433);
#373=PLANE('',#434);
#374=ADVANCED_FACE('',(#326),#358,.F.);
#375=ADVANCED_FACE('',(#327),#359,.F.);
#376=ADVANCED_FACE('',(#328),#360,.T.);
#377=ADVANCED_FACE('',(#329),#361,.T.);
#378=ADVANCED_FACE('',(#330),#362,.F.);
#379=ADVANCED_FACE('',(#331),#363,.F.);
#380=ADVANCED_FACE('',(#332,#333),#20,.F.);
#381=ADVANCED_FACE('',(#334,#335),#21,.F.);
#382=ADVANCED_FACE('',(#336,#337),#22,.F.);
#383=ADVANCED_FACE('',(#338,#339),#23,.F.);
#384=ADVANCED_FACE('',(#340),#364,.T.);
#385=ADVANCED_FACE('',(#341),#365,.T.);
#386=ADVANCED_FACE('',(#342,#343,#344,#345,#346),#366,.T.);
#387=ADVANCED_FACE('',(#347),#367,.F.);
#388=ADVANCED_FACE('',(#348,#349,#350,#351,#352),#368,.T.);
#389=ADVANCED_FACE('',(#353),#369,.F.);
#390=ADVANCED_FACE('',(#354),#370,.F.);
#391=ADVANCED_FACE('',(#355),#371,.T.);
#392=ADVANCED_FACE('',(#356),#372,.T.);
#393=ADVANCED_FACE('',(#357),#373,.F.);
#394=CLOSED_SHELL('',(#374,#375,#376,#377,#378,#379,#380,#381,#382,#383,
#384,#385,#386,#387,#388,#389,#390,#391,#392,#393));
#395=STYLED_ITEM('',(#396),#403);
#396=PRESENTATION_STYLE_ASSIGNMENT((#397));
#397=SURFACE_STYLE_USAGE(.BOTH.,#398);
#398=SURFACE_SIDE_STYLE('',(#399));
#399=SURFACE_STYLE_FILL_AREA(#400);
#400=FILL_AREA_STYLE('',(#401));
#401=FILL_AREA_STYLE_COLOUR('',#402);
#402=COLOUR_RGB('',0.615686274509804,0.811764705882353,0.929411764705882);
#403=MANIFOLD_SOLID_BREP('Part 1',#394);
#404=SHAPE_DEFINITION_REPRESENTATION(#648,#405);
#405=SHAPE_REPRESENTATION('Part 1',(#406),#643);
#406=AXIS2_PLACEMENT_3D('',#535,#435,#436);
#407=AXIS2_PLACEMENT_3D('',#536,#437,#438);
#408=AXIS2_PLACEMENT_3D('',#549,#445,#446);
#409=AXIS2_PLACEMENT_3D('',#555,#450,#451);
#410=AXIS2_PLACEMENT_3D('',#573,#461,#462);
#411=AXIS2_PLACEMENT_3D('',#582,#467,#468);
#412=AXIS2_PLACEMENT_3D('',#588,#472,#473);
#413=AXIS2_PLACEMENT_3D('',#602,#481,#482);
#414=AXIS2_PLACEMENT_3D('',#603,#483,#484);
#415=AXIS2_PLACEMENT_3D('',#605,#485,#486);
#416=AXIS2_PLACEMENT_3D('',#607,#487,#488);
#417=AXIS2_PLACEMENT_3D('',#608,#489,#490);
#418=AXIS2_PLACEMENT_3D('',#610,#491,#492);
#419=AXIS2_PLACEMENT_3D('',#612,#493,#494);
#420=AXIS2_PLACEMENT_3D('',#613,#495,#496);
#421=AXIS2_PLACEMENT_3D('',#615,#497,#498);
#422=AXIS2_PLACEMENT_3D('',#617,#499,#500);
#423=AXIS2_PLACEMENT_3D('',#618,#501,#502);
#424=AXIS2_PLACEMENT_3D('',#620,#503,#504);
#425=AXIS2_PLACEMENT_3D('',#622,#505,#506);
#426=AXIS2_PLACEMENT_3D('',#625,#509,#510);
#427=AXIS2_PLACEMENT_3D('',#628,#513,#514);
#428=AXIS2_PLACEMENT_3D('',#631,#517,#518);
#429=AXIS2_PLACEMENT_3D('',#632,#519,#520);
#430=AXIS2_PLACEMENT_3D('',#635,#523,#524);
#431=AXIS2_PLACEMENT_3D('',#638,#527,#528);
#432=AXIS2_PLACEMENT_3D('',#639,#529,#530);
#433=AXIS2_PLACEMENT_3D('',#640,#531,#532);
#434=AXIS2_PLACEMENT_3D('',#641,#533,#534);
#435=DIRECTION('',(0.,0.,1.));
#436=DIRECTION('',(1.,0.,0.));
#437=DIRECTION('',(1.,0.,0.));
#438=DIRECTION('',(0.,0.,-1.));
#439=DIRECTION('',(0.,-1.,0.));
#440=DIRECTION('',(0.,-0.707106781186547,0.707106781186548));
#441=DIRECTION('',(0.,0.,-1.));
#442=DIRECTION('',(0.,-1.,0.));
#443=DIRECTION('',(0.,0.,-1.));
#444=DIRECTION('',(0.,0.707106781186548,0.707106781186548));
#445=DIRECTION('',(0.,1.,0.));
#446=DIRECTION('',(0.,0.,1.));
#447=DIRECTION('',(1.,0.,0.));
#448=DIRECTION('',(0.,0.,-1.));
#449=DIRECTION('',(1.,0.,0.));
#450=DIRECTION('',(1.,5.92814515498268E-17,0.));
#451=DIRECTION('',(-5.92814515498268E-17,1.,0.));
#452=DIRECTION('',(-4.19183163894643E-17,0.707106781186547,-0.707106781186548));
#453=DIRECTION('',(5.92814515498268E-17,-1.,0.));
#454=DIRECTION('',(4.19183163894643E-17,-0.707106781186548,-0.707106781186548));
#455=DIRECTION('',(0.,0.,-1.));
#456=DIRECTION('',(5.92814515498268E-17,-1.,0.));
#457=DIRECTION('',(0.,0.,-1.));
#458=DIRECTION('',(-5.92814515498268E-17,1.,0.));
#459=DIRECTION('',(0.,0.,-1.));
#460=DIRECTION('',(5.92814515498268E-17,-1.,0.));
#461=DIRECTION('',(1.,0.,0.));
#462=DIRECTION('',(0.,0.,-1.));
#463=DIRECTION('',(0.,-1.,0.));
#464=DIRECTION('',(0.,0.,-1.));
#465=DIRECTION('',(0.,-1.,0.));
#466=DIRECTION('',(0.,0.,-1.));
#467=DIRECTION('',(0.,1.,0.));
#468=DIRECTION('',(0.,0.,1.));
#469=DIRECTION('',(1.,0.,0.));
#470=DIRECTION('',(0.,0.,-1.));
#471=DIRECTION('',(1.,0.,0.));
#472=DIRECTION('',(1.,6.12323399573677E-17,0.));
#473=DIRECTION('',(-6.12323399573677E-17,1.,0.));
#474=DIRECTION('',(6.12323399573677E-17,-1.,0.));
#475=DIRECTION('',(0.,0.,-1.));
#476=DIRECTION('',(-6.12323399573677E-17,1.,0.));
#477=DIRECTION('',(0.,0.,-1.));
#478=DIRECTION('',(6.12323399573677E-17,-1.,0.));
#479=DIRECTION('',(6.12323399573677E-17,-1.,0.));
#480=DIRECTION('',(0.,0.,-1.));
#481=DIRECTION('',(0.,0.,-1.));
#482=DIRECTION('',(-1.,0.,0.));
#483=DIRECTION('',(0.,0.,1.));
#484=DIRECTION('',(1.,0.,0.));
#485=DIRECTION('',(0.,0.,1.));
#486=DIRECTION('',(1.,0.,0.));
#487=DIRECTION('',(0.,0.,-1.));
#488=DIRECTION('',(-1.,0.,0.));
#489=DIRECTION('',(0.,0.,1.));
#490=DIRECTION('',(1.,0.,0.));
#491=DIRECTION('',(0.,0.,1.));
#492=DIRECTION('',(1.,0.,0.));
#493=DIRECTION('',(0.,0.,-1.));
#494=DIRECTION('',(-1.,0.,0.));
#495=DIRECTION('',(0.,0.,1.));
#496=DIRECTION('',(1.,0.,0.));
#497=DIRECTION('',(0.,0.,1.));
#498=DIRECTION('',(1.,0.,0.));
#499=DIRECTION('',(0.,0.,-1.));
#500=DIRECTION('',(-1.,0.,0.));
#501=DIRECTION('',(0.,0.,1.));
#502=DIRECTION('',(1.,0.,0.));
#503=DIRECTION('',(0.,0.,1.));
#504=DIRECTION('',(1.,0.,0.));
#505=DIRECTION('',(0.,1.,0.));
#506=DIRECTION('',(0.,0.,1.));
#507=DIRECTION('',(1.,0.,0.));
#508=DIRECTION('',(1.,0.,0.));
#509=DIRECTION('',(0.,1.,0.));
#510=DIRECTION('',(0.,0.,1.));
#511=DIRECTION('',(-1.,0.,0.));
#512=DIRECTION('',(1.,0.,0.));
#513=DIRECTION('',(0.,0.,1.));
#514=DIRECTION('',(1.,0.,0.));
#515=DIRECTION('',(1.,5.92814515498268E-17,0.));
#516=DIRECTION('',(1.,5.92814515498268E-17,0.));
#517=DIRECTION('',(0.,0.,-1.));
#518=DIRECTION('',(1.,0.,0.));
#519=DIRECTION('',(0.,0.,-1.));
#520=DIRECTION('',(1.,0.,0.));
#521=DIRECTION('',(-1.,0.,0.));
#522=DIRECTION('',(1.,0.,0.));
#523=DIRECTION('',(0.,0.,-1.));
#524=DIRECTION('',(-1.,0.,0.));
#525=DIRECTION('',(1.,5.92814515498268E-17,0.));
#526=DIRECTION('',(1.,5.92814515498268E-17,0.));
#527=DIRECTION('',(5.92814515498268E-17,-1.,0.));
#528=DIRECTION('',(1.,5.92814515498268E-17,0.));
#529=DIRECTION('',(5.92814515498268E-17,-1.,0.));
#530=DIRECTION('',(1.,5.92814515498268E-17,0.));
#531=DIRECTION('',(0.,-0.707106781186548,-0.707106781186547));
#532=DIRECTION('',(-1.,0.,0.));
#533=DIRECTION('',(0.,-0.707106781186547,0.707106781186548));
#534=DIRECTION('',(1.,0.,0.));
#535=CARTESIAN_POINT('',(0.,0.,0.));
#536=CARTESIAN_POINT('',(-0.089025,0.0192625,0.01));
#537=CARTESIAN_POINT('',(-0.089025,0.0192625,-0.003));
#538=CARTESIAN_POINT('',(-0.089025,0.046525,-0.003));
#539=CARTESIAN_POINT('',(-0.089025,-0.008,-0.003));
#540=CARTESIAN_POINT('',(-0.089025,-0.01,-0.001));
#541=CARTESIAN_POINT('',(-0.089025,-0.01,-0.001));
#542=CARTESIAN_POINT('',(-0.089025,-0.01,0.01));
#543=CARTESIAN_POINT('',(-0.089025,-0.01,0.01));
#544=CARTESIAN_POINT('',(-0.089025,0.0192625,0.01));
#545=CARTESIAN_POINT('',(-0.089025,0.048525,0.01));
#546=CARTESIAN_POINT('',(-0.089025,0.048525,0.01));
#547=CARTESIAN_POINT('',(-0.089025,0.048525,-0.001));
#548=CARTESIAN_POINT('',(-0.089025,0.046525,-0.003));
#549=CARTESIAN_POINT('',(-0.0395125,-0.01,0.01));
#550=CARTESIAN_POINT('',(0.01,-0.01,-0.001));
#551=CARTESIAN_POINT('',(0.01,-0.01,-0.001));
#552=CARTESIAN_POINT('',(0.01,-0.01,0.01));
#553=CARTESIAN_POINT('',(0.01,-0.01,0.01));
#554=CARTESIAN_POINT('',(-0.0395125,-0.01,0.01));
#555=CARTESIAN_POINT('',(0.01,0.0192625,0.01));
#556=CARTESIAN_POINT('',(0.01,-0.000868750000000019,-0.01013125));
#557=CARTESIAN_POINT('',(0.01,-0.008,-0.003));
#558=CARTESIAN_POINT('',(0.01,0.0192625,-0.003));
#559=CARTESIAN_POINT('',(0.01,0.046525,-0.003));
#560=CARTESIAN_POINT('',(0.01,0.03939375,-0.01013125));
#561=CARTESIAN_POINT('',(0.01,0.048525,-0.001));
#562=CARTESIAN_POINT('',(0.01,0.048525,0.01));
#563=CARTESIAN_POINT('',(0.01,0.048525,0.01));
#564=CARTESIAN_POINT('',(0.01,0.0192625,0.01));
#565=CARTESIAN_POINT('',(0.01,0.0201945919543505,0.01));
#566=CARTESIAN_POINT('',(0.01,0.0201945919543505,0.00806903499364853));
#567=CARTESIAN_POINT('',(0.01,0.0201945919543505,0.00506903499364853));
#568=CARTESIAN_POINT('',(0.01,0.0131945919543505,0.00506903499364853));
#569=CARTESIAN_POINT('',(0.01,0.00619459195435047,0.00506903499364853));
#570=CARTESIAN_POINT('',(0.01,0.00619459195435047,0.00806903499364853));
#571=CARTESIAN_POINT('',(0.01,0.00619459195435047,0.01));
#572=CARTESIAN_POINT('',(0.01,0.0192625,0.01));
#573=CARTESIAN_POINT('',(-0.079025,0.0192625,0.01));
#574=CARTESIAN_POINT('',(-0.079025,0.0192625,0.));
#575=CARTESIAN_POINT('',(-0.079025,0.038525,0.));
#576=CARTESIAN_POINT('',(-0.079025,-3.46944695195361E-18,0.));
#577=CARTESIAN_POINT('',(-0.079025,0.038525,0.01));
#578=CARTESIAN_POINT('',(-0.079025,0.038525,0.01));
#579=CARTESIAN_POINT('',(-0.079025,0.0192625,0.01));
#580=CARTESIAN_POINT('',(-0.079025,-3.46944695195361E-18,0.01));
#581=CARTESIAN_POINT('',(-0.079025,-3.46944695195361E-18,0.01));
#582=CARTESIAN_POINT('',(-0.0395125,0.038525,0.01));
#583=CARTESIAN_POINT('',(-0.0395125,0.038525,0.));
#584=CARTESIAN_POINT('',(-2.32333523864115E-18,0.038525,0.));
#585=CARTESIAN_POINT('',(-2.32333523864115E-18,0.038525,0.01));
#586=CARTESIAN_POINT('',(-2.32333523864115E-18,0.038525,0.01));
#587=CARTESIAN_POINT('',(-0.0395125,0.038525,0.01));
#588=CARTESIAN_POINT('',(-1.14384729021236E-18,0.0192625,0.01));
#589=CARTESIAN_POINT('',(-1.14384729021236E-18,0.0192625,0.01));
#590=CARTESIAN_POINT('',(0.,0.00619459195435047,0.01));
#591=CARTESIAN_POINT('',(3.56406582164352E-20,-2.49366499671666E-18,0.01));
#592=CARTESIAN_POINT('',(-3.43668702229527E-19,0.00619459195435047,0.01));
#593=CARTESIAN_POINT('',(0.,0.00619459195435047,0.00506903499364853));
#594=CARTESIAN_POINT('',(-1.14384729021236E-18,0.0192625,0.00506903499364853));
#595=CARTESIAN_POINT('',(-1.7347234759768E-18,0.0201945919543505,0.00506903499364853));
#596=CARTESIAN_POINT('',(-1.20092146163267E-18,0.0201945919543505,0.01));
#597=CARTESIAN_POINT('',(0.,0.0201945919543505,0.01));
#598=CARTESIAN_POINT('',(-1.14384729021236E-18,0.0192625,0.01));
#599=CARTESIAN_POINT('',(-1.14384729021236E-18,0.0192625,0.));
#600=CARTESIAN_POINT('',(3.56406582164352E-20,-2.49366499671666E-18,0.));
#601=CARTESIAN_POINT('',(3.56406582164352E-20,-2.49366499671666E-18,0.01));
#602=CARTESIAN_POINT('',(-0.0838311240077019,0.043525,0.01));
#603=CARTESIAN_POINT('',(-0.0838311240077019,0.043525,0.01));
#604=CARTESIAN_POINT('',(-0.082135938868268,0.043525,0.01));
#605=CARTESIAN_POINT('',(-0.0838311240077019,0.043525,-0.003));
#606=CARTESIAN_POINT('',(-0.082135938868268,0.043525,-0.003));
#607=CARTESIAN_POINT('',(0.00519387599229813,0.043525,0.01));
#608=CARTESIAN_POINT('',(0.00519387599229813,0.043525,0.01));
#609=CARTESIAN_POINT('',(0.00688906113173204,0.043525,0.01));
#610=CARTESIAN_POINT('',(0.00519387599229813,0.043525,-0.003));
#611=CARTESIAN_POINT('',(0.00688906113173204,0.043525,-0.003));
#612=CARTESIAN_POINT('',(-0.0838311240077019,-0.005,0.01));
#613=CARTESIAN_POINT('',(-0.0838311240077019,-0.005,0.01));
#614=CARTESIAN_POINT('',(-0.0823811240077019,-0.005,0.01));
#615=CARTESIAN_POINT('',(-0.0838311240077019,-0.005,-0.003));
#616=CARTESIAN_POINT('',(-0.0823811240077019,-0.005,-0.003));
#617=CARTESIAN_POINT('',(0.00519387599229813,-0.005,0.01));
#618=CARTESIAN_POINT('',(0.00519387599229813,-0.005,0.01));
#619=CARTESIAN_POINT('',(0.00664387599229813,-0.005,0.01));
#620=CARTESIAN_POINT('',(0.00519387599229813,-0.005,-0.003));
#621=CARTESIAN_POINT('',(0.00664387599229813,-0.005,-0.003));
#622=CARTESIAN_POINT('',(-0.0395125,-3.46944695195361E-18,0.01));
#623=CARTESIAN_POINT('',(-0.0395125,-3.46944695195361E-18,0.));
#624=CARTESIAN_POINT('',(-0.0395125,-3.46944695195361E-18,0.01));
#625=CARTESIAN_POINT('',(-0.0395125,0.048525,0.01));
#626=CARTESIAN_POINT('',(-0.0395125,0.048525,-0.001));
#627=CARTESIAN_POINT('',(-0.0395125,0.048525,0.01));
#628=CARTESIAN_POINT('',(-0.0395125,0.0192625,0.01));
#629=CARTESIAN_POINT('',(-0.0395125,0.00619459195435047,0.01));
#630=CARTESIAN_POINT('',(-0.0395125,0.0201945919543505,0.01));
#631=CARTESIAN_POINT('',(-0.0395125,0.0192625,0.));
#632=CARTESIAN_POINT('',(-0.0395125,0.0192625,-0.003));
#633=CARTESIAN_POINT('',(-0.089025,-0.008,-0.003));
#634=CARTESIAN_POINT('',(-0.0395125,0.046525,-0.003));
#635=CARTESIAN_POINT('',(-0.015,0.0131945919543505,0.00506903499364853));
#636=CARTESIAN_POINT('',(-0.015,0.00619459195435047,0.00506903499364853));
#637=CARTESIAN_POINT('',(-0.015,0.0201945919543505,0.00506903499364853));
#638=CARTESIAN_POINT('',(-0.015,0.00619459195435047,0.00806903499364853));
#639=CARTESIAN_POINT('',(-0.015,0.0201945919543505,0.00806903499364853));
#640=CARTESIAN_POINT('',(-0.0395125,-0.01,-0.001));
#641=CARTESIAN_POINT('',(-0.0395125,0.046525,-0.003));
#642=MECHANICAL_DESIGN_GEOMETRIC_PRESENTATION_REPRESENTATION('',(#395),
#643);
#643=(
GEOMETRIC_REPRESENTATION_CONTEXT(3)
GLOBAL_UNCERTAINTY_ASSIGNED_CONTEXT((#644))
GLOBAL_UNIT_ASSIGNED_CONTEXT((#647,#646,#645))
REPRESENTATION_CONTEXT('Part 1','TOP_LEVEL_ASSEMBLY_PART')
);
#644=UNCERTAINTY_MEASURE_WITH_UNIT(LENGTH_MEASURE(1.E-8),#647,
'DISTANCE_ACCURACY_VALUE','Maximum Tolerance applied to model');
#645=(
NAMED_UNIT(*)
SI_UNIT($,.STERADIAN.)
SOLID_ANGLE_UNIT()
);
#646=(
NAMED_UNIT(*)
PLANE_ANGLE_UNIT()
SI_UNIT($,.RADIAN.)
);
#647=(
LENGTH_UNIT()
NAMED_UNIT(*)
SI_UNIT($,.METRE.)
);
#648=PRODUCT_DEFINITION_SHAPE('','',#649);
#649=PRODUCT_DEFINITION('','',#651,#650);
#650=PRODUCT_DEFINITION_CONTEXT('',#657,'design');
#651=PRODUCT_DEFINITION_FORMATION_WITH_SPECIFIED_SOURCE('','',#653,
 .NOT_KNOWN.);
#652=PRODUCT_RELATED_PRODUCT_CATEGORY('','',(#653));
#653=PRODUCT('Part 1','Part 1','Part 1',(#655));
#654=PRODUCT_CATEGORY('','');
#655=PRODUCT_CONTEXT('',#657,'mechanical');
#656=APPLICATION_PROTOCOL_DEFINITION('international standard',
'ap242_managed_model_based_3d_engineering',2020,#657);
#657=APPLICATION_CONTEXT('managed model based 3d engineering');
ENDSEC;
END-ISO-10303-21;
